%TF.GenerationSoftware,KiCad,Pcbnew,(5.1.9)-1*%
%TF.CreationDate,2021-06-25T13:34:49+01:00*%
%TF.ProjectId,NoiseGen,4e6f6973-6547-4656-9e2e-6b696361645f,rev?*%
%TF.SameCoordinates,Original*%
%TF.FileFunction,Legend,Top*%
%TF.FilePolarity,Positive*%
%FSLAX46Y46*%
G04 Gerber Fmt 4.6, Leading zero omitted, Abs format (unit mm)*
G04 Created by KiCad (PCBNEW (5.1.9)-1) date 2021-06-25 13:34:49*
%MOMM*%
%LPD*%
G01*
G04 APERTURE LIST*
%ADD10C,0.120000*%
%ADD11C,0.150000*%
G04 APERTURE END LIST*
D10*
%TO.C,U1*%
X135350000Y-76160000D02*
X135350000Y-86400000D01*
X130709000Y-76160000D02*
X130709000Y-86400000D01*
X135350000Y-76160000D02*
X130709000Y-76160000D01*
X135350000Y-86400000D02*
X130709000Y-86400000D01*
X133840000Y-76160000D02*
X133840000Y-86400000D01*
%TO.C,U2*%
X128838000Y-68342000D02*
X128838000Y-67092000D01*
X128838000Y-67092000D02*
X118558000Y-67092000D01*
X118558000Y-67092000D02*
X118558000Y-71592000D01*
X118558000Y-71592000D02*
X128838000Y-71592000D01*
X128838000Y-71592000D02*
X128838000Y-70342000D01*
X128898000Y-64092000D02*
X118498000Y-64092000D01*
X118498000Y-64092000D02*
X118498000Y-74592000D01*
X118498000Y-74592000D02*
X128898000Y-74592000D01*
X128898000Y-74592000D02*
X128898000Y-64092000D01*
X128838000Y-70342000D02*
G75*
G02*
X128838000Y-68342000I0J1000000D01*
G01*
%TO.C,R1*%
X126968000Y-62508000D02*
X126968000Y-62838000D01*
X126968000Y-62838000D02*
X120428000Y-62838000D01*
X120428000Y-62838000D02*
X120428000Y-62508000D01*
X126968000Y-60428000D02*
X126968000Y-60098000D01*
X126968000Y-60098000D02*
X120428000Y-60098000D01*
X120428000Y-60098000D02*
X120428000Y-60428000D01*
%TO.C,J5*%
X122698000Y-75886000D02*
X121448000Y-75886000D01*
X121448000Y-75886000D02*
X121448000Y-86166000D01*
X121448000Y-86166000D02*
X125948000Y-86166000D01*
X125948000Y-86166000D02*
X125948000Y-75886000D01*
X125948000Y-75886000D02*
X124698000Y-75886000D01*
X118448000Y-75826000D02*
X118448000Y-86226000D01*
X118448000Y-86226000D02*
X128948000Y-86226000D01*
X128948000Y-86226000D02*
X128948000Y-75826000D01*
X128948000Y-75826000D02*
X118448000Y-75826000D01*
X124698000Y-75886000D02*
G75*
G02*
X122698000Y-75886000I-1000000J0D01*
G01*
%TO.C,J4*%
X126806000Y-58226000D02*
X126806000Y-55566000D01*
X124206000Y-58226000D02*
X126806000Y-58226000D01*
X124206000Y-55566000D02*
X126806000Y-55566000D01*
X124206000Y-58226000D02*
X124206000Y-55566000D01*
X122936000Y-58226000D02*
X121606000Y-58226000D01*
X121606000Y-58226000D02*
X121606000Y-56896000D01*
%TO.C,J3*%
X132902000Y-58226000D02*
X132902000Y-55566000D01*
X130302000Y-58226000D02*
X132902000Y-58226000D01*
X130302000Y-55566000D02*
X132902000Y-55566000D01*
X130302000Y-58226000D02*
X130302000Y-55566000D01*
X129032000Y-58226000D02*
X127702000Y-58226000D01*
X127702000Y-58226000D02*
X127702000Y-56896000D01*
%TO.C,J2*%
X133290000Y-94802000D02*
X135950000Y-94802000D01*
X133290000Y-89662000D02*
X133290000Y-94802000D01*
X135950000Y-89662000D02*
X135950000Y-94802000D01*
X133290000Y-89662000D02*
X135950000Y-89662000D01*
X133290000Y-88392000D02*
X133290000Y-87062000D01*
X133290000Y-87062000D02*
X134620000Y-87062000D01*
%TO.C,J1*%
X131378000Y-102422000D02*
X131378000Y-97222000D01*
X121158000Y-102422000D02*
X131378000Y-102422000D01*
X118558000Y-97222000D02*
X131378000Y-97222000D01*
X121158000Y-102422000D02*
X121158000Y-99822000D01*
X121158000Y-99822000D02*
X118558000Y-99822000D01*
X118558000Y-99822000D02*
X118558000Y-97222000D01*
X119888000Y-102422000D02*
X118558000Y-102422000D01*
X118558000Y-102422000D02*
X118558000Y-101092000D01*
%TO.C,C6*%
X129428000Y-59147000D02*
X135668000Y-59147000D01*
X129428000Y-63789000D02*
X135668000Y-63789000D01*
X129428000Y-59147000D02*
X129428000Y-60543000D01*
X129428000Y-62393000D02*
X129428000Y-63789000D01*
X135668000Y-59147000D02*
X135668000Y-60543000D01*
X135668000Y-62393000D02*
X135668000Y-63789000D01*
%TO.C,C4*%
X131520000Y-92456000D02*
G75*
G03*
X131520000Y-92456000I-3270000J0D01*
G01*
X128250000Y-95686000D02*
X128250000Y-89226000D01*
X128210000Y-95686000D02*
X128210000Y-89226000D01*
X128170000Y-95686000D02*
X128170000Y-89226000D01*
X128130000Y-95684000D02*
X128130000Y-89228000D01*
X128090000Y-95683000D02*
X128090000Y-89229000D01*
X128050000Y-95680000D02*
X128050000Y-89232000D01*
X128010000Y-95678000D02*
X128010000Y-93496000D01*
X128010000Y-91416000D02*
X128010000Y-89234000D01*
X127970000Y-95674000D02*
X127970000Y-93496000D01*
X127970000Y-91416000D02*
X127970000Y-89238000D01*
X127930000Y-95671000D02*
X127930000Y-93496000D01*
X127930000Y-91416000D02*
X127930000Y-89241000D01*
X127890000Y-95667000D02*
X127890000Y-93496000D01*
X127890000Y-91416000D02*
X127890000Y-89245000D01*
X127850000Y-95662000D02*
X127850000Y-93496000D01*
X127850000Y-91416000D02*
X127850000Y-89250000D01*
X127810000Y-95657000D02*
X127810000Y-93496000D01*
X127810000Y-91416000D02*
X127810000Y-89255000D01*
X127770000Y-95651000D02*
X127770000Y-93496000D01*
X127770000Y-91416000D02*
X127770000Y-89261000D01*
X127730000Y-95645000D02*
X127730000Y-93496000D01*
X127730000Y-91416000D02*
X127730000Y-89267000D01*
X127690000Y-95638000D02*
X127690000Y-93496000D01*
X127690000Y-91416000D02*
X127690000Y-89274000D01*
X127650000Y-95631000D02*
X127650000Y-93496000D01*
X127650000Y-91416000D02*
X127650000Y-89281000D01*
X127610000Y-95623000D02*
X127610000Y-93496000D01*
X127610000Y-91416000D02*
X127610000Y-89289000D01*
X127570000Y-95615000D02*
X127570000Y-93496000D01*
X127570000Y-91416000D02*
X127570000Y-89297000D01*
X127529000Y-95606000D02*
X127529000Y-93496000D01*
X127529000Y-91416000D02*
X127529000Y-89306000D01*
X127489000Y-95597000D02*
X127489000Y-93496000D01*
X127489000Y-91416000D02*
X127489000Y-89315000D01*
X127449000Y-95587000D02*
X127449000Y-93496000D01*
X127449000Y-91416000D02*
X127449000Y-89325000D01*
X127409000Y-95577000D02*
X127409000Y-93496000D01*
X127409000Y-91416000D02*
X127409000Y-89335000D01*
X127369000Y-95566000D02*
X127369000Y-93496000D01*
X127369000Y-91416000D02*
X127369000Y-89346000D01*
X127329000Y-95554000D02*
X127329000Y-93496000D01*
X127329000Y-91416000D02*
X127329000Y-89358000D01*
X127289000Y-95542000D02*
X127289000Y-93496000D01*
X127289000Y-91416000D02*
X127289000Y-89370000D01*
X127249000Y-95530000D02*
X127249000Y-93496000D01*
X127249000Y-91416000D02*
X127249000Y-89382000D01*
X127209000Y-95517000D02*
X127209000Y-93496000D01*
X127209000Y-91416000D02*
X127209000Y-89395000D01*
X127169000Y-95503000D02*
X127169000Y-93496000D01*
X127169000Y-91416000D02*
X127169000Y-89409000D01*
X127129000Y-95489000D02*
X127129000Y-93496000D01*
X127129000Y-91416000D02*
X127129000Y-89423000D01*
X127089000Y-95474000D02*
X127089000Y-93496000D01*
X127089000Y-91416000D02*
X127089000Y-89438000D01*
X127049000Y-95458000D02*
X127049000Y-93496000D01*
X127049000Y-91416000D02*
X127049000Y-89454000D01*
X127009000Y-95442000D02*
X127009000Y-93496000D01*
X127009000Y-91416000D02*
X127009000Y-89470000D01*
X126969000Y-95426000D02*
X126969000Y-93496000D01*
X126969000Y-91416000D02*
X126969000Y-89486000D01*
X126929000Y-95408000D02*
X126929000Y-93496000D01*
X126929000Y-91416000D02*
X126929000Y-89504000D01*
X126889000Y-95390000D02*
X126889000Y-93496000D01*
X126889000Y-91416000D02*
X126889000Y-89522000D01*
X126849000Y-95372000D02*
X126849000Y-93496000D01*
X126849000Y-91416000D02*
X126849000Y-89540000D01*
X126809000Y-95352000D02*
X126809000Y-93496000D01*
X126809000Y-91416000D02*
X126809000Y-89560000D01*
X126769000Y-95332000D02*
X126769000Y-93496000D01*
X126769000Y-91416000D02*
X126769000Y-89580000D01*
X126729000Y-95312000D02*
X126729000Y-93496000D01*
X126729000Y-91416000D02*
X126729000Y-89600000D01*
X126689000Y-95290000D02*
X126689000Y-93496000D01*
X126689000Y-91416000D02*
X126689000Y-89622000D01*
X126649000Y-95268000D02*
X126649000Y-93496000D01*
X126649000Y-91416000D02*
X126649000Y-89644000D01*
X126609000Y-95246000D02*
X126609000Y-93496000D01*
X126609000Y-91416000D02*
X126609000Y-89666000D01*
X126569000Y-95222000D02*
X126569000Y-93496000D01*
X126569000Y-91416000D02*
X126569000Y-89690000D01*
X126529000Y-95198000D02*
X126529000Y-93496000D01*
X126529000Y-91416000D02*
X126529000Y-89714000D01*
X126489000Y-95172000D02*
X126489000Y-93496000D01*
X126489000Y-91416000D02*
X126489000Y-89740000D01*
X126449000Y-95146000D02*
X126449000Y-93496000D01*
X126449000Y-91416000D02*
X126449000Y-89766000D01*
X126409000Y-95120000D02*
X126409000Y-93496000D01*
X126409000Y-91416000D02*
X126409000Y-89792000D01*
X126369000Y-95092000D02*
X126369000Y-93496000D01*
X126369000Y-91416000D02*
X126369000Y-89820000D01*
X126329000Y-95063000D02*
X126329000Y-93496000D01*
X126329000Y-91416000D02*
X126329000Y-89849000D01*
X126289000Y-95034000D02*
X126289000Y-93496000D01*
X126289000Y-91416000D02*
X126289000Y-89878000D01*
X126249000Y-95004000D02*
X126249000Y-93496000D01*
X126249000Y-91416000D02*
X126249000Y-89908000D01*
X126209000Y-94972000D02*
X126209000Y-93496000D01*
X126209000Y-91416000D02*
X126209000Y-89940000D01*
X126169000Y-94940000D02*
X126169000Y-93496000D01*
X126169000Y-91416000D02*
X126169000Y-89972000D01*
X126129000Y-94906000D02*
X126129000Y-93496000D01*
X126129000Y-91416000D02*
X126129000Y-90006000D01*
X126089000Y-94872000D02*
X126089000Y-93496000D01*
X126089000Y-91416000D02*
X126089000Y-90040000D01*
X126049000Y-94836000D02*
X126049000Y-93496000D01*
X126049000Y-91416000D02*
X126049000Y-90076000D01*
X126009000Y-94799000D02*
X126009000Y-93496000D01*
X126009000Y-91416000D02*
X126009000Y-90113000D01*
X125969000Y-94761000D02*
X125969000Y-93496000D01*
X125969000Y-91416000D02*
X125969000Y-90151000D01*
X125929000Y-94721000D02*
X125929000Y-90191000D01*
X125889000Y-94680000D02*
X125889000Y-90232000D01*
X125849000Y-94638000D02*
X125849000Y-90274000D01*
X125809000Y-94593000D02*
X125809000Y-90319000D01*
X125769000Y-94548000D02*
X125769000Y-90364000D01*
X125729000Y-94500000D02*
X125729000Y-90412000D01*
X125689000Y-94451000D02*
X125689000Y-90461000D01*
X125649000Y-94400000D02*
X125649000Y-90512000D01*
X125609000Y-94346000D02*
X125609000Y-90566000D01*
X125569000Y-94290000D02*
X125569000Y-90622000D01*
X125529000Y-94232000D02*
X125529000Y-90680000D01*
X125489000Y-94170000D02*
X125489000Y-90742000D01*
X125449000Y-94106000D02*
X125449000Y-90806000D01*
X125409000Y-94037000D02*
X125409000Y-90875000D01*
X125369000Y-93965000D02*
X125369000Y-90947000D01*
X125329000Y-93888000D02*
X125329000Y-91024000D01*
X125289000Y-93806000D02*
X125289000Y-91106000D01*
X125249000Y-93718000D02*
X125249000Y-91194000D01*
X125209000Y-93621000D02*
X125209000Y-91291000D01*
X125169000Y-93515000D02*
X125169000Y-91397000D01*
X125129000Y-93396000D02*
X125129000Y-91516000D01*
X125089000Y-93258000D02*
X125089000Y-91654000D01*
X125049000Y-93089000D02*
X125049000Y-91823000D01*
X125009000Y-92858000D02*
X125009000Y-92054000D01*
X131750241Y-94295000D02*
X131120241Y-94295000D01*
X131435241Y-94610000D02*
X131435241Y-93980000D01*
%TO.C,C3*%
X129428000Y-69815000D02*
X135668000Y-69815000D01*
X129428000Y-74457000D02*
X135668000Y-74457000D01*
X129428000Y-69815000D02*
X129428000Y-71211000D01*
X129428000Y-73061000D02*
X129428000Y-74457000D01*
X135668000Y-69815000D02*
X135668000Y-71211000D01*
X135668000Y-73061000D02*
X135668000Y-74457000D01*
%TO.C,C2*%
X129428000Y-64227000D02*
X135668000Y-64227000D01*
X129428000Y-68869000D02*
X135668000Y-68869000D01*
X129428000Y-64227000D02*
X129428000Y-65623000D01*
X129428000Y-67473000D02*
X129428000Y-68869000D01*
X135668000Y-64227000D02*
X135668000Y-65623000D01*
X135668000Y-67473000D02*
X135668000Y-68869000D01*
%TO.C,C1*%
X123900000Y-92456000D02*
G75*
G03*
X123900000Y-92456000I-3270000J0D01*
G01*
X120630000Y-89226000D02*
X120630000Y-95686000D01*
X120670000Y-89226000D02*
X120670000Y-95686000D01*
X120710000Y-89226000D02*
X120710000Y-95686000D01*
X120750000Y-89228000D02*
X120750000Y-95684000D01*
X120790000Y-89229000D02*
X120790000Y-95683000D01*
X120830000Y-89232000D02*
X120830000Y-95680000D01*
X120870000Y-89234000D02*
X120870000Y-91416000D01*
X120870000Y-93496000D02*
X120870000Y-95678000D01*
X120910000Y-89238000D02*
X120910000Y-91416000D01*
X120910000Y-93496000D02*
X120910000Y-95674000D01*
X120950000Y-89241000D02*
X120950000Y-91416000D01*
X120950000Y-93496000D02*
X120950000Y-95671000D01*
X120990000Y-89245000D02*
X120990000Y-91416000D01*
X120990000Y-93496000D02*
X120990000Y-95667000D01*
X121030000Y-89250000D02*
X121030000Y-91416000D01*
X121030000Y-93496000D02*
X121030000Y-95662000D01*
X121070000Y-89255000D02*
X121070000Y-91416000D01*
X121070000Y-93496000D02*
X121070000Y-95657000D01*
X121110000Y-89261000D02*
X121110000Y-91416000D01*
X121110000Y-93496000D02*
X121110000Y-95651000D01*
X121150000Y-89267000D02*
X121150000Y-91416000D01*
X121150000Y-93496000D02*
X121150000Y-95645000D01*
X121190000Y-89274000D02*
X121190000Y-91416000D01*
X121190000Y-93496000D02*
X121190000Y-95638000D01*
X121230000Y-89281000D02*
X121230000Y-91416000D01*
X121230000Y-93496000D02*
X121230000Y-95631000D01*
X121270000Y-89289000D02*
X121270000Y-91416000D01*
X121270000Y-93496000D02*
X121270000Y-95623000D01*
X121310000Y-89297000D02*
X121310000Y-91416000D01*
X121310000Y-93496000D02*
X121310000Y-95615000D01*
X121351000Y-89306000D02*
X121351000Y-91416000D01*
X121351000Y-93496000D02*
X121351000Y-95606000D01*
X121391000Y-89315000D02*
X121391000Y-91416000D01*
X121391000Y-93496000D02*
X121391000Y-95597000D01*
X121431000Y-89325000D02*
X121431000Y-91416000D01*
X121431000Y-93496000D02*
X121431000Y-95587000D01*
X121471000Y-89335000D02*
X121471000Y-91416000D01*
X121471000Y-93496000D02*
X121471000Y-95577000D01*
X121511000Y-89346000D02*
X121511000Y-91416000D01*
X121511000Y-93496000D02*
X121511000Y-95566000D01*
X121551000Y-89358000D02*
X121551000Y-91416000D01*
X121551000Y-93496000D02*
X121551000Y-95554000D01*
X121591000Y-89370000D02*
X121591000Y-91416000D01*
X121591000Y-93496000D02*
X121591000Y-95542000D01*
X121631000Y-89382000D02*
X121631000Y-91416000D01*
X121631000Y-93496000D02*
X121631000Y-95530000D01*
X121671000Y-89395000D02*
X121671000Y-91416000D01*
X121671000Y-93496000D02*
X121671000Y-95517000D01*
X121711000Y-89409000D02*
X121711000Y-91416000D01*
X121711000Y-93496000D02*
X121711000Y-95503000D01*
X121751000Y-89423000D02*
X121751000Y-91416000D01*
X121751000Y-93496000D02*
X121751000Y-95489000D01*
X121791000Y-89438000D02*
X121791000Y-91416000D01*
X121791000Y-93496000D02*
X121791000Y-95474000D01*
X121831000Y-89454000D02*
X121831000Y-91416000D01*
X121831000Y-93496000D02*
X121831000Y-95458000D01*
X121871000Y-89470000D02*
X121871000Y-91416000D01*
X121871000Y-93496000D02*
X121871000Y-95442000D01*
X121911000Y-89486000D02*
X121911000Y-91416000D01*
X121911000Y-93496000D02*
X121911000Y-95426000D01*
X121951000Y-89504000D02*
X121951000Y-91416000D01*
X121951000Y-93496000D02*
X121951000Y-95408000D01*
X121991000Y-89522000D02*
X121991000Y-91416000D01*
X121991000Y-93496000D02*
X121991000Y-95390000D01*
X122031000Y-89540000D02*
X122031000Y-91416000D01*
X122031000Y-93496000D02*
X122031000Y-95372000D01*
X122071000Y-89560000D02*
X122071000Y-91416000D01*
X122071000Y-93496000D02*
X122071000Y-95352000D01*
X122111000Y-89580000D02*
X122111000Y-91416000D01*
X122111000Y-93496000D02*
X122111000Y-95332000D01*
X122151000Y-89600000D02*
X122151000Y-91416000D01*
X122151000Y-93496000D02*
X122151000Y-95312000D01*
X122191000Y-89622000D02*
X122191000Y-91416000D01*
X122191000Y-93496000D02*
X122191000Y-95290000D01*
X122231000Y-89644000D02*
X122231000Y-91416000D01*
X122231000Y-93496000D02*
X122231000Y-95268000D01*
X122271000Y-89666000D02*
X122271000Y-91416000D01*
X122271000Y-93496000D02*
X122271000Y-95246000D01*
X122311000Y-89690000D02*
X122311000Y-91416000D01*
X122311000Y-93496000D02*
X122311000Y-95222000D01*
X122351000Y-89714000D02*
X122351000Y-91416000D01*
X122351000Y-93496000D02*
X122351000Y-95198000D01*
X122391000Y-89740000D02*
X122391000Y-91416000D01*
X122391000Y-93496000D02*
X122391000Y-95172000D01*
X122431000Y-89766000D02*
X122431000Y-91416000D01*
X122431000Y-93496000D02*
X122431000Y-95146000D01*
X122471000Y-89792000D02*
X122471000Y-91416000D01*
X122471000Y-93496000D02*
X122471000Y-95120000D01*
X122511000Y-89820000D02*
X122511000Y-91416000D01*
X122511000Y-93496000D02*
X122511000Y-95092000D01*
X122551000Y-89849000D02*
X122551000Y-91416000D01*
X122551000Y-93496000D02*
X122551000Y-95063000D01*
X122591000Y-89878000D02*
X122591000Y-91416000D01*
X122591000Y-93496000D02*
X122591000Y-95034000D01*
X122631000Y-89908000D02*
X122631000Y-91416000D01*
X122631000Y-93496000D02*
X122631000Y-95004000D01*
X122671000Y-89940000D02*
X122671000Y-91416000D01*
X122671000Y-93496000D02*
X122671000Y-94972000D01*
X122711000Y-89972000D02*
X122711000Y-91416000D01*
X122711000Y-93496000D02*
X122711000Y-94940000D01*
X122751000Y-90006000D02*
X122751000Y-91416000D01*
X122751000Y-93496000D02*
X122751000Y-94906000D01*
X122791000Y-90040000D02*
X122791000Y-91416000D01*
X122791000Y-93496000D02*
X122791000Y-94872000D01*
X122831000Y-90076000D02*
X122831000Y-91416000D01*
X122831000Y-93496000D02*
X122831000Y-94836000D01*
X122871000Y-90113000D02*
X122871000Y-91416000D01*
X122871000Y-93496000D02*
X122871000Y-94799000D01*
X122911000Y-90151000D02*
X122911000Y-91416000D01*
X122911000Y-93496000D02*
X122911000Y-94761000D01*
X122951000Y-90191000D02*
X122951000Y-94721000D01*
X122991000Y-90232000D02*
X122991000Y-94680000D01*
X123031000Y-90274000D02*
X123031000Y-94638000D01*
X123071000Y-90319000D02*
X123071000Y-94593000D01*
X123111000Y-90364000D02*
X123111000Y-94548000D01*
X123151000Y-90412000D02*
X123151000Y-94500000D01*
X123191000Y-90461000D02*
X123191000Y-94451000D01*
X123231000Y-90512000D02*
X123231000Y-94400000D01*
X123271000Y-90566000D02*
X123271000Y-94346000D01*
X123311000Y-90622000D02*
X123311000Y-94290000D01*
X123351000Y-90680000D02*
X123351000Y-94232000D01*
X123391000Y-90742000D02*
X123391000Y-94170000D01*
X123431000Y-90806000D02*
X123431000Y-94106000D01*
X123471000Y-90875000D02*
X123471000Y-94037000D01*
X123511000Y-90947000D02*
X123511000Y-93965000D01*
X123551000Y-91024000D02*
X123551000Y-93888000D01*
X123591000Y-91106000D02*
X123591000Y-93806000D01*
X123631000Y-91194000D02*
X123631000Y-93718000D01*
X123671000Y-91291000D02*
X123671000Y-93621000D01*
X123711000Y-91397000D02*
X123711000Y-93515000D01*
X123751000Y-91516000D02*
X123751000Y-93396000D01*
X123791000Y-91654000D02*
X123791000Y-93258000D01*
X123831000Y-91823000D02*
X123831000Y-93089000D01*
X123871000Y-92054000D02*
X123871000Y-92858000D01*
X117129759Y-90617000D02*
X117759759Y-90617000D01*
X117444759Y-90302000D02*
X117444759Y-90932000D01*
%TO.C,U1*%
D11*
X134072380Y-82041904D02*
X134881904Y-82041904D01*
X134977142Y-81994285D01*
X135024761Y-81946666D01*
X135072380Y-81851428D01*
X135072380Y-81660952D01*
X135024761Y-81565714D01*
X134977142Y-81518095D01*
X134881904Y-81470476D01*
X134072380Y-81470476D01*
X135072380Y-80470476D02*
X135072380Y-81041904D01*
X135072380Y-80756190D02*
X134072380Y-80756190D01*
X134215238Y-80851428D01*
X134310476Y-80946666D01*
X134358095Y-81041904D01*
X130500380Y-82367238D02*
X130500380Y-82843428D01*
X129500380Y-82843428D01*
X129500380Y-82129142D02*
X129500380Y-81462476D01*
X130500380Y-81891047D01*
X129928952Y-80938666D02*
X129881333Y-81033904D01*
X129833714Y-81081523D01*
X129738476Y-81129142D01*
X129690857Y-81129142D01*
X129595619Y-81081523D01*
X129548000Y-81033904D01*
X129500380Y-80938666D01*
X129500380Y-80748190D01*
X129548000Y-80652952D01*
X129595619Y-80605333D01*
X129690857Y-80557714D01*
X129738476Y-80557714D01*
X129833714Y-80605333D01*
X129881333Y-80652952D01*
X129928952Y-80748190D01*
X129928952Y-80938666D01*
X129976571Y-81033904D01*
X130024190Y-81081523D01*
X130119428Y-81129142D01*
X130309904Y-81129142D01*
X130405142Y-81081523D01*
X130452761Y-81033904D01*
X130500380Y-80938666D01*
X130500380Y-80748190D01*
X130452761Y-80652952D01*
X130405142Y-80605333D01*
X130309904Y-80557714D01*
X130119428Y-80557714D01*
X130024190Y-80605333D01*
X129976571Y-80652952D01*
X129928952Y-80748190D01*
X129500380Y-79938666D02*
X129500380Y-79843428D01*
X129548000Y-79748190D01*
X129595619Y-79700571D01*
X129690857Y-79652952D01*
X129881333Y-79605333D01*
X130119428Y-79605333D01*
X130309904Y-79652952D01*
X130405142Y-79700571D01*
X130452761Y-79748190D01*
X130500380Y-79843428D01*
X130500380Y-79938666D01*
X130452761Y-80033904D01*
X130405142Y-80081523D01*
X130309904Y-80129142D01*
X130119428Y-80176761D01*
X129881333Y-80176761D01*
X129690857Y-80129142D01*
X129595619Y-80081523D01*
X129548000Y-80033904D01*
X129500380Y-79938666D01*
X129500380Y-78700571D02*
X129500380Y-79176761D01*
X129976571Y-79224380D01*
X129928952Y-79176761D01*
X129881333Y-79081523D01*
X129881333Y-78843428D01*
X129928952Y-78748190D01*
X129976571Y-78700571D01*
X130071809Y-78652952D01*
X130309904Y-78652952D01*
X130405142Y-78700571D01*
X130452761Y-78748190D01*
X130500380Y-78843428D01*
X130500380Y-79081523D01*
X130452761Y-79176761D01*
X130405142Y-79224380D01*
%TO.C,U2*%
X122682095Y-69556380D02*
X122682095Y-70365904D01*
X122729714Y-70461142D01*
X122777333Y-70508761D01*
X122872571Y-70556380D01*
X123063047Y-70556380D01*
X123158285Y-70508761D01*
X123205904Y-70461142D01*
X123253523Y-70365904D01*
X123253523Y-69556380D01*
X123682095Y-69651619D02*
X123729714Y-69604000D01*
X123824952Y-69556380D01*
X124063047Y-69556380D01*
X124158285Y-69604000D01*
X124205904Y-69651619D01*
X124253523Y-69746857D01*
X124253523Y-69842095D01*
X124205904Y-69984952D01*
X123634476Y-70556380D01*
X124253523Y-70556380D01*
X121324952Y-67524380D02*
X121896380Y-67524380D01*
X121610666Y-68524380D02*
X121610666Y-67524380D01*
X122705904Y-68524380D02*
X122229714Y-68524380D01*
X122229714Y-67524380D01*
X123229714Y-67524380D02*
X123324952Y-67524380D01*
X123420190Y-67572000D01*
X123467809Y-67619619D01*
X123515428Y-67714857D01*
X123563047Y-67905333D01*
X123563047Y-68143428D01*
X123515428Y-68333904D01*
X123467809Y-68429142D01*
X123420190Y-68476761D01*
X123324952Y-68524380D01*
X123229714Y-68524380D01*
X123134476Y-68476761D01*
X123086857Y-68429142D01*
X123039238Y-68333904D01*
X122991619Y-68143428D01*
X122991619Y-67905333D01*
X123039238Y-67714857D01*
X123086857Y-67619619D01*
X123134476Y-67572000D01*
X123229714Y-67524380D01*
X123896380Y-67524380D02*
X124563047Y-67524380D01*
X124134476Y-68524380D01*
X124896380Y-67619619D02*
X124944000Y-67572000D01*
X125039238Y-67524380D01*
X125277333Y-67524380D01*
X125372571Y-67572000D01*
X125420190Y-67619619D01*
X125467809Y-67714857D01*
X125467809Y-67810095D01*
X125420190Y-67952952D01*
X124848761Y-68524380D01*
X125467809Y-68524380D01*
%TO.C,R1*%
X123531333Y-59888380D02*
X123198000Y-59412190D01*
X122959904Y-59888380D02*
X122959904Y-58888380D01*
X123340857Y-58888380D01*
X123436095Y-58936000D01*
X123483714Y-58983619D01*
X123531333Y-59078857D01*
X123531333Y-59221714D01*
X123483714Y-59316952D01*
X123436095Y-59364571D01*
X123340857Y-59412190D01*
X122959904Y-59412190D01*
X124483714Y-59888380D02*
X123912285Y-59888380D01*
X124198000Y-59888380D02*
X124198000Y-58888380D01*
X124102761Y-59031238D01*
X124007523Y-59126476D01*
X123912285Y-59174095D01*
X122721809Y-60920380D02*
X122245619Y-60920380D01*
X122198000Y-61396571D01*
X122245619Y-61348952D01*
X122340857Y-61301333D01*
X122578952Y-61301333D01*
X122674190Y-61348952D01*
X122721809Y-61396571D01*
X122769428Y-61491809D01*
X122769428Y-61729904D01*
X122721809Y-61825142D01*
X122674190Y-61872761D01*
X122578952Y-61920380D01*
X122340857Y-61920380D01*
X122245619Y-61872761D01*
X122198000Y-61825142D01*
X123198000Y-61825142D02*
X123245619Y-61872761D01*
X123198000Y-61920380D01*
X123150380Y-61872761D01*
X123198000Y-61825142D01*
X123198000Y-61920380D01*
X124102761Y-60920380D02*
X123912285Y-60920380D01*
X123817047Y-60968000D01*
X123769428Y-61015619D01*
X123674190Y-61158476D01*
X123626571Y-61348952D01*
X123626571Y-61729904D01*
X123674190Y-61825142D01*
X123721809Y-61872761D01*
X123817047Y-61920380D01*
X124007523Y-61920380D01*
X124102761Y-61872761D01*
X124150380Y-61825142D01*
X124198000Y-61729904D01*
X124198000Y-61491809D01*
X124150380Y-61396571D01*
X124102761Y-61348952D01*
X124007523Y-61301333D01*
X123817047Y-61301333D01*
X123721809Y-61348952D01*
X123674190Y-61396571D01*
X123626571Y-61491809D01*
X124626571Y-61920380D02*
X124626571Y-60920380D01*
X125198000Y-61920380D02*
X124769428Y-61348952D01*
X125198000Y-60920380D02*
X124626571Y-61491809D01*
%TO.C,J5*%
X123912380Y-81613333D02*
X124626666Y-81613333D01*
X124769523Y-81660952D01*
X124864761Y-81756190D01*
X124912380Y-81899047D01*
X124912380Y-81994285D01*
X123912380Y-80660952D02*
X123912380Y-81137142D01*
X124388571Y-81184761D01*
X124340952Y-81137142D01*
X124293333Y-81041904D01*
X124293333Y-80803809D01*
X124340952Y-80708571D01*
X124388571Y-80660952D01*
X124483809Y-80613333D01*
X124721904Y-80613333D01*
X124817142Y-80660952D01*
X124864761Y-80708571D01*
X124912380Y-80803809D01*
X124912380Y-81041904D01*
X124864761Y-81137142D01*
X124817142Y-81184761D01*
X122789904Y-85356190D02*
X121989904Y-85356190D01*
X121989904Y-85165714D01*
X122028000Y-85051428D01*
X122104190Y-84975238D01*
X122180380Y-84937142D01*
X122332761Y-84899047D01*
X122447047Y-84899047D01*
X122599428Y-84937142D01*
X122675619Y-84975238D01*
X122751809Y-85051428D01*
X122789904Y-85165714D01*
X122789904Y-85356190D01*
X122789904Y-84099047D02*
X122408952Y-84365714D01*
X122789904Y-84556190D02*
X121989904Y-84556190D01*
X121989904Y-84251428D01*
X122028000Y-84175238D01*
X122066095Y-84137142D01*
X122142285Y-84099047D01*
X122256571Y-84099047D01*
X122332761Y-84137142D01*
X122370857Y-84175238D01*
X122408952Y-84251428D01*
X122408952Y-84556190D01*
X121989904Y-83756190D02*
X122637523Y-83756190D01*
X122713714Y-83718095D01*
X122751809Y-83680000D01*
X122789904Y-83603809D01*
X122789904Y-83451428D01*
X122751809Y-83375238D01*
X122713714Y-83337142D01*
X122637523Y-83299047D01*
X121989904Y-83299047D01*
X122789904Y-82918095D02*
X121989904Y-82918095D01*
X122789904Y-82537142D02*
X121989904Y-82537142D01*
X121989904Y-82346666D01*
X122028000Y-82232380D01*
X122104190Y-82156190D01*
X122180380Y-82118095D01*
X122332761Y-82080000D01*
X122447047Y-82080000D01*
X122599428Y-82118095D01*
X122675619Y-82156190D01*
X122751809Y-82232380D01*
X122789904Y-82346666D01*
X122789904Y-82537142D01*
X122789904Y-81127619D02*
X121989904Y-81127619D01*
X122789904Y-80670476D01*
X121989904Y-80670476D01*
X121989904Y-80137142D02*
X121989904Y-79984761D01*
X122028000Y-79908571D01*
X122104190Y-79832380D01*
X122256571Y-79794285D01*
X122523238Y-79794285D01*
X122675619Y-79832380D01*
X122751809Y-79908571D01*
X122789904Y-79984761D01*
X122789904Y-80137142D01*
X122751809Y-80213333D01*
X122675619Y-80289523D01*
X122523238Y-80327619D01*
X122256571Y-80327619D01*
X122104190Y-80289523D01*
X122028000Y-80213333D01*
X121989904Y-80137142D01*
X122789904Y-79451428D02*
X121989904Y-79451428D01*
X122751809Y-79108571D02*
X122789904Y-78994285D01*
X122789904Y-78803809D01*
X122751809Y-78727619D01*
X122713714Y-78689523D01*
X122637523Y-78651428D01*
X122561333Y-78651428D01*
X122485142Y-78689523D01*
X122447047Y-78727619D01*
X122408952Y-78803809D01*
X122370857Y-78956190D01*
X122332761Y-79032380D01*
X122294666Y-79070476D01*
X122218476Y-79108571D01*
X122142285Y-79108571D01*
X122066095Y-79070476D01*
X122028000Y-79032380D01*
X121989904Y-78956190D01*
X121989904Y-78765714D01*
X122028000Y-78651428D01*
X122370857Y-78308571D02*
X122370857Y-78041904D01*
X122789904Y-77927619D02*
X122789904Y-78308571D01*
X121989904Y-78308571D01*
X121989904Y-77927619D01*
X122066095Y-77622857D02*
X122028000Y-77584761D01*
X121989904Y-77508571D01*
X121989904Y-77318095D01*
X122028000Y-77241904D01*
X122066095Y-77203809D01*
X122142285Y-77165714D01*
X122218476Y-77165714D01*
X122332761Y-77203809D01*
X122789904Y-77660952D01*
X122789904Y-77165714D01*
%TO.C,J4*%
X122936190Y-55316380D02*
X122936190Y-54316380D01*
X123317142Y-54316380D01*
X123412380Y-54364000D01*
X123460000Y-54411619D01*
X123507619Y-54506857D01*
X123507619Y-54649714D01*
X123460000Y-54744952D01*
X123412380Y-54792571D01*
X123317142Y-54840190D01*
X122936190Y-54840190D01*
X123936190Y-55316380D02*
X123936190Y-54316380D01*
X124412380Y-55316380D02*
X124412380Y-54316380D01*
X124983809Y-55316380D01*
X124983809Y-54316380D01*
X125460000Y-55316380D02*
X125460000Y-54316380D01*
X126031428Y-55316380D02*
X125602857Y-54744952D01*
X126031428Y-54316380D02*
X125460000Y-54887809D01*
%TO.C,J3*%
X128024190Y-54316380D02*
X128262285Y-55316380D01*
X128452761Y-54602095D01*
X128643238Y-55316380D01*
X128881333Y-54316380D01*
X129262285Y-55316380D02*
X129262285Y-54316380D01*
X129262285Y-54792571D02*
X129833714Y-54792571D01*
X129833714Y-55316380D02*
X129833714Y-54316380D01*
X130309904Y-55316380D02*
X130309904Y-54316380D01*
X130643238Y-54316380D02*
X131214666Y-54316380D01*
X130928952Y-55316380D02*
X130928952Y-54316380D01*
X131548000Y-54792571D02*
X131881333Y-54792571D01*
X132024190Y-55316380D02*
X131548000Y-55316380D01*
X131548000Y-54316380D01*
X132024190Y-54316380D01*
%TO.C,J1*%
X118260761Y-102433142D02*
X118308380Y-102290285D01*
X118308380Y-102052190D01*
X118260761Y-101956952D01*
X118213142Y-101909333D01*
X118117904Y-101861714D01*
X118022666Y-101861714D01*
X117927428Y-101909333D01*
X117879809Y-101956952D01*
X117832190Y-102052190D01*
X117784571Y-102242666D01*
X117736952Y-102337904D01*
X117689333Y-102385523D01*
X117594095Y-102433142D01*
X117498857Y-102433142D01*
X117403619Y-102385523D01*
X117356000Y-102337904D01*
X117308380Y-102242666D01*
X117308380Y-102004571D01*
X117356000Y-101861714D01*
X117308380Y-101576000D02*
X117308380Y-101004571D01*
X118308380Y-101290285D02*
X117308380Y-101290285D01*
X118308380Y-100099809D02*
X117832190Y-100433142D01*
X118308380Y-100671238D02*
X117308380Y-100671238D01*
X117308380Y-100290285D01*
X117356000Y-100195047D01*
X117403619Y-100147428D01*
X117498857Y-100099809D01*
X117641714Y-100099809D01*
X117736952Y-100147428D01*
X117784571Y-100195047D01*
X117832190Y-100290285D01*
X117832190Y-100671238D01*
X118308380Y-99671238D02*
X117308380Y-99671238D01*
X118308380Y-99195047D02*
X117308380Y-99195047D01*
X117308380Y-98814095D01*
X117356000Y-98718857D01*
X117403619Y-98671238D01*
X117498857Y-98623619D01*
X117641714Y-98623619D01*
X117736952Y-98671238D01*
X117784571Y-98718857D01*
X117832190Y-98814095D01*
X117832190Y-99195047D01*
X117784571Y-98195047D02*
X117784571Y-97861714D01*
X118308380Y-97718857D02*
X118308380Y-98195047D01*
X117308380Y-98195047D01*
X117308380Y-97718857D01*
%TO.C,C6*%
X132421333Y-62841142D02*
X132373714Y-62888761D01*
X132230857Y-62936380D01*
X132135619Y-62936380D01*
X131992761Y-62888761D01*
X131897523Y-62793523D01*
X131849904Y-62698285D01*
X131802285Y-62507809D01*
X131802285Y-62364952D01*
X131849904Y-62174476D01*
X131897523Y-62079238D01*
X131992761Y-61984000D01*
X132135619Y-61936380D01*
X132230857Y-61936380D01*
X132373714Y-61984000D01*
X132421333Y-62031619D01*
X133278476Y-61936380D02*
X133088000Y-61936380D01*
X132992761Y-61984000D01*
X132945142Y-62031619D01*
X132849904Y-62174476D01*
X132802285Y-62364952D01*
X132802285Y-62745904D01*
X132849904Y-62841142D01*
X132897523Y-62888761D01*
X132992761Y-62936380D01*
X133183238Y-62936380D01*
X133278476Y-62888761D01*
X133326095Y-62841142D01*
X133373714Y-62745904D01*
X133373714Y-62507809D01*
X133326095Y-62412571D01*
X133278476Y-62364952D01*
X133183238Y-62317333D01*
X132992761Y-62317333D01*
X132897523Y-62364952D01*
X132849904Y-62412571D01*
X132802285Y-62507809D01*
X131992761Y-60396380D02*
X131421333Y-60396380D01*
X131707047Y-60396380D02*
X131707047Y-59396380D01*
X131611809Y-59539238D01*
X131516571Y-59634476D01*
X131421333Y-59682095D01*
X132421333Y-59729714D02*
X132421333Y-60396380D01*
X132421333Y-59824952D02*
X132468952Y-59777333D01*
X132564190Y-59729714D01*
X132707047Y-59729714D01*
X132802285Y-59777333D01*
X132849904Y-59872571D01*
X132849904Y-60396380D01*
X133659428Y-59872571D02*
X133326095Y-59872571D01*
X133326095Y-60396380D02*
X133326095Y-59396380D01*
X133802285Y-59396380D01*
%TO.C,C4*%
X129373333Y-94591142D02*
X129325714Y-94638761D01*
X129182857Y-94686380D01*
X129087619Y-94686380D01*
X128944761Y-94638761D01*
X128849523Y-94543523D01*
X128801904Y-94448285D01*
X128754285Y-94257809D01*
X128754285Y-94114952D01*
X128801904Y-93924476D01*
X128849523Y-93829238D01*
X128944761Y-93734000D01*
X129087619Y-93686380D01*
X129182857Y-93686380D01*
X129325714Y-93734000D01*
X129373333Y-93781619D01*
X130230476Y-94019714D02*
X130230476Y-94686380D01*
X129992380Y-93638761D02*
X129754285Y-94353047D01*
X130373333Y-94353047D01*
X127392857Y-88753904D02*
X126935714Y-88753904D01*
X127164285Y-88753904D02*
X127164285Y-87953904D01*
X127088095Y-88068190D01*
X127011904Y-88144380D01*
X126935714Y-88182476D01*
X127888095Y-87953904D02*
X127964285Y-87953904D01*
X128040476Y-87992000D01*
X128078571Y-88030095D01*
X128116666Y-88106285D01*
X128154761Y-88258666D01*
X128154761Y-88449142D01*
X128116666Y-88601523D01*
X128078571Y-88677714D01*
X128040476Y-88715809D01*
X127964285Y-88753904D01*
X127888095Y-88753904D01*
X127811904Y-88715809D01*
X127773809Y-88677714D01*
X127735714Y-88601523D01*
X127697619Y-88449142D01*
X127697619Y-88258666D01*
X127735714Y-88106285D01*
X127773809Y-88030095D01*
X127811904Y-87992000D01*
X127888095Y-87953904D01*
X128840476Y-88220571D02*
X128840476Y-88753904D01*
X128497619Y-88220571D02*
X128497619Y-88639619D01*
X128535714Y-88715809D01*
X128611904Y-88753904D01*
X128726190Y-88753904D01*
X128802380Y-88715809D01*
X128840476Y-88677714D01*
X129488095Y-88334857D02*
X129221428Y-88334857D01*
X129221428Y-88753904D02*
X129221428Y-87953904D01*
X129602380Y-87953904D01*
%TO.C,C3*%
X132421333Y-74017142D02*
X132373714Y-74064761D01*
X132230857Y-74112380D01*
X132135619Y-74112380D01*
X131992761Y-74064761D01*
X131897523Y-73969523D01*
X131849904Y-73874285D01*
X131802285Y-73683809D01*
X131802285Y-73540952D01*
X131849904Y-73350476D01*
X131897523Y-73255238D01*
X131992761Y-73160000D01*
X132135619Y-73112380D01*
X132230857Y-73112380D01*
X132373714Y-73160000D01*
X132421333Y-73207619D01*
X132754666Y-73112380D02*
X133373714Y-73112380D01*
X133040380Y-73493333D01*
X133183238Y-73493333D01*
X133278476Y-73540952D01*
X133326095Y-73588571D01*
X133373714Y-73683809D01*
X133373714Y-73921904D01*
X133326095Y-74017142D01*
X133278476Y-74064761D01*
X133183238Y-74112380D01*
X132897523Y-74112380D01*
X132802285Y-74064761D01*
X132754666Y-74017142D01*
X131040380Y-71064380D02*
X130468952Y-71064380D01*
X130754666Y-71064380D02*
X130754666Y-70064380D01*
X130659428Y-70207238D01*
X130564190Y-70302476D01*
X130468952Y-70350095D01*
X131659428Y-70064380D02*
X131754666Y-70064380D01*
X131849904Y-70112000D01*
X131897523Y-70159619D01*
X131945142Y-70254857D01*
X131992761Y-70445333D01*
X131992761Y-70683428D01*
X131945142Y-70873904D01*
X131897523Y-70969142D01*
X131849904Y-71016761D01*
X131754666Y-71064380D01*
X131659428Y-71064380D01*
X131564190Y-71016761D01*
X131516571Y-70969142D01*
X131468952Y-70873904D01*
X131421333Y-70683428D01*
X131421333Y-70445333D01*
X131468952Y-70254857D01*
X131516571Y-70159619D01*
X131564190Y-70112000D01*
X131659428Y-70064380D01*
X132611809Y-70064380D02*
X132707047Y-70064380D01*
X132802285Y-70112000D01*
X132849904Y-70159619D01*
X132897523Y-70254857D01*
X132945142Y-70445333D01*
X132945142Y-70683428D01*
X132897523Y-70873904D01*
X132849904Y-70969142D01*
X132802285Y-71016761D01*
X132707047Y-71064380D01*
X132611809Y-71064380D01*
X132516571Y-71016761D01*
X132468952Y-70969142D01*
X132421333Y-70873904D01*
X132373714Y-70683428D01*
X132373714Y-70445333D01*
X132421333Y-70254857D01*
X132468952Y-70159619D01*
X132516571Y-70112000D01*
X132611809Y-70064380D01*
X133373714Y-70397714D02*
X133373714Y-71064380D01*
X133373714Y-70492952D02*
X133421333Y-70445333D01*
X133516571Y-70397714D01*
X133659428Y-70397714D01*
X133754666Y-70445333D01*
X133802285Y-70540571D01*
X133802285Y-71064380D01*
X134611809Y-70540571D02*
X134278476Y-70540571D01*
X134278476Y-71064380D02*
X134278476Y-70064380D01*
X134754666Y-70064380D01*
%TO.C,C2*%
X132421333Y-68429142D02*
X132373714Y-68476761D01*
X132230857Y-68524380D01*
X132135619Y-68524380D01*
X131992761Y-68476761D01*
X131897523Y-68381523D01*
X131849904Y-68286285D01*
X131802285Y-68095809D01*
X131802285Y-67952952D01*
X131849904Y-67762476D01*
X131897523Y-67667238D01*
X131992761Y-67572000D01*
X132135619Y-67524380D01*
X132230857Y-67524380D01*
X132373714Y-67572000D01*
X132421333Y-67619619D01*
X132802285Y-67619619D02*
X132849904Y-67572000D01*
X132945142Y-67524380D01*
X133183238Y-67524380D01*
X133278476Y-67572000D01*
X133326095Y-67619619D01*
X133373714Y-67714857D01*
X133373714Y-67810095D01*
X133326095Y-67952952D01*
X132754666Y-68524380D01*
X133373714Y-68524380D01*
X131000380Y-65476380D02*
X130428952Y-65476380D01*
X130714666Y-65476380D02*
X130714666Y-64476380D01*
X130619428Y-64619238D01*
X130524190Y-64714476D01*
X130428952Y-64762095D01*
X131619428Y-64476380D02*
X131714666Y-64476380D01*
X131809904Y-64524000D01*
X131857523Y-64571619D01*
X131905142Y-64666857D01*
X131952761Y-64857333D01*
X131952761Y-65095428D01*
X131905142Y-65285904D01*
X131857523Y-65381142D01*
X131809904Y-65428761D01*
X131714666Y-65476380D01*
X131619428Y-65476380D01*
X131524190Y-65428761D01*
X131476571Y-65381142D01*
X131428952Y-65285904D01*
X131381333Y-65095428D01*
X131381333Y-64857333D01*
X131428952Y-64666857D01*
X131476571Y-64571619D01*
X131524190Y-64524000D01*
X131619428Y-64476380D01*
X132571809Y-64476380D02*
X132667047Y-64476380D01*
X132762285Y-64524000D01*
X132809904Y-64571619D01*
X132857523Y-64666857D01*
X132905142Y-64857333D01*
X132905142Y-65095428D01*
X132857523Y-65285904D01*
X132809904Y-65381142D01*
X132762285Y-65428761D01*
X132667047Y-65476380D01*
X132571809Y-65476380D01*
X132476571Y-65428761D01*
X132428952Y-65381142D01*
X132381333Y-65285904D01*
X132333714Y-65095428D01*
X132333714Y-64857333D01*
X132381333Y-64666857D01*
X132428952Y-64571619D01*
X132476571Y-64524000D01*
X132571809Y-64476380D01*
X133333714Y-64809714D02*
X133333714Y-65476380D01*
X133333714Y-64904952D02*
X133381333Y-64857333D01*
X133476571Y-64809714D01*
X133619428Y-64809714D01*
X133714666Y-64857333D01*
X133762285Y-64952571D01*
X133762285Y-65476380D01*
X134571809Y-64952571D02*
X134238476Y-64952571D01*
X134238476Y-65476380D02*
X134238476Y-64476380D01*
X134714666Y-64476380D01*
%TO.C,C1*%
X119173333Y-94591142D02*
X119125714Y-94638761D01*
X118982857Y-94686380D01*
X118887619Y-94686380D01*
X118744761Y-94638761D01*
X118649523Y-94543523D01*
X118601904Y-94448285D01*
X118554285Y-94257809D01*
X118554285Y-94114952D01*
X118601904Y-93924476D01*
X118649523Y-93829238D01*
X118744761Y-93734000D01*
X118887619Y-93686380D01*
X118982857Y-93686380D01*
X119125714Y-93734000D01*
X119173333Y-93781619D01*
X120125714Y-94686380D02*
X119554285Y-94686380D01*
X119840000Y-94686380D02*
X119840000Y-93686380D01*
X119744761Y-93829238D01*
X119649523Y-93924476D01*
X119554285Y-93972095D01*
X120006857Y-89007904D02*
X119549714Y-89007904D01*
X119778285Y-89007904D02*
X119778285Y-88207904D01*
X119702095Y-88322190D01*
X119625904Y-88398380D01*
X119549714Y-88436476D01*
X120502095Y-88207904D02*
X120578285Y-88207904D01*
X120654476Y-88246000D01*
X120692571Y-88284095D01*
X120730666Y-88360285D01*
X120768761Y-88512666D01*
X120768761Y-88703142D01*
X120730666Y-88855523D01*
X120692571Y-88931714D01*
X120654476Y-88969809D01*
X120578285Y-89007904D01*
X120502095Y-89007904D01*
X120425904Y-88969809D01*
X120387809Y-88931714D01*
X120349714Y-88855523D01*
X120311619Y-88703142D01*
X120311619Y-88512666D01*
X120349714Y-88360285D01*
X120387809Y-88284095D01*
X120425904Y-88246000D01*
X120502095Y-88207904D01*
X121454476Y-88474571D02*
X121454476Y-89007904D01*
X121111619Y-88474571D02*
X121111619Y-88893619D01*
X121149714Y-88969809D01*
X121225904Y-89007904D01*
X121340190Y-89007904D01*
X121416380Y-88969809D01*
X121454476Y-88931714D01*
X122102095Y-88588857D02*
X121835428Y-88588857D01*
X121835428Y-89007904D02*
X121835428Y-88207904D01*
X122216380Y-88207904D01*
%TD*%
M02*
