M48
; DRILL file {KiCad (5.1.9)-1} date 06/25/21 13:34:02
; FORMAT={-:-/ absolute / inch / decimal}
; #@! TF.CreationDate,2021-06-25T13:34:02+01:00
; #@! TF.GenerationSoftware,Kicad,Pcbnew,(5.1.9)-1
FMAT,2
INCH
T1C0.0157
T2C0.0315
T3C0.0394
T4C0.0433
T5C0.1260
%
G90
G05
T1
X4.76Y-2.48
X4.88Y-2.66
X4.92Y-2.7
X4.96Y-2.48
X4.96Y-2.66
X5.14Y-3.44
T2
X4.7Y-3.64
X4.72Y-2.42
X4.72Y-2.58
X4.72Y-2.88
X4.72Y-3.04
X4.72Y-3.14
X4.72Y-3.24
X4.72Y-3.34
X4.7984Y-3.64
X4.82Y-2.58
X4.82Y-2.88
X4.92Y-2.58
X4.92Y-2.88
X5.0Y-3.64
X5.02Y-2.42
X5.02Y-2.58
X5.02Y-2.88
X5.02Y-3.04
X5.02Y-3.14
X5.02Y-3.24
X5.02Y-3.34
X5.0984Y-3.64
X5.12Y-2.42
X5.12Y-2.62
X5.12Y-2.84
X5.3169Y-2.42
X5.3169Y-2.62
X5.3169Y-2.84
T3
X4.72Y-3.88
X4.72Y-3.98
X4.82Y-3.88
X4.82Y-3.98
X4.84Y-2.24
X4.92Y-3.88
X4.92Y-3.98
X4.94Y-2.24
X5.02Y-3.88
X5.02Y-3.98
X5.08Y-2.24
X5.12Y-3.88
X5.12Y-3.98
X5.18Y-2.24
X5.3Y-3.48
X5.3Y-3.58
X5.3Y-3.68
T4
X5.2Y-3.1
X5.2Y-3.2
X5.2Y-3.3
T5
X4.7Y-2.24
X5.28Y-3.94
T0
M30
