%TF.GenerationSoftware,KiCad,Pcbnew,(5.1.9)-1*%
%TF.CreationDate,2021-06-25T13:34:49+01:00*%
%TF.ProjectId,NoiseGen,4e6f6973-6547-4656-9e2e-6b696361645f,rev?*%
%TF.SameCoordinates,Original*%
%TF.FileFunction,Copper,L1,Top*%
%TF.FilePolarity,Positive*%
%FSLAX46Y46*%
G04 Gerber Fmt 4.6, Leading zero omitted, Abs format (unit mm)*
G04 Created by KiCad (PCBNEW (5.1.9)-1) date 2021-06-25 13:34:49*
%MOMM*%
%LPD*%
G01*
G04 APERTURE LIST*
%TA.AperFunction,ComponentPad*%
%ADD10C,4.000000*%
%TD*%
%TA.AperFunction,ComponentPad*%
%ADD11O,2.000000X1.905000*%
%TD*%
%TA.AperFunction,ComponentPad*%
%ADD12R,2.000000X1.905000*%
%TD*%
%TA.AperFunction,ComponentPad*%
%ADD13O,1.600000X2.400000*%
%TD*%
%TA.AperFunction,ComponentPad*%
%ADD14R,1.600000X2.400000*%
%TD*%
%TA.AperFunction,ComponentPad*%
%ADD15O,1.600000X1.600000*%
%TD*%
%TA.AperFunction,ComponentPad*%
%ADD16C,1.600000*%
%TD*%
%TA.AperFunction,ComponentPad*%
%ADD17O,2.400000X1.600000*%
%TD*%
%TA.AperFunction,ComponentPad*%
%ADD18R,2.400000X1.600000*%
%TD*%
%TA.AperFunction,ComponentPad*%
%ADD19O,1.700000X1.700000*%
%TD*%
%TA.AperFunction,ComponentPad*%
%ADD20R,1.700000X1.700000*%
%TD*%
%TA.AperFunction,ComponentPad*%
%ADD21R,1.600000X1.600000*%
%TD*%
%TA.AperFunction,ViaPad*%
%ADD22C,0.800000*%
%TD*%
%TA.AperFunction,Conductor*%
%ADD23C,0.500000*%
%TD*%
%TA.AperFunction,Conductor*%
%ADD24C,0.250000*%
%TD*%
%TA.AperFunction,Conductor*%
%ADD25C,0.254000*%
%TD*%
%TA.AperFunction,Conductor*%
%ADD26C,0.100000*%
%TD*%
G04 APERTURE END LIST*
D10*
%TO.P,H2,1*%
%TO.N,GND*%
X119380000Y-56896000D03*
%TD*%
%TO.P,H1,1*%
%TO.N,GND*%
X134112000Y-100076000D03*
%TD*%
D11*
%TO.P,U1,3*%
%TO.N,+5V*%
X132080000Y-83820000D03*
%TO.P,U1,2*%
%TO.N,GND*%
X132080000Y-81280000D03*
D12*
%TO.P,U1,1*%
%TO.N,+12V*%
X132080000Y-78740000D03*
%TD*%
D13*
%TO.P,U2,8*%
%TO.N,+12V*%
X127508000Y-73152000D03*
%TO.P,U2,4*%
%TO.N,-12V*%
X119888000Y-65532000D03*
%TO.P,U2,7*%
%TO.N,Net-(J3-Pad1)*%
X124968000Y-73152000D03*
%TO.P,U2,3*%
%TO.N,Net-(J5-Pad7)*%
X122428000Y-65532000D03*
%TO.P,U2,6*%
%TO.N,Net-(J3-Pad1)*%
X122428000Y-73152000D03*
%TO.P,U2,2*%
%TO.N,Net-(J4-Pad1)*%
X124968000Y-65532000D03*
%TO.P,U2,5*%
%TO.N,Net-(C6-Pad1)*%
X119888000Y-73152000D03*
D14*
%TO.P,U2,1*%
%TO.N,Net-(J4-Pad1)*%
X127508000Y-65532000D03*
%TD*%
D15*
%TO.P,R1,2*%
%TO.N,Net-(J5-Pad3)*%
X119888000Y-61468000D03*
D16*
%TO.P,R1,1*%
%TO.N,Net-(C6-Pad1)*%
X127508000Y-61468000D03*
%TD*%
D17*
%TO.P,J5,8*%
%TO.N,GND*%
X127508000Y-77216000D03*
%TO.P,J5,4*%
%TO.N,Net-(J5-Pad4)*%
X119888000Y-84836000D03*
%TO.P,J5,7*%
%TO.N,Net-(J5-Pad7)*%
X127508000Y-79756000D03*
%TO.P,J5,3*%
%TO.N,Net-(J5-Pad3)*%
X119888000Y-82296000D03*
%TO.P,J5,6*%
%TO.N,Net-(J5-Pad6)*%
X127508000Y-82296000D03*
%TO.P,J5,2*%
%TO.N,Net-(J5-Pad2)*%
X119888000Y-79756000D03*
%TO.P,J5,5*%
%TO.N,Net-(J5-Pad5)*%
X127508000Y-84836000D03*
D18*
%TO.P,J5,1*%
%TO.N,+5V*%
X119888000Y-77216000D03*
%TD*%
D19*
%TO.P,J4,2*%
%TO.N,GND*%
X125476000Y-56896000D03*
D20*
%TO.P,J4,1*%
%TO.N,Net-(J4-Pad1)*%
X122936000Y-56896000D03*
%TD*%
D19*
%TO.P,J3,2*%
%TO.N,GND*%
X131572000Y-56896000D03*
D20*
%TO.P,J3,1*%
%TO.N,Net-(J3-Pad1)*%
X129032000Y-56896000D03*
%TD*%
D19*
%TO.P,J2,3*%
%TO.N,-12V*%
X134620000Y-93472000D03*
%TO.P,J2,2*%
%TO.N,GND*%
X134620000Y-90932000D03*
D20*
%TO.P,J2,1*%
%TO.N,+12V*%
X134620000Y-88392000D03*
%TD*%
D19*
%TO.P,J1,10*%
%TO.N,+12V*%
X130048000Y-98552000D03*
%TO.P,J1,9*%
X130048000Y-101092000D03*
%TO.P,J1,8*%
%TO.N,GND*%
X127508000Y-98552000D03*
%TO.P,J1,7*%
X127508000Y-101092000D03*
%TO.P,J1,6*%
X124968000Y-98552000D03*
%TO.P,J1,5*%
X124968000Y-101092000D03*
%TO.P,J1,4*%
X122428000Y-98552000D03*
%TO.P,J1,3*%
X122428000Y-101092000D03*
%TO.P,J1,2*%
%TO.N,-12V*%
X119888000Y-98552000D03*
D20*
%TO.P,J1,1*%
X119888000Y-101092000D03*
%TD*%
D16*
%TO.P,C6,2*%
%TO.N,GND*%
X135048000Y-61468000D03*
%TO.P,C6,1*%
%TO.N,Net-(C6-Pad1)*%
X130048000Y-61468000D03*
%TD*%
%TO.P,C4,2*%
%TO.N,GND*%
X127000000Y-92456000D03*
D21*
%TO.P,C4,1*%
%TO.N,+5V*%
X129500000Y-92456000D03*
%TD*%
D16*
%TO.P,C3,2*%
%TO.N,GND*%
X135048000Y-72136000D03*
%TO.P,C3,1*%
%TO.N,-12V*%
X130048000Y-72136000D03*
%TD*%
%TO.P,C2,2*%
%TO.N,GND*%
X135048000Y-66548000D03*
%TO.P,C2,1*%
%TO.N,+12V*%
X130048000Y-66548000D03*
%TD*%
%TO.P,C1,2*%
%TO.N,GND*%
X121880000Y-92456000D03*
D21*
%TO.P,C1,1*%
%TO.N,+12V*%
X119380000Y-92456000D03*
%TD*%
D22*
%TO.N,+5V*%
X130556000Y-87376000D03*
%TO.N,Net-(C6-Pad1)*%
X123952000Y-67564000D03*
%TO.N,Net-(J3-Pad1)*%
X125984000Y-67564000D03*
X125984000Y-62992000D03*
%TO.N,Net-(J4-Pad1)*%
X124968000Y-68580000D03*
X120904000Y-62992000D03*
%TD*%
D23*
%TO.N,+12V*%
X130048000Y-101092000D02*
X130048000Y-98552000D01*
X118587999Y-93248001D02*
X119380000Y-92456000D01*
X118587999Y-102302001D02*
X118587999Y-93248001D01*
X118677999Y-102392001D02*
X118587999Y-102302001D01*
X128132001Y-102392001D02*
X118677999Y-102392001D01*
X130048000Y-100476002D02*
X128132001Y-102392001D01*
X130048000Y-101092000D02*
X130048000Y-99568000D01*
X130048000Y-99568000D02*
X130048000Y-100476002D01*
X130048000Y-98552000D02*
X130048000Y-99568000D01*
X119380000Y-91156000D02*
X122144000Y-88392000D01*
X122144000Y-88392000D02*
X134620000Y-88392000D01*
X119380000Y-92456000D02*
X119380000Y-91156000D01*
X134620000Y-81280000D02*
X132080000Y-78740000D01*
X134620000Y-88392000D02*
X134620000Y-81280000D01*
X132080000Y-77724000D02*
X127508000Y-73152000D01*
X132080000Y-78740000D02*
X132080000Y-77724000D01*
X127508000Y-69088000D02*
X127508000Y-73152000D01*
X130048000Y-66548000D02*
X127508000Y-69088000D01*
%TO.N,+5V*%
X132080000Y-85852000D02*
X130556000Y-87376000D01*
X132080000Y-83820000D02*
X132080000Y-85852000D01*
D24*
%TO.N,Net-(C6-Pad1)*%
X119888000Y-71628000D02*
X123952000Y-67564000D01*
X119888000Y-73152000D02*
X119888000Y-71628000D01*
X130048000Y-61468000D02*
X127508000Y-61468000D01*
D23*
%TO.N,-12V*%
X119888000Y-101092000D02*
X119888000Y-98552000D01*
X133770001Y-94321999D02*
X134620000Y-93472000D01*
X124118001Y-94321999D02*
X133770001Y-94321999D01*
X119888000Y-98552000D02*
X124118001Y-94321999D01*
X131298001Y-70885999D02*
X130048000Y-72136000D01*
X131298001Y-65947999D02*
X131298001Y-70885999D01*
X129232001Y-63881999D02*
X131298001Y-65947999D01*
X121538001Y-63881999D02*
X129232001Y-63881999D01*
X119888000Y-65532000D02*
X121538001Y-63881999D01*
X135920001Y-92171999D02*
X134620000Y-93472000D01*
X135920001Y-78008001D02*
X135920001Y-92171999D01*
X130048000Y-72136000D02*
X135920001Y-78008001D01*
D24*
%TO.N,Net-(J3-Pad1)*%
X122428000Y-73152000D02*
X124968000Y-73152000D01*
X125984000Y-59944000D02*
X129032000Y-56896000D01*
X125984000Y-62992000D02*
X125984000Y-59944000D01*
X124968000Y-73152000D02*
X125984000Y-72136000D01*
X125984000Y-72136000D02*
X125984000Y-67564000D01*
%TO.N,Net-(J4-Pad1)*%
X127508000Y-65532000D02*
X124968000Y-65532000D01*
X124968000Y-65532000D02*
X124968000Y-68580000D01*
X122936000Y-60960000D02*
X122936000Y-56896000D01*
X120904000Y-62992000D02*
X122936000Y-60960000D01*
%TO.N,Net-(J5-Pad7)*%
X118762990Y-69197010D02*
X122428000Y-65532000D01*
X118762990Y-74017994D02*
X118762990Y-69197010D01*
X123842999Y-76090999D02*
X120835995Y-76090999D01*
X127508000Y-79756000D02*
X123842999Y-76090999D01*
X120835995Y-76090999D02*
X118762990Y-74017994D01*
%TO.N,Net-(J5-Pad3)*%
X118312979Y-63043021D02*
X119888000Y-61468000D01*
X119888000Y-82296000D02*
X118312979Y-80720979D01*
X118312979Y-80720979D02*
X118312979Y-63043021D01*
%TD*%
D25*
%TO.N,GND*%
X136155000Y-60688439D02*
X136040702Y-60654903D01*
X135227605Y-61468000D01*
X136040702Y-62281097D01*
X136155000Y-62247561D01*
X136155000Y-65768439D01*
X136040702Y-65734903D01*
X135227605Y-66548000D01*
X136040702Y-67361097D01*
X136155000Y-67327561D01*
X136155000Y-71356439D01*
X136040702Y-71322903D01*
X135227605Y-72136000D01*
X136040702Y-72949097D01*
X136155000Y-72915561D01*
X136155000Y-76991422D01*
X132292280Y-73128702D01*
X134234903Y-73128702D01*
X134306486Y-73372671D01*
X134561996Y-73493571D01*
X134836184Y-73562300D01*
X135118512Y-73576217D01*
X135398130Y-73534787D01*
X135664292Y-73439603D01*
X135789514Y-73372671D01*
X135861097Y-73128702D01*
X135048000Y-72315605D01*
X134234903Y-73128702D01*
X132292280Y-73128702D01*
X131476017Y-72312439D01*
X131483000Y-72277335D01*
X131483000Y-72206512D01*
X133607783Y-72206512D01*
X133649213Y-72486130D01*
X133744397Y-72752292D01*
X133811329Y-72877514D01*
X134055298Y-72949097D01*
X134868395Y-72136000D01*
X134055298Y-71322903D01*
X133811329Y-71394486D01*
X133690429Y-71649996D01*
X133621700Y-71924184D01*
X133607783Y-72206512D01*
X131483000Y-72206512D01*
X131483000Y-71994665D01*
X131476017Y-71959561D01*
X131893050Y-71542529D01*
X131926818Y-71514816D01*
X131956200Y-71479015D01*
X132037411Y-71380059D01*
X132037412Y-71380058D01*
X132119590Y-71226312D01*
X132144772Y-71143298D01*
X134234903Y-71143298D01*
X135048000Y-71956395D01*
X135861097Y-71143298D01*
X135789514Y-70899329D01*
X135534004Y-70778429D01*
X135259816Y-70709700D01*
X134977488Y-70695783D01*
X134697870Y-70737213D01*
X134431708Y-70832397D01*
X134306486Y-70899329D01*
X134234903Y-71143298D01*
X132144772Y-71143298D01*
X132170196Y-71059489D01*
X132183001Y-70929476D01*
X132183001Y-70929466D01*
X132187282Y-70886000D01*
X132183001Y-70842534D01*
X132183001Y-67540702D01*
X134234903Y-67540702D01*
X134306486Y-67784671D01*
X134561996Y-67905571D01*
X134836184Y-67974300D01*
X135118512Y-67988217D01*
X135398130Y-67946787D01*
X135664292Y-67851603D01*
X135789514Y-67784671D01*
X135861097Y-67540702D01*
X135048000Y-66727605D01*
X134234903Y-67540702D01*
X132183001Y-67540702D01*
X132183001Y-66618512D01*
X133607783Y-66618512D01*
X133649213Y-66898130D01*
X133744397Y-67164292D01*
X133811329Y-67289514D01*
X134055298Y-67361097D01*
X134868395Y-66548000D01*
X134055298Y-65734903D01*
X133811329Y-65806486D01*
X133690429Y-66061996D01*
X133621700Y-66336184D01*
X133607783Y-66618512D01*
X132183001Y-66618512D01*
X132183001Y-65991464D01*
X132187282Y-65947998D01*
X132183001Y-65904532D01*
X132183001Y-65904522D01*
X132170196Y-65774509D01*
X132119590Y-65607686D01*
X132091589Y-65555298D01*
X134234903Y-65555298D01*
X135048000Y-66368395D01*
X135861097Y-65555298D01*
X135789514Y-65311329D01*
X135534004Y-65190429D01*
X135259816Y-65121700D01*
X134977488Y-65107783D01*
X134697870Y-65149213D01*
X134431708Y-65244397D01*
X134306486Y-65311329D01*
X134234903Y-65555298D01*
X132091589Y-65555298D01*
X132037412Y-65453940D01*
X131926818Y-65319182D01*
X131893051Y-65291470D01*
X129888535Y-63286955D01*
X129860818Y-63253182D01*
X129726060Y-63142588D01*
X129572314Y-63060410D01*
X129405491Y-63009804D01*
X129275478Y-62996999D01*
X129275470Y-62996999D01*
X129232001Y-62992718D01*
X129188532Y-62996999D01*
X127019000Y-62996999D01*
X127019000Y-62890061D01*
X127003527Y-62812273D01*
X127089426Y-62847853D01*
X127366665Y-62903000D01*
X127649335Y-62903000D01*
X127926574Y-62847853D01*
X128187727Y-62739680D01*
X128422759Y-62582637D01*
X128622637Y-62382759D01*
X128726043Y-62228000D01*
X128829957Y-62228000D01*
X128933363Y-62382759D01*
X129133241Y-62582637D01*
X129368273Y-62739680D01*
X129629426Y-62847853D01*
X129906665Y-62903000D01*
X130189335Y-62903000D01*
X130466574Y-62847853D01*
X130727727Y-62739680D01*
X130962759Y-62582637D01*
X131084694Y-62460702D01*
X134234903Y-62460702D01*
X134306486Y-62704671D01*
X134561996Y-62825571D01*
X134836184Y-62894300D01*
X135118512Y-62908217D01*
X135398130Y-62866787D01*
X135664292Y-62771603D01*
X135789514Y-62704671D01*
X135861097Y-62460702D01*
X135048000Y-61647605D01*
X134234903Y-62460702D01*
X131084694Y-62460702D01*
X131162637Y-62382759D01*
X131319680Y-62147727D01*
X131427853Y-61886574D01*
X131483000Y-61609335D01*
X131483000Y-61538512D01*
X133607783Y-61538512D01*
X133649213Y-61818130D01*
X133744397Y-62084292D01*
X133811329Y-62209514D01*
X134055298Y-62281097D01*
X134868395Y-61468000D01*
X134055298Y-60654903D01*
X133811329Y-60726486D01*
X133690429Y-60981996D01*
X133621700Y-61256184D01*
X133607783Y-61538512D01*
X131483000Y-61538512D01*
X131483000Y-61326665D01*
X131427853Y-61049426D01*
X131319680Y-60788273D01*
X131162637Y-60553241D01*
X131084694Y-60475298D01*
X134234903Y-60475298D01*
X135048000Y-61288395D01*
X135861097Y-60475298D01*
X135789514Y-60231329D01*
X135534004Y-60110429D01*
X135259816Y-60041700D01*
X134977488Y-60027783D01*
X134697870Y-60069213D01*
X134431708Y-60164397D01*
X134306486Y-60231329D01*
X134234903Y-60475298D01*
X131084694Y-60475298D01*
X130962759Y-60353363D01*
X130727727Y-60196320D01*
X130466574Y-60088147D01*
X130189335Y-60033000D01*
X129906665Y-60033000D01*
X129629426Y-60088147D01*
X129368273Y-60196320D01*
X129133241Y-60353363D01*
X128933363Y-60553241D01*
X128829957Y-60708000D01*
X128726043Y-60708000D01*
X128622637Y-60553241D01*
X128422759Y-60353363D01*
X128187727Y-60196320D01*
X127926574Y-60088147D01*
X127649335Y-60033000D01*
X127366665Y-60033000D01*
X127089426Y-60088147D01*
X126828273Y-60196320D01*
X126762600Y-60240201D01*
X128618730Y-58384072D01*
X129882000Y-58384072D01*
X130006482Y-58371812D01*
X130126180Y-58335502D01*
X130236494Y-58276537D01*
X130333185Y-58197185D01*
X130412537Y-58100494D01*
X130471502Y-57990180D01*
X130495966Y-57909534D01*
X130571731Y-57993588D01*
X130805080Y-58167641D01*
X131067901Y-58292825D01*
X131215110Y-58337476D01*
X131445000Y-58216155D01*
X131445000Y-57023000D01*
X131699000Y-57023000D01*
X131699000Y-58216155D01*
X131928890Y-58337476D01*
X132076099Y-58292825D01*
X132338920Y-58167641D01*
X132572269Y-57993588D01*
X132767178Y-57777355D01*
X132916157Y-57527252D01*
X133013481Y-57252891D01*
X132892814Y-57023000D01*
X131699000Y-57023000D01*
X131445000Y-57023000D01*
X131425000Y-57023000D01*
X131425000Y-56769000D01*
X131445000Y-56769000D01*
X131445000Y-55575845D01*
X131699000Y-55575845D01*
X131699000Y-56769000D01*
X132892814Y-56769000D01*
X133013481Y-56539109D01*
X132916157Y-56264748D01*
X132767178Y-56014645D01*
X132572269Y-55798412D01*
X132338920Y-55624359D01*
X132076099Y-55499175D01*
X131928890Y-55454524D01*
X131699000Y-55575845D01*
X131445000Y-55575845D01*
X131215110Y-55454524D01*
X131067901Y-55499175D01*
X130805080Y-55624359D01*
X130571731Y-55798412D01*
X130495966Y-55882466D01*
X130471502Y-55801820D01*
X130412537Y-55691506D01*
X130333185Y-55594815D01*
X130236494Y-55515463D01*
X130126180Y-55456498D01*
X130006482Y-55420188D01*
X129882000Y-55407928D01*
X128182000Y-55407928D01*
X128057518Y-55420188D01*
X127937820Y-55456498D01*
X127827506Y-55515463D01*
X127730815Y-55594815D01*
X127651463Y-55691506D01*
X127592498Y-55801820D01*
X127556188Y-55921518D01*
X127543928Y-56046000D01*
X127543928Y-57309270D01*
X125472998Y-59380201D01*
X125444000Y-59403999D01*
X125420202Y-59432997D01*
X125420201Y-59432998D01*
X125349026Y-59519724D01*
X125278454Y-59651754D01*
X125234998Y-59795015D01*
X125220324Y-59944000D01*
X125224001Y-59981332D01*
X125224000Y-62288289D01*
X125180063Y-62332226D01*
X125066795Y-62501744D01*
X124988774Y-62690102D01*
X124949000Y-62890061D01*
X124949000Y-62996999D01*
X121973802Y-62996999D01*
X123447004Y-61523798D01*
X123476001Y-61500001D01*
X123502332Y-61467917D01*
X123570974Y-61384277D01*
X123641546Y-61252247D01*
X123664749Y-61175754D01*
X123685003Y-61108986D01*
X123696000Y-60997333D01*
X123696000Y-60997323D01*
X123699676Y-60960000D01*
X123696000Y-60922677D01*
X123696000Y-58384072D01*
X123786000Y-58384072D01*
X123910482Y-58371812D01*
X124030180Y-58335502D01*
X124140494Y-58276537D01*
X124237185Y-58197185D01*
X124316537Y-58100494D01*
X124375502Y-57990180D01*
X124399966Y-57909534D01*
X124475731Y-57993588D01*
X124709080Y-58167641D01*
X124971901Y-58292825D01*
X125119110Y-58337476D01*
X125349000Y-58216155D01*
X125349000Y-57023000D01*
X125603000Y-57023000D01*
X125603000Y-58216155D01*
X125832890Y-58337476D01*
X125980099Y-58292825D01*
X126242920Y-58167641D01*
X126476269Y-57993588D01*
X126671178Y-57777355D01*
X126820157Y-57527252D01*
X126917481Y-57252891D01*
X126796814Y-57023000D01*
X125603000Y-57023000D01*
X125349000Y-57023000D01*
X125329000Y-57023000D01*
X125329000Y-56769000D01*
X125349000Y-56769000D01*
X125349000Y-55575845D01*
X125603000Y-55575845D01*
X125603000Y-56769000D01*
X126796814Y-56769000D01*
X126917481Y-56539109D01*
X126820157Y-56264748D01*
X126671178Y-56014645D01*
X126476269Y-55798412D01*
X126242920Y-55624359D01*
X125980099Y-55499175D01*
X125832890Y-55454524D01*
X125603000Y-55575845D01*
X125349000Y-55575845D01*
X125119110Y-55454524D01*
X124971901Y-55499175D01*
X124709080Y-55624359D01*
X124475731Y-55798412D01*
X124399966Y-55882466D01*
X124375502Y-55801820D01*
X124316537Y-55691506D01*
X124237185Y-55594815D01*
X124140494Y-55515463D01*
X124030180Y-55456498D01*
X123910482Y-55420188D01*
X123786000Y-55407928D01*
X122086000Y-55407928D01*
X121961518Y-55420188D01*
X121841820Y-55456498D01*
X121731506Y-55515463D01*
X121662572Y-55572035D01*
X121594258Y-55444228D01*
X121227499Y-55228106D01*
X119559605Y-56896000D01*
X121227499Y-58563894D01*
X121594258Y-58347772D01*
X121661575Y-58219146D01*
X121731506Y-58276537D01*
X121841820Y-58335502D01*
X121961518Y-58371812D01*
X122086000Y-58384072D01*
X122176001Y-58384072D01*
X122176000Y-60645198D01*
X121323000Y-61498199D01*
X121323000Y-61326665D01*
X121267853Y-61049426D01*
X121159680Y-60788273D01*
X121002637Y-60553241D01*
X120802759Y-60353363D01*
X120567727Y-60196320D01*
X120306574Y-60088147D01*
X120029335Y-60033000D01*
X119746665Y-60033000D01*
X119469426Y-60088147D01*
X119208273Y-60196320D01*
X118973241Y-60353363D01*
X118773363Y-60553241D01*
X118616320Y-60788273D01*
X118508147Y-61049426D01*
X118453000Y-61326665D01*
X118453000Y-61609335D01*
X118489312Y-61791886D01*
X117801977Y-62479222D01*
X117772979Y-62503020D01*
X117749181Y-62532018D01*
X117749180Y-62532019D01*
X117678005Y-62618745D01*
X117607433Y-62750775D01*
X117584745Y-62825571D01*
X117563977Y-62894035D01*
X117553836Y-62996999D01*
X117549303Y-63043021D01*
X117552980Y-63080354D01*
X117552979Y-80683657D01*
X117549303Y-80720979D01*
X117552979Y-80758301D01*
X117552979Y-80758311D01*
X117563976Y-80869964D01*
X117592446Y-80963818D01*
X117607433Y-81013225D01*
X117678005Y-81145255D01*
X117698507Y-81170236D01*
X117772978Y-81260980D01*
X117801982Y-81284783D01*
X118192592Y-81675393D01*
X118155818Y-81744192D01*
X118073764Y-82014691D01*
X118046057Y-82296000D01*
X118073764Y-82577309D01*
X118155818Y-82847808D01*
X118289068Y-83097101D01*
X118468392Y-83315608D01*
X118686899Y-83494932D01*
X118819858Y-83566000D01*
X118686899Y-83637068D01*
X118468392Y-83816392D01*
X118289068Y-84034899D01*
X118155818Y-84284192D01*
X118073764Y-84554691D01*
X118046057Y-84836000D01*
X118073764Y-85117309D01*
X118155818Y-85387808D01*
X118289068Y-85637101D01*
X118468392Y-85855608D01*
X118686899Y-86034932D01*
X118936192Y-86168182D01*
X119206691Y-86250236D01*
X119417508Y-86271000D01*
X120358492Y-86271000D01*
X120569309Y-86250236D01*
X120839808Y-86168182D01*
X121089101Y-86034932D01*
X121307608Y-85855608D01*
X121486932Y-85637101D01*
X121620182Y-85387808D01*
X121702236Y-85117309D01*
X121729943Y-84836000D01*
X121702236Y-84554691D01*
X121620182Y-84284192D01*
X121486932Y-84034899D01*
X121307608Y-83816392D01*
X121089101Y-83637068D01*
X120956142Y-83566000D01*
X121089101Y-83494932D01*
X121307608Y-83315608D01*
X121486932Y-83097101D01*
X121620182Y-82847808D01*
X121702236Y-82577309D01*
X121729943Y-82296000D01*
X121702236Y-82014691D01*
X121620182Y-81744192D01*
X121486932Y-81494899D01*
X121307608Y-81276392D01*
X121089101Y-81097068D01*
X120956142Y-81026000D01*
X121089101Y-80954932D01*
X121307608Y-80775608D01*
X121486932Y-80557101D01*
X121620182Y-80307808D01*
X121702236Y-80037309D01*
X121729943Y-79756000D01*
X121702236Y-79474691D01*
X121620182Y-79204192D01*
X121486932Y-78954899D01*
X121307608Y-78736392D01*
X121194518Y-78643581D01*
X121212482Y-78641812D01*
X121332180Y-78605502D01*
X121442494Y-78546537D01*
X121539185Y-78467185D01*
X121618537Y-78370494D01*
X121677502Y-78260180D01*
X121713812Y-78140482D01*
X121726072Y-78016000D01*
X121726072Y-76850999D01*
X123528198Y-76850999D01*
X125812592Y-79135393D01*
X125775818Y-79204192D01*
X125693764Y-79474691D01*
X125666057Y-79756000D01*
X125693764Y-80037309D01*
X125775818Y-80307808D01*
X125909068Y-80557101D01*
X126088392Y-80775608D01*
X126306899Y-80954932D01*
X126439858Y-81026000D01*
X126306899Y-81097068D01*
X126088392Y-81276392D01*
X125909068Y-81494899D01*
X125775818Y-81744192D01*
X125693764Y-82014691D01*
X125666057Y-82296000D01*
X125693764Y-82577309D01*
X125775818Y-82847808D01*
X125909068Y-83097101D01*
X126088392Y-83315608D01*
X126306899Y-83494932D01*
X126439858Y-83566000D01*
X126306899Y-83637068D01*
X126088392Y-83816392D01*
X125909068Y-84034899D01*
X125775818Y-84284192D01*
X125693764Y-84554691D01*
X125666057Y-84836000D01*
X125693764Y-85117309D01*
X125775818Y-85387808D01*
X125909068Y-85637101D01*
X126088392Y-85855608D01*
X126306899Y-86034932D01*
X126556192Y-86168182D01*
X126826691Y-86250236D01*
X127037508Y-86271000D01*
X127978492Y-86271000D01*
X128189309Y-86250236D01*
X128459808Y-86168182D01*
X128709101Y-86034932D01*
X128927608Y-85855608D01*
X129106932Y-85637101D01*
X129240182Y-85387808D01*
X129322236Y-85117309D01*
X129349943Y-84836000D01*
X129322236Y-84554691D01*
X129240182Y-84284192D01*
X129106932Y-84034899D01*
X128927608Y-83816392D01*
X128709101Y-83637068D01*
X128576142Y-83566000D01*
X128709101Y-83494932D01*
X128927608Y-83315608D01*
X129106932Y-83097101D01*
X129240182Y-82847808D01*
X129322236Y-82577309D01*
X129349943Y-82296000D01*
X129322236Y-82014691D01*
X129240182Y-81744192D01*
X129106932Y-81494899D01*
X128927608Y-81276392D01*
X128709101Y-81097068D01*
X128576142Y-81026000D01*
X128709101Y-80954932D01*
X128927608Y-80775608D01*
X129106932Y-80557101D01*
X129240182Y-80307808D01*
X129322236Y-80037309D01*
X129349943Y-79756000D01*
X129322236Y-79474691D01*
X129240182Y-79204192D01*
X129106932Y-78954899D01*
X128927608Y-78736392D01*
X128709101Y-78557068D01*
X128581259Y-78488735D01*
X128810839Y-78338601D01*
X129012500Y-78140895D01*
X129171715Y-77907646D01*
X129282367Y-77647818D01*
X129299904Y-77565039D01*
X129177915Y-77343000D01*
X127635000Y-77343000D01*
X127635000Y-77363000D01*
X127381000Y-77363000D01*
X127381000Y-77343000D01*
X127361000Y-77343000D01*
X127361000Y-77089000D01*
X127381000Y-77089000D01*
X127381000Y-75781000D01*
X127635000Y-75781000D01*
X127635000Y-77089000D01*
X129177915Y-77089000D01*
X129299904Y-76866961D01*
X129282367Y-76784182D01*
X129171715Y-76524354D01*
X129012500Y-76291105D01*
X128810839Y-76093399D01*
X128574483Y-75938834D01*
X128312514Y-75833350D01*
X128035000Y-75781000D01*
X127635000Y-75781000D01*
X127381000Y-75781000D01*
X126981000Y-75781000D01*
X126703486Y-75833350D01*
X126441517Y-75938834D01*
X126205161Y-76093399D01*
X126003500Y-76291105D01*
X125844285Y-76524354D01*
X125733633Y-76784182D01*
X125716096Y-76866961D01*
X125743327Y-76916526D01*
X124406803Y-75580002D01*
X124383000Y-75550998D01*
X124267275Y-75456025D01*
X124135246Y-75385453D01*
X123991985Y-75341996D01*
X123880332Y-75330999D01*
X123880321Y-75330999D01*
X123842999Y-75327323D01*
X123805677Y-75330999D01*
X121150797Y-75330999D01*
X120611961Y-74792164D01*
X120689100Y-74750932D01*
X120907607Y-74571608D01*
X121086932Y-74353101D01*
X121158000Y-74220142D01*
X121229068Y-74353100D01*
X121408392Y-74571607D01*
X121626899Y-74750932D01*
X121876192Y-74884182D01*
X122146691Y-74966236D01*
X122428000Y-74993943D01*
X122709308Y-74966236D01*
X122979807Y-74884182D01*
X123229100Y-74750932D01*
X123447607Y-74571608D01*
X123626932Y-74353101D01*
X123698000Y-74220142D01*
X123769068Y-74353100D01*
X123948392Y-74571607D01*
X124166899Y-74750932D01*
X124416192Y-74884182D01*
X124686691Y-74966236D01*
X124968000Y-74993943D01*
X125249308Y-74966236D01*
X125519807Y-74884182D01*
X125769100Y-74750932D01*
X125987607Y-74571608D01*
X126166932Y-74353101D01*
X126238000Y-74220142D01*
X126309068Y-74353100D01*
X126488392Y-74571607D01*
X126706899Y-74750932D01*
X126956192Y-74884182D01*
X127226691Y-74966236D01*
X127508000Y-74993943D01*
X127789308Y-74966236D01*
X128005176Y-74900754D01*
X130545271Y-77440849D01*
X130490498Y-77543320D01*
X130454188Y-77663018D01*
X130441928Y-77787500D01*
X130441928Y-79692500D01*
X130454188Y-79816982D01*
X130490498Y-79936680D01*
X130549463Y-80046994D01*
X130628815Y-80143685D01*
X130725506Y-80223037D01*
X130817219Y-80272059D01*
X130704031Y-80413077D01*
X130560429Y-80688906D01*
X130489437Y-80907020D01*
X130609406Y-81153000D01*
X131953000Y-81153000D01*
X131953000Y-81133000D01*
X132207000Y-81133000D01*
X132207000Y-81153000D01*
X132227000Y-81153000D01*
X132227000Y-81407000D01*
X132207000Y-81407000D01*
X132207000Y-81427000D01*
X131953000Y-81427000D01*
X131953000Y-81407000D01*
X130609406Y-81407000D01*
X130489437Y-81652980D01*
X130560429Y-81871094D01*
X130704031Y-82146923D01*
X130898685Y-82389437D01*
X131083899Y-82544837D01*
X130904537Y-82692037D01*
X130706155Y-82933765D01*
X130558745Y-83209551D01*
X130467970Y-83508796D01*
X130437319Y-83820000D01*
X130467970Y-84131204D01*
X130558745Y-84430449D01*
X130706155Y-84706235D01*
X130904537Y-84947963D01*
X131146265Y-85146345D01*
X131195001Y-85172395D01*
X131195001Y-85485420D01*
X130310957Y-86369465D01*
X130254102Y-86380774D01*
X130065744Y-86458795D01*
X129896226Y-86572063D01*
X129752063Y-86716226D01*
X129638795Y-86885744D01*
X129560774Y-87074102D01*
X129521000Y-87274061D01*
X129521000Y-87477939D01*
X129526781Y-87507000D01*
X122187465Y-87507000D01*
X122143999Y-87502719D01*
X122100533Y-87507000D01*
X122100523Y-87507000D01*
X121970510Y-87519805D01*
X121803687Y-87570411D01*
X121649941Y-87652589D01*
X121649939Y-87652590D01*
X121649940Y-87652590D01*
X121548953Y-87735468D01*
X121548951Y-87735470D01*
X121515183Y-87763183D01*
X121487470Y-87796951D01*
X118784951Y-90499471D01*
X118751184Y-90527183D01*
X118723471Y-90560951D01*
X118723468Y-90560954D01*
X118640590Y-90661941D01*
X118558412Y-90815687D01*
X118507805Y-90982510D01*
X118503576Y-91025455D01*
X118455518Y-91030188D01*
X118335820Y-91066498D01*
X118225506Y-91125463D01*
X118128815Y-91204815D01*
X118049463Y-91301506D01*
X117990498Y-91411820D01*
X117954188Y-91531518D01*
X117941928Y-91656000D01*
X117941928Y-92640209D01*
X117931470Y-92652952D01*
X117931467Y-92652955D01*
X117848589Y-92753942D01*
X117766411Y-92907688D01*
X117715804Y-93074511D01*
X117698718Y-93248001D01*
X117703000Y-93291480D01*
X117702999Y-102258532D01*
X117698718Y-102302001D01*
X117702999Y-102345470D01*
X117702999Y-102345477D01*
X117715804Y-102475490D01*
X117766410Y-102642313D01*
X117848588Y-102796059D01*
X117959182Y-102930818D01*
X117992955Y-102958535D01*
X118021465Y-102987045D01*
X118049182Y-103020818D01*
X118183940Y-103131412D01*
X118337686Y-103213590D01*
X118504509Y-103264196D01*
X118634522Y-103277001D01*
X118634532Y-103277001D01*
X118677998Y-103281282D01*
X118721464Y-103277001D01*
X128088532Y-103277001D01*
X128132001Y-103281282D01*
X128175470Y-103277001D01*
X128175478Y-103277001D01*
X128305491Y-103264196D01*
X128472314Y-103213590D01*
X128626060Y-103131412D01*
X128760818Y-103020818D01*
X128788535Y-102987045D01*
X129360853Y-102414727D01*
X129614842Y-102519932D01*
X129901740Y-102577000D01*
X130194260Y-102577000D01*
X130481158Y-102519932D01*
X130751411Y-102407990D01*
X130994632Y-102245475D01*
X131201475Y-102038632D01*
X131278404Y-101923499D01*
X132444106Y-101923499D01*
X132660228Y-102290258D01*
X133120105Y-102530938D01*
X133618098Y-102677275D01*
X134135071Y-102723648D01*
X134651159Y-102668273D01*
X135146526Y-102513279D01*
X135563772Y-102290258D01*
X135779894Y-101923499D01*
X134112000Y-100255605D01*
X132444106Y-101923499D01*
X131278404Y-101923499D01*
X131363990Y-101795411D01*
X131475932Y-101525158D01*
X131533000Y-101238260D01*
X131533000Y-100945740D01*
X131475932Y-100658842D01*
X131363990Y-100388589D01*
X131201475Y-100145368D01*
X131155178Y-100099071D01*
X131464352Y-100099071D01*
X131519727Y-100615159D01*
X131674721Y-101110526D01*
X131897742Y-101527772D01*
X132264501Y-101743894D01*
X133932395Y-100076000D01*
X132264501Y-98408106D01*
X131897742Y-98624228D01*
X131657062Y-99084105D01*
X131510725Y-99582098D01*
X131464352Y-100099071D01*
X131155178Y-100099071D01*
X130994632Y-99938525D01*
X130933000Y-99897344D01*
X130933000Y-99746656D01*
X130994632Y-99705475D01*
X131201475Y-99498632D01*
X131363990Y-99255411D01*
X131475932Y-98985158D01*
X131533000Y-98698260D01*
X131533000Y-98405740D01*
X131497745Y-98228501D01*
X132444106Y-98228501D01*
X134112000Y-99896395D01*
X135779894Y-98228501D01*
X135563772Y-97861742D01*
X135103895Y-97621062D01*
X134605902Y-97474725D01*
X134088929Y-97428352D01*
X133572841Y-97483727D01*
X133077474Y-97638721D01*
X132660228Y-97861742D01*
X132444106Y-98228501D01*
X131497745Y-98228501D01*
X131475932Y-98118842D01*
X131363990Y-97848589D01*
X131201475Y-97605368D01*
X130994632Y-97398525D01*
X130751411Y-97236010D01*
X130481158Y-97124068D01*
X130194260Y-97067000D01*
X129901740Y-97067000D01*
X129614842Y-97124068D01*
X129344589Y-97236010D01*
X129101368Y-97398525D01*
X128894525Y-97605368D01*
X128772805Y-97787534D01*
X128703178Y-97670645D01*
X128508269Y-97454412D01*
X128274920Y-97280359D01*
X128012099Y-97155175D01*
X127864890Y-97110524D01*
X127635000Y-97231845D01*
X127635000Y-98425000D01*
X127655000Y-98425000D01*
X127655000Y-98679000D01*
X127635000Y-98679000D01*
X127635000Y-100965000D01*
X127655000Y-100965000D01*
X127655000Y-101219000D01*
X127635000Y-101219000D01*
X127635000Y-101239000D01*
X127381000Y-101239000D01*
X127381000Y-101219000D01*
X125095000Y-101219000D01*
X125095000Y-101239000D01*
X124841000Y-101239000D01*
X124841000Y-101219000D01*
X122555000Y-101219000D01*
X122555000Y-101239000D01*
X122301000Y-101239000D01*
X122301000Y-101219000D01*
X122281000Y-101219000D01*
X122281000Y-100965000D01*
X122301000Y-100965000D01*
X122301000Y-98679000D01*
X122555000Y-98679000D01*
X122555000Y-100965000D01*
X124841000Y-100965000D01*
X124841000Y-98679000D01*
X125095000Y-98679000D01*
X125095000Y-100965000D01*
X127381000Y-100965000D01*
X127381000Y-98679000D01*
X125095000Y-98679000D01*
X124841000Y-98679000D01*
X122555000Y-98679000D01*
X122301000Y-98679000D01*
X122281000Y-98679000D01*
X122281000Y-98425000D01*
X122301000Y-98425000D01*
X122301000Y-98405000D01*
X122555000Y-98405000D01*
X122555000Y-98425000D01*
X124841000Y-98425000D01*
X124841000Y-97231845D01*
X125095000Y-97231845D01*
X125095000Y-98425000D01*
X127381000Y-98425000D01*
X127381000Y-97231845D01*
X127151110Y-97110524D01*
X127003901Y-97155175D01*
X126741080Y-97280359D01*
X126507731Y-97454412D01*
X126312822Y-97670645D01*
X126238000Y-97796255D01*
X126163178Y-97670645D01*
X125968269Y-97454412D01*
X125734920Y-97280359D01*
X125472099Y-97155175D01*
X125324890Y-97110524D01*
X125095000Y-97231845D01*
X124841000Y-97231845D01*
X124611110Y-97110524D01*
X124463901Y-97155175D01*
X124201080Y-97280359D01*
X123967731Y-97454412D01*
X123772822Y-97670645D01*
X123698000Y-97796255D01*
X123623178Y-97670645D01*
X123428269Y-97454412D01*
X123194920Y-97280359D01*
X122932099Y-97155175D01*
X122784890Y-97110524D01*
X122555002Y-97231844D01*
X122555002Y-97136576D01*
X124484580Y-95206999D01*
X133726532Y-95206999D01*
X133770001Y-95211280D01*
X133813470Y-95206999D01*
X133813478Y-95206999D01*
X133943491Y-95194194D01*
X134110314Y-95143588D01*
X134264060Y-95061410D01*
X134398818Y-94950816D01*
X134404969Y-94943321D01*
X134473740Y-94957000D01*
X134766260Y-94957000D01*
X135053158Y-94899932D01*
X135323411Y-94787990D01*
X135566632Y-94625475D01*
X135773475Y-94418632D01*
X135935990Y-94175411D01*
X136047932Y-93905158D01*
X136105000Y-93618260D01*
X136105000Y-93325740D01*
X136090539Y-93253040D01*
X136155001Y-93188578D01*
X136155001Y-98523310D01*
X135959499Y-98408106D01*
X134291605Y-100076000D01*
X135959499Y-101743894D01*
X136155001Y-101628690D01*
X136155001Y-103455000D01*
X117525000Y-103455000D01*
X117525000Y-58784614D01*
X117597997Y-58857611D01*
X117712107Y-58743501D01*
X117928228Y-59110258D01*
X118388105Y-59350938D01*
X118886098Y-59497275D01*
X119403071Y-59543648D01*
X119919159Y-59488273D01*
X120414526Y-59333279D01*
X120831772Y-59110258D01*
X121047894Y-58743499D01*
X119380000Y-57075605D01*
X119365858Y-57089748D01*
X119186253Y-56910143D01*
X119200395Y-56896000D01*
X119186253Y-56881858D01*
X119365858Y-56702253D01*
X119380000Y-56716395D01*
X121047894Y-55048501D01*
X120916190Y-54825000D01*
X136155000Y-54825000D01*
X136155000Y-60688439D01*
%TA.AperFunction,Conductor*%
D26*
G36*
X136155000Y-60688439D02*
G01*
X136040702Y-60654903D01*
X135227605Y-61468000D01*
X136040702Y-62281097D01*
X136155000Y-62247561D01*
X136155000Y-65768439D01*
X136040702Y-65734903D01*
X135227605Y-66548000D01*
X136040702Y-67361097D01*
X136155000Y-67327561D01*
X136155000Y-71356439D01*
X136040702Y-71322903D01*
X135227605Y-72136000D01*
X136040702Y-72949097D01*
X136155000Y-72915561D01*
X136155000Y-76991422D01*
X132292280Y-73128702D01*
X134234903Y-73128702D01*
X134306486Y-73372671D01*
X134561996Y-73493571D01*
X134836184Y-73562300D01*
X135118512Y-73576217D01*
X135398130Y-73534787D01*
X135664292Y-73439603D01*
X135789514Y-73372671D01*
X135861097Y-73128702D01*
X135048000Y-72315605D01*
X134234903Y-73128702D01*
X132292280Y-73128702D01*
X131476017Y-72312439D01*
X131483000Y-72277335D01*
X131483000Y-72206512D01*
X133607783Y-72206512D01*
X133649213Y-72486130D01*
X133744397Y-72752292D01*
X133811329Y-72877514D01*
X134055298Y-72949097D01*
X134868395Y-72136000D01*
X134055298Y-71322903D01*
X133811329Y-71394486D01*
X133690429Y-71649996D01*
X133621700Y-71924184D01*
X133607783Y-72206512D01*
X131483000Y-72206512D01*
X131483000Y-71994665D01*
X131476017Y-71959561D01*
X131893050Y-71542529D01*
X131926818Y-71514816D01*
X131956200Y-71479015D01*
X132037411Y-71380059D01*
X132037412Y-71380058D01*
X132119590Y-71226312D01*
X132144772Y-71143298D01*
X134234903Y-71143298D01*
X135048000Y-71956395D01*
X135861097Y-71143298D01*
X135789514Y-70899329D01*
X135534004Y-70778429D01*
X135259816Y-70709700D01*
X134977488Y-70695783D01*
X134697870Y-70737213D01*
X134431708Y-70832397D01*
X134306486Y-70899329D01*
X134234903Y-71143298D01*
X132144772Y-71143298D01*
X132170196Y-71059489D01*
X132183001Y-70929476D01*
X132183001Y-70929466D01*
X132187282Y-70886000D01*
X132183001Y-70842534D01*
X132183001Y-67540702D01*
X134234903Y-67540702D01*
X134306486Y-67784671D01*
X134561996Y-67905571D01*
X134836184Y-67974300D01*
X135118512Y-67988217D01*
X135398130Y-67946787D01*
X135664292Y-67851603D01*
X135789514Y-67784671D01*
X135861097Y-67540702D01*
X135048000Y-66727605D01*
X134234903Y-67540702D01*
X132183001Y-67540702D01*
X132183001Y-66618512D01*
X133607783Y-66618512D01*
X133649213Y-66898130D01*
X133744397Y-67164292D01*
X133811329Y-67289514D01*
X134055298Y-67361097D01*
X134868395Y-66548000D01*
X134055298Y-65734903D01*
X133811329Y-65806486D01*
X133690429Y-66061996D01*
X133621700Y-66336184D01*
X133607783Y-66618512D01*
X132183001Y-66618512D01*
X132183001Y-65991464D01*
X132187282Y-65947998D01*
X132183001Y-65904532D01*
X132183001Y-65904522D01*
X132170196Y-65774509D01*
X132119590Y-65607686D01*
X132091589Y-65555298D01*
X134234903Y-65555298D01*
X135048000Y-66368395D01*
X135861097Y-65555298D01*
X135789514Y-65311329D01*
X135534004Y-65190429D01*
X135259816Y-65121700D01*
X134977488Y-65107783D01*
X134697870Y-65149213D01*
X134431708Y-65244397D01*
X134306486Y-65311329D01*
X134234903Y-65555298D01*
X132091589Y-65555298D01*
X132037412Y-65453940D01*
X131926818Y-65319182D01*
X131893051Y-65291470D01*
X129888535Y-63286955D01*
X129860818Y-63253182D01*
X129726060Y-63142588D01*
X129572314Y-63060410D01*
X129405491Y-63009804D01*
X129275478Y-62996999D01*
X129275470Y-62996999D01*
X129232001Y-62992718D01*
X129188532Y-62996999D01*
X127019000Y-62996999D01*
X127019000Y-62890061D01*
X127003527Y-62812273D01*
X127089426Y-62847853D01*
X127366665Y-62903000D01*
X127649335Y-62903000D01*
X127926574Y-62847853D01*
X128187727Y-62739680D01*
X128422759Y-62582637D01*
X128622637Y-62382759D01*
X128726043Y-62228000D01*
X128829957Y-62228000D01*
X128933363Y-62382759D01*
X129133241Y-62582637D01*
X129368273Y-62739680D01*
X129629426Y-62847853D01*
X129906665Y-62903000D01*
X130189335Y-62903000D01*
X130466574Y-62847853D01*
X130727727Y-62739680D01*
X130962759Y-62582637D01*
X131084694Y-62460702D01*
X134234903Y-62460702D01*
X134306486Y-62704671D01*
X134561996Y-62825571D01*
X134836184Y-62894300D01*
X135118512Y-62908217D01*
X135398130Y-62866787D01*
X135664292Y-62771603D01*
X135789514Y-62704671D01*
X135861097Y-62460702D01*
X135048000Y-61647605D01*
X134234903Y-62460702D01*
X131084694Y-62460702D01*
X131162637Y-62382759D01*
X131319680Y-62147727D01*
X131427853Y-61886574D01*
X131483000Y-61609335D01*
X131483000Y-61538512D01*
X133607783Y-61538512D01*
X133649213Y-61818130D01*
X133744397Y-62084292D01*
X133811329Y-62209514D01*
X134055298Y-62281097D01*
X134868395Y-61468000D01*
X134055298Y-60654903D01*
X133811329Y-60726486D01*
X133690429Y-60981996D01*
X133621700Y-61256184D01*
X133607783Y-61538512D01*
X131483000Y-61538512D01*
X131483000Y-61326665D01*
X131427853Y-61049426D01*
X131319680Y-60788273D01*
X131162637Y-60553241D01*
X131084694Y-60475298D01*
X134234903Y-60475298D01*
X135048000Y-61288395D01*
X135861097Y-60475298D01*
X135789514Y-60231329D01*
X135534004Y-60110429D01*
X135259816Y-60041700D01*
X134977488Y-60027783D01*
X134697870Y-60069213D01*
X134431708Y-60164397D01*
X134306486Y-60231329D01*
X134234903Y-60475298D01*
X131084694Y-60475298D01*
X130962759Y-60353363D01*
X130727727Y-60196320D01*
X130466574Y-60088147D01*
X130189335Y-60033000D01*
X129906665Y-60033000D01*
X129629426Y-60088147D01*
X129368273Y-60196320D01*
X129133241Y-60353363D01*
X128933363Y-60553241D01*
X128829957Y-60708000D01*
X128726043Y-60708000D01*
X128622637Y-60553241D01*
X128422759Y-60353363D01*
X128187727Y-60196320D01*
X127926574Y-60088147D01*
X127649335Y-60033000D01*
X127366665Y-60033000D01*
X127089426Y-60088147D01*
X126828273Y-60196320D01*
X126762600Y-60240201D01*
X128618730Y-58384072D01*
X129882000Y-58384072D01*
X130006482Y-58371812D01*
X130126180Y-58335502D01*
X130236494Y-58276537D01*
X130333185Y-58197185D01*
X130412537Y-58100494D01*
X130471502Y-57990180D01*
X130495966Y-57909534D01*
X130571731Y-57993588D01*
X130805080Y-58167641D01*
X131067901Y-58292825D01*
X131215110Y-58337476D01*
X131445000Y-58216155D01*
X131445000Y-57023000D01*
X131699000Y-57023000D01*
X131699000Y-58216155D01*
X131928890Y-58337476D01*
X132076099Y-58292825D01*
X132338920Y-58167641D01*
X132572269Y-57993588D01*
X132767178Y-57777355D01*
X132916157Y-57527252D01*
X133013481Y-57252891D01*
X132892814Y-57023000D01*
X131699000Y-57023000D01*
X131445000Y-57023000D01*
X131425000Y-57023000D01*
X131425000Y-56769000D01*
X131445000Y-56769000D01*
X131445000Y-55575845D01*
X131699000Y-55575845D01*
X131699000Y-56769000D01*
X132892814Y-56769000D01*
X133013481Y-56539109D01*
X132916157Y-56264748D01*
X132767178Y-56014645D01*
X132572269Y-55798412D01*
X132338920Y-55624359D01*
X132076099Y-55499175D01*
X131928890Y-55454524D01*
X131699000Y-55575845D01*
X131445000Y-55575845D01*
X131215110Y-55454524D01*
X131067901Y-55499175D01*
X130805080Y-55624359D01*
X130571731Y-55798412D01*
X130495966Y-55882466D01*
X130471502Y-55801820D01*
X130412537Y-55691506D01*
X130333185Y-55594815D01*
X130236494Y-55515463D01*
X130126180Y-55456498D01*
X130006482Y-55420188D01*
X129882000Y-55407928D01*
X128182000Y-55407928D01*
X128057518Y-55420188D01*
X127937820Y-55456498D01*
X127827506Y-55515463D01*
X127730815Y-55594815D01*
X127651463Y-55691506D01*
X127592498Y-55801820D01*
X127556188Y-55921518D01*
X127543928Y-56046000D01*
X127543928Y-57309270D01*
X125472998Y-59380201D01*
X125444000Y-59403999D01*
X125420202Y-59432997D01*
X125420201Y-59432998D01*
X125349026Y-59519724D01*
X125278454Y-59651754D01*
X125234998Y-59795015D01*
X125220324Y-59944000D01*
X125224001Y-59981332D01*
X125224000Y-62288289D01*
X125180063Y-62332226D01*
X125066795Y-62501744D01*
X124988774Y-62690102D01*
X124949000Y-62890061D01*
X124949000Y-62996999D01*
X121973802Y-62996999D01*
X123447004Y-61523798D01*
X123476001Y-61500001D01*
X123502332Y-61467917D01*
X123570974Y-61384277D01*
X123641546Y-61252247D01*
X123664749Y-61175754D01*
X123685003Y-61108986D01*
X123696000Y-60997333D01*
X123696000Y-60997323D01*
X123699676Y-60960000D01*
X123696000Y-60922677D01*
X123696000Y-58384072D01*
X123786000Y-58384072D01*
X123910482Y-58371812D01*
X124030180Y-58335502D01*
X124140494Y-58276537D01*
X124237185Y-58197185D01*
X124316537Y-58100494D01*
X124375502Y-57990180D01*
X124399966Y-57909534D01*
X124475731Y-57993588D01*
X124709080Y-58167641D01*
X124971901Y-58292825D01*
X125119110Y-58337476D01*
X125349000Y-58216155D01*
X125349000Y-57023000D01*
X125603000Y-57023000D01*
X125603000Y-58216155D01*
X125832890Y-58337476D01*
X125980099Y-58292825D01*
X126242920Y-58167641D01*
X126476269Y-57993588D01*
X126671178Y-57777355D01*
X126820157Y-57527252D01*
X126917481Y-57252891D01*
X126796814Y-57023000D01*
X125603000Y-57023000D01*
X125349000Y-57023000D01*
X125329000Y-57023000D01*
X125329000Y-56769000D01*
X125349000Y-56769000D01*
X125349000Y-55575845D01*
X125603000Y-55575845D01*
X125603000Y-56769000D01*
X126796814Y-56769000D01*
X126917481Y-56539109D01*
X126820157Y-56264748D01*
X126671178Y-56014645D01*
X126476269Y-55798412D01*
X126242920Y-55624359D01*
X125980099Y-55499175D01*
X125832890Y-55454524D01*
X125603000Y-55575845D01*
X125349000Y-55575845D01*
X125119110Y-55454524D01*
X124971901Y-55499175D01*
X124709080Y-55624359D01*
X124475731Y-55798412D01*
X124399966Y-55882466D01*
X124375502Y-55801820D01*
X124316537Y-55691506D01*
X124237185Y-55594815D01*
X124140494Y-55515463D01*
X124030180Y-55456498D01*
X123910482Y-55420188D01*
X123786000Y-55407928D01*
X122086000Y-55407928D01*
X121961518Y-55420188D01*
X121841820Y-55456498D01*
X121731506Y-55515463D01*
X121662572Y-55572035D01*
X121594258Y-55444228D01*
X121227499Y-55228106D01*
X119559605Y-56896000D01*
X121227499Y-58563894D01*
X121594258Y-58347772D01*
X121661575Y-58219146D01*
X121731506Y-58276537D01*
X121841820Y-58335502D01*
X121961518Y-58371812D01*
X122086000Y-58384072D01*
X122176001Y-58384072D01*
X122176000Y-60645198D01*
X121323000Y-61498199D01*
X121323000Y-61326665D01*
X121267853Y-61049426D01*
X121159680Y-60788273D01*
X121002637Y-60553241D01*
X120802759Y-60353363D01*
X120567727Y-60196320D01*
X120306574Y-60088147D01*
X120029335Y-60033000D01*
X119746665Y-60033000D01*
X119469426Y-60088147D01*
X119208273Y-60196320D01*
X118973241Y-60353363D01*
X118773363Y-60553241D01*
X118616320Y-60788273D01*
X118508147Y-61049426D01*
X118453000Y-61326665D01*
X118453000Y-61609335D01*
X118489312Y-61791886D01*
X117801977Y-62479222D01*
X117772979Y-62503020D01*
X117749181Y-62532018D01*
X117749180Y-62532019D01*
X117678005Y-62618745D01*
X117607433Y-62750775D01*
X117584745Y-62825571D01*
X117563977Y-62894035D01*
X117553836Y-62996999D01*
X117549303Y-63043021D01*
X117552980Y-63080354D01*
X117552979Y-80683657D01*
X117549303Y-80720979D01*
X117552979Y-80758301D01*
X117552979Y-80758311D01*
X117563976Y-80869964D01*
X117592446Y-80963818D01*
X117607433Y-81013225D01*
X117678005Y-81145255D01*
X117698507Y-81170236D01*
X117772978Y-81260980D01*
X117801982Y-81284783D01*
X118192592Y-81675393D01*
X118155818Y-81744192D01*
X118073764Y-82014691D01*
X118046057Y-82296000D01*
X118073764Y-82577309D01*
X118155818Y-82847808D01*
X118289068Y-83097101D01*
X118468392Y-83315608D01*
X118686899Y-83494932D01*
X118819858Y-83566000D01*
X118686899Y-83637068D01*
X118468392Y-83816392D01*
X118289068Y-84034899D01*
X118155818Y-84284192D01*
X118073764Y-84554691D01*
X118046057Y-84836000D01*
X118073764Y-85117309D01*
X118155818Y-85387808D01*
X118289068Y-85637101D01*
X118468392Y-85855608D01*
X118686899Y-86034932D01*
X118936192Y-86168182D01*
X119206691Y-86250236D01*
X119417508Y-86271000D01*
X120358492Y-86271000D01*
X120569309Y-86250236D01*
X120839808Y-86168182D01*
X121089101Y-86034932D01*
X121307608Y-85855608D01*
X121486932Y-85637101D01*
X121620182Y-85387808D01*
X121702236Y-85117309D01*
X121729943Y-84836000D01*
X121702236Y-84554691D01*
X121620182Y-84284192D01*
X121486932Y-84034899D01*
X121307608Y-83816392D01*
X121089101Y-83637068D01*
X120956142Y-83566000D01*
X121089101Y-83494932D01*
X121307608Y-83315608D01*
X121486932Y-83097101D01*
X121620182Y-82847808D01*
X121702236Y-82577309D01*
X121729943Y-82296000D01*
X121702236Y-82014691D01*
X121620182Y-81744192D01*
X121486932Y-81494899D01*
X121307608Y-81276392D01*
X121089101Y-81097068D01*
X120956142Y-81026000D01*
X121089101Y-80954932D01*
X121307608Y-80775608D01*
X121486932Y-80557101D01*
X121620182Y-80307808D01*
X121702236Y-80037309D01*
X121729943Y-79756000D01*
X121702236Y-79474691D01*
X121620182Y-79204192D01*
X121486932Y-78954899D01*
X121307608Y-78736392D01*
X121194518Y-78643581D01*
X121212482Y-78641812D01*
X121332180Y-78605502D01*
X121442494Y-78546537D01*
X121539185Y-78467185D01*
X121618537Y-78370494D01*
X121677502Y-78260180D01*
X121713812Y-78140482D01*
X121726072Y-78016000D01*
X121726072Y-76850999D01*
X123528198Y-76850999D01*
X125812592Y-79135393D01*
X125775818Y-79204192D01*
X125693764Y-79474691D01*
X125666057Y-79756000D01*
X125693764Y-80037309D01*
X125775818Y-80307808D01*
X125909068Y-80557101D01*
X126088392Y-80775608D01*
X126306899Y-80954932D01*
X126439858Y-81026000D01*
X126306899Y-81097068D01*
X126088392Y-81276392D01*
X125909068Y-81494899D01*
X125775818Y-81744192D01*
X125693764Y-82014691D01*
X125666057Y-82296000D01*
X125693764Y-82577309D01*
X125775818Y-82847808D01*
X125909068Y-83097101D01*
X126088392Y-83315608D01*
X126306899Y-83494932D01*
X126439858Y-83566000D01*
X126306899Y-83637068D01*
X126088392Y-83816392D01*
X125909068Y-84034899D01*
X125775818Y-84284192D01*
X125693764Y-84554691D01*
X125666057Y-84836000D01*
X125693764Y-85117309D01*
X125775818Y-85387808D01*
X125909068Y-85637101D01*
X126088392Y-85855608D01*
X126306899Y-86034932D01*
X126556192Y-86168182D01*
X126826691Y-86250236D01*
X127037508Y-86271000D01*
X127978492Y-86271000D01*
X128189309Y-86250236D01*
X128459808Y-86168182D01*
X128709101Y-86034932D01*
X128927608Y-85855608D01*
X129106932Y-85637101D01*
X129240182Y-85387808D01*
X129322236Y-85117309D01*
X129349943Y-84836000D01*
X129322236Y-84554691D01*
X129240182Y-84284192D01*
X129106932Y-84034899D01*
X128927608Y-83816392D01*
X128709101Y-83637068D01*
X128576142Y-83566000D01*
X128709101Y-83494932D01*
X128927608Y-83315608D01*
X129106932Y-83097101D01*
X129240182Y-82847808D01*
X129322236Y-82577309D01*
X129349943Y-82296000D01*
X129322236Y-82014691D01*
X129240182Y-81744192D01*
X129106932Y-81494899D01*
X128927608Y-81276392D01*
X128709101Y-81097068D01*
X128576142Y-81026000D01*
X128709101Y-80954932D01*
X128927608Y-80775608D01*
X129106932Y-80557101D01*
X129240182Y-80307808D01*
X129322236Y-80037309D01*
X129349943Y-79756000D01*
X129322236Y-79474691D01*
X129240182Y-79204192D01*
X129106932Y-78954899D01*
X128927608Y-78736392D01*
X128709101Y-78557068D01*
X128581259Y-78488735D01*
X128810839Y-78338601D01*
X129012500Y-78140895D01*
X129171715Y-77907646D01*
X129282367Y-77647818D01*
X129299904Y-77565039D01*
X129177915Y-77343000D01*
X127635000Y-77343000D01*
X127635000Y-77363000D01*
X127381000Y-77363000D01*
X127381000Y-77343000D01*
X127361000Y-77343000D01*
X127361000Y-77089000D01*
X127381000Y-77089000D01*
X127381000Y-75781000D01*
X127635000Y-75781000D01*
X127635000Y-77089000D01*
X129177915Y-77089000D01*
X129299904Y-76866961D01*
X129282367Y-76784182D01*
X129171715Y-76524354D01*
X129012500Y-76291105D01*
X128810839Y-76093399D01*
X128574483Y-75938834D01*
X128312514Y-75833350D01*
X128035000Y-75781000D01*
X127635000Y-75781000D01*
X127381000Y-75781000D01*
X126981000Y-75781000D01*
X126703486Y-75833350D01*
X126441517Y-75938834D01*
X126205161Y-76093399D01*
X126003500Y-76291105D01*
X125844285Y-76524354D01*
X125733633Y-76784182D01*
X125716096Y-76866961D01*
X125743327Y-76916526D01*
X124406803Y-75580002D01*
X124383000Y-75550998D01*
X124267275Y-75456025D01*
X124135246Y-75385453D01*
X123991985Y-75341996D01*
X123880332Y-75330999D01*
X123880321Y-75330999D01*
X123842999Y-75327323D01*
X123805677Y-75330999D01*
X121150797Y-75330999D01*
X120611961Y-74792164D01*
X120689100Y-74750932D01*
X120907607Y-74571608D01*
X121086932Y-74353101D01*
X121158000Y-74220142D01*
X121229068Y-74353100D01*
X121408392Y-74571607D01*
X121626899Y-74750932D01*
X121876192Y-74884182D01*
X122146691Y-74966236D01*
X122428000Y-74993943D01*
X122709308Y-74966236D01*
X122979807Y-74884182D01*
X123229100Y-74750932D01*
X123447607Y-74571608D01*
X123626932Y-74353101D01*
X123698000Y-74220142D01*
X123769068Y-74353100D01*
X123948392Y-74571607D01*
X124166899Y-74750932D01*
X124416192Y-74884182D01*
X124686691Y-74966236D01*
X124968000Y-74993943D01*
X125249308Y-74966236D01*
X125519807Y-74884182D01*
X125769100Y-74750932D01*
X125987607Y-74571608D01*
X126166932Y-74353101D01*
X126238000Y-74220142D01*
X126309068Y-74353100D01*
X126488392Y-74571607D01*
X126706899Y-74750932D01*
X126956192Y-74884182D01*
X127226691Y-74966236D01*
X127508000Y-74993943D01*
X127789308Y-74966236D01*
X128005176Y-74900754D01*
X130545271Y-77440849D01*
X130490498Y-77543320D01*
X130454188Y-77663018D01*
X130441928Y-77787500D01*
X130441928Y-79692500D01*
X130454188Y-79816982D01*
X130490498Y-79936680D01*
X130549463Y-80046994D01*
X130628815Y-80143685D01*
X130725506Y-80223037D01*
X130817219Y-80272059D01*
X130704031Y-80413077D01*
X130560429Y-80688906D01*
X130489437Y-80907020D01*
X130609406Y-81153000D01*
X131953000Y-81153000D01*
X131953000Y-81133000D01*
X132207000Y-81133000D01*
X132207000Y-81153000D01*
X132227000Y-81153000D01*
X132227000Y-81407000D01*
X132207000Y-81407000D01*
X132207000Y-81427000D01*
X131953000Y-81427000D01*
X131953000Y-81407000D01*
X130609406Y-81407000D01*
X130489437Y-81652980D01*
X130560429Y-81871094D01*
X130704031Y-82146923D01*
X130898685Y-82389437D01*
X131083899Y-82544837D01*
X130904537Y-82692037D01*
X130706155Y-82933765D01*
X130558745Y-83209551D01*
X130467970Y-83508796D01*
X130437319Y-83820000D01*
X130467970Y-84131204D01*
X130558745Y-84430449D01*
X130706155Y-84706235D01*
X130904537Y-84947963D01*
X131146265Y-85146345D01*
X131195001Y-85172395D01*
X131195001Y-85485420D01*
X130310957Y-86369465D01*
X130254102Y-86380774D01*
X130065744Y-86458795D01*
X129896226Y-86572063D01*
X129752063Y-86716226D01*
X129638795Y-86885744D01*
X129560774Y-87074102D01*
X129521000Y-87274061D01*
X129521000Y-87477939D01*
X129526781Y-87507000D01*
X122187465Y-87507000D01*
X122143999Y-87502719D01*
X122100533Y-87507000D01*
X122100523Y-87507000D01*
X121970510Y-87519805D01*
X121803687Y-87570411D01*
X121649941Y-87652589D01*
X121649939Y-87652590D01*
X121649940Y-87652590D01*
X121548953Y-87735468D01*
X121548951Y-87735470D01*
X121515183Y-87763183D01*
X121487470Y-87796951D01*
X118784951Y-90499471D01*
X118751184Y-90527183D01*
X118723471Y-90560951D01*
X118723468Y-90560954D01*
X118640590Y-90661941D01*
X118558412Y-90815687D01*
X118507805Y-90982510D01*
X118503576Y-91025455D01*
X118455518Y-91030188D01*
X118335820Y-91066498D01*
X118225506Y-91125463D01*
X118128815Y-91204815D01*
X118049463Y-91301506D01*
X117990498Y-91411820D01*
X117954188Y-91531518D01*
X117941928Y-91656000D01*
X117941928Y-92640209D01*
X117931470Y-92652952D01*
X117931467Y-92652955D01*
X117848589Y-92753942D01*
X117766411Y-92907688D01*
X117715804Y-93074511D01*
X117698718Y-93248001D01*
X117703000Y-93291480D01*
X117702999Y-102258532D01*
X117698718Y-102302001D01*
X117702999Y-102345470D01*
X117702999Y-102345477D01*
X117715804Y-102475490D01*
X117766410Y-102642313D01*
X117848588Y-102796059D01*
X117959182Y-102930818D01*
X117992955Y-102958535D01*
X118021465Y-102987045D01*
X118049182Y-103020818D01*
X118183940Y-103131412D01*
X118337686Y-103213590D01*
X118504509Y-103264196D01*
X118634522Y-103277001D01*
X118634532Y-103277001D01*
X118677998Y-103281282D01*
X118721464Y-103277001D01*
X128088532Y-103277001D01*
X128132001Y-103281282D01*
X128175470Y-103277001D01*
X128175478Y-103277001D01*
X128305491Y-103264196D01*
X128472314Y-103213590D01*
X128626060Y-103131412D01*
X128760818Y-103020818D01*
X128788535Y-102987045D01*
X129360853Y-102414727D01*
X129614842Y-102519932D01*
X129901740Y-102577000D01*
X130194260Y-102577000D01*
X130481158Y-102519932D01*
X130751411Y-102407990D01*
X130994632Y-102245475D01*
X131201475Y-102038632D01*
X131278404Y-101923499D01*
X132444106Y-101923499D01*
X132660228Y-102290258D01*
X133120105Y-102530938D01*
X133618098Y-102677275D01*
X134135071Y-102723648D01*
X134651159Y-102668273D01*
X135146526Y-102513279D01*
X135563772Y-102290258D01*
X135779894Y-101923499D01*
X134112000Y-100255605D01*
X132444106Y-101923499D01*
X131278404Y-101923499D01*
X131363990Y-101795411D01*
X131475932Y-101525158D01*
X131533000Y-101238260D01*
X131533000Y-100945740D01*
X131475932Y-100658842D01*
X131363990Y-100388589D01*
X131201475Y-100145368D01*
X131155178Y-100099071D01*
X131464352Y-100099071D01*
X131519727Y-100615159D01*
X131674721Y-101110526D01*
X131897742Y-101527772D01*
X132264501Y-101743894D01*
X133932395Y-100076000D01*
X132264501Y-98408106D01*
X131897742Y-98624228D01*
X131657062Y-99084105D01*
X131510725Y-99582098D01*
X131464352Y-100099071D01*
X131155178Y-100099071D01*
X130994632Y-99938525D01*
X130933000Y-99897344D01*
X130933000Y-99746656D01*
X130994632Y-99705475D01*
X131201475Y-99498632D01*
X131363990Y-99255411D01*
X131475932Y-98985158D01*
X131533000Y-98698260D01*
X131533000Y-98405740D01*
X131497745Y-98228501D01*
X132444106Y-98228501D01*
X134112000Y-99896395D01*
X135779894Y-98228501D01*
X135563772Y-97861742D01*
X135103895Y-97621062D01*
X134605902Y-97474725D01*
X134088929Y-97428352D01*
X133572841Y-97483727D01*
X133077474Y-97638721D01*
X132660228Y-97861742D01*
X132444106Y-98228501D01*
X131497745Y-98228501D01*
X131475932Y-98118842D01*
X131363990Y-97848589D01*
X131201475Y-97605368D01*
X130994632Y-97398525D01*
X130751411Y-97236010D01*
X130481158Y-97124068D01*
X130194260Y-97067000D01*
X129901740Y-97067000D01*
X129614842Y-97124068D01*
X129344589Y-97236010D01*
X129101368Y-97398525D01*
X128894525Y-97605368D01*
X128772805Y-97787534D01*
X128703178Y-97670645D01*
X128508269Y-97454412D01*
X128274920Y-97280359D01*
X128012099Y-97155175D01*
X127864890Y-97110524D01*
X127635000Y-97231845D01*
X127635000Y-98425000D01*
X127655000Y-98425000D01*
X127655000Y-98679000D01*
X127635000Y-98679000D01*
X127635000Y-100965000D01*
X127655000Y-100965000D01*
X127655000Y-101219000D01*
X127635000Y-101219000D01*
X127635000Y-101239000D01*
X127381000Y-101239000D01*
X127381000Y-101219000D01*
X125095000Y-101219000D01*
X125095000Y-101239000D01*
X124841000Y-101239000D01*
X124841000Y-101219000D01*
X122555000Y-101219000D01*
X122555000Y-101239000D01*
X122301000Y-101239000D01*
X122301000Y-101219000D01*
X122281000Y-101219000D01*
X122281000Y-100965000D01*
X122301000Y-100965000D01*
X122301000Y-98679000D01*
X122555000Y-98679000D01*
X122555000Y-100965000D01*
X124841000Y-100965000D01*
X124841000Y-98679000D01*
X125095000Y-98679000D01*
X125095000Y-100965000D01*
X127381000Y-100965000D01*
X127381000Y-98679000D01*
X125095000Y-98679000D01*
X124841000Y-98679000D01*
X122555000Y-98679000D01*
X122301000Y-98679000D01*
X122281000Y-98679000D01*
X122281000Y-98425000D01*
X122301000Y-98425000D01*
X122301000Y-98405000D01*
X122555000Y-98405000D01*
X122555000Y-98425000D01*
X124841000Y-98425000D01*
X124841000Y-97231845D01*
X125095000Y-97231845D01*
X125095000Y-98425000D01*
X127381000Y-98425000D01*
X127381000Y-97231845D01*
X127151110Y-97110524D01*
X127003901Y-97155175D01*
X126741080Y-97280359D01*
X126507731Y-97454412D01*
X126312822Y-97670645D01*
X126238000Y-97796255D01*
X126163178Y-97670645D01*
X125968269Y-97454412D01*
X125734920Y-97280359D01*
X125472099Y-97155175D01*
X125324890Y-97110524D01*
X125095000Y-97231845D01*
X124841000Y-97231845D01*
X124611110Y-97110524D01*
X124463901Y-97155175D01*
X124201080Y-97280359D01*
X123967731Y-97454412D01*
X123772822Y-97670645D01*
X123698000Y-97796255D01*
X123623178Y-97670645D01*
X123428269Y-97454412D01*
X123194920Y-97280359D01*
X122932099Y-97155175D01*
X122784890Y-97110524D01*
X122555002Y-97231844D01*
X122555002Y-97136576D01*
X124484580Y-95206999D01*
X133726532Y-95206999D01*
X133770001Y-95211280D01*
X133813470Y-95206999D01*
X133813478Y-95206999D01*
X133943491Y-95194194D01*
X134110314Y-95143588D01*
X134264060Y-95061410D01*
X134398818Y-94950816D01*
X134404969Y-94943321D01*
X134473740Y-94957000D01*
X134766260Y-94957000D01*
X135053158Y-94899932D01*
X135323411Y-94787990D01*
X135566632Y-94625475D01*
X135773475Y-94418632D01*
X135935990Y-94175411D01*
X136047932Y-93905158D01*
X136105000Y-93618260D01*
X136105000Y-93325740D01*
X136090539Y-93253040D01*
X136155001Y-93188578D01*
X136155001Y-98523310D01*
X135959499Y-98408106D01*
X134291605Y-100076000D01*
X135959499Y-101743894D01*
X136155001Y-101628690D01*
X136155001Y-103455000D01*
X117525000Y-103455000D01*
X117525000Y-58784614D01*
X117597997Y-58857611D01*
X117712107Y-58743501D01*
X117928228Y-59110258D01*
X118388105Y-59350938D01*
X118886098Y-59497275D01*
X119403071Y-59543648D01*
X119919159Y-59488273D01*
X120414526Y-59333279D01*
X120831772Y-59110258D01*
X121047894Y-58743499D01*
X119380000Y-57075605D01*
X119365858Y-57089748D01*
X119186253Y-56910143D01*
X119200395Y-56896000D01*
X119186253Y-56881858D01*
X119365858Y-56702253D01*
X119380000Y-56716395D01*
X121047894Y-55048501D01*
X120916190Y-54825000D01*
X136155000Y-54825000D01*
X136155000Y-60688439D01*
G37*
%TD.AperFunction*%
D25*
X133144188Y-89366482D02*
X133180498Y-89486180D01*
X133239463Y-89596494D01*
X133318815Y-89693185D01*
X133415506Y-89772537D01*
X133525820Y-89831502D01*
X133606466Y-89855966D01*
X133522412Y-89931731D01*
X133348359Y-90165080D01*
X133223175Y-90427901D01*
X133178524Y-90575110D01*
X133299845Y-90805000D01*
X134493000Y-90805000D01*
X134493000Y-90785000D01*
X134747000Y-90785000D01*
X134747000Y-90805000D01*
X134767000Y-90805000D01*
X134767000Y-91059000D01*
X134747000Y-91059000D01*
X134747000Y-91079000D01*
X134493000Y-91079000D01*
X134493000Y-91059000D01*
X133299845Y-91059000D01*
X133178524Y-91288890D01*
X133223175Y-91436099D01*
X133348359Y-91698920D01*
X133522412Y-91932269D01*
X133738645Y-92127178D01*
X133855534Y-92196805D01*
X133673368Y-92318525D01*
X133466525Y-92525368D01*
X133304010Y-92768589D01*
X133192068Y-93038842D01*
X133135000Y-93325740D01*
X133135000Y-93436999D01*
X130908668Y-93436999D01*
X130925812Y-93380482D01*
X130938072Y-93256000D01*
X130938072Y-91656000D01*
X130925812Y-91531518D01*
X130889502Y-91411820D01*
X130830537Y-91301506D01*
X130751185Y-91204815D01*
X130654494Y-91125463D01*
X130544180Y-91066498D01*
X130424482Y-91030188D01*
X130300000Y-91017928D01*
X128700000Y-91017928D01*
X128575518Y-91030188D01*
X128455820Y-91066498D01*
X128345506Y-91125463D01*
X128248815Y-91204815D01*
X128169463Y-91301506D01*
X128110498Y-91411820D01*
X128074188Y-91531518D01*
X128061928Y-91656000D01*
X128061928Y-91663215D01*
X127992702Y-91642903D01*
X127179605Y-92456000D01*
X127193748Y-92470143D01*
X127014143Y-92649748D01*
X127000000Y-92635605D01*
X126985858Y-92649748D01*
X126806253Y-92470143D01*
X126820395Y-92456000D01*
X126007298Y-91642903D01*
X125763329Y-91714486D01*
X125642429Y-91969996D01*
X125573700Y-92244184D01*
X125559783Y-92526512D01*
X125601213Y-92806130D01*
X125696397Y-93072292D01*
X125763329Y-93197514D01*
X126007296Y-93269097D01*
X125891023Y-93385370D01*
X125942652Y-93436999D01*
X124161470Y-93436999D01*
X124118001Y-93432718D01*
X124074532Y-93436999D01*
X124074524Y-93436999D01*
X123944511Y-93449804D01*
X123777688Y-93500410D01*
X123623942Y-93582588D01*
X123522954Y-93665467D01*
X123522952Y-93665469D01*
X123489184Y-93693182D01*
X123461471Y-93726950D01*
X120106961Y-97081461D01*
X120034260Y-97067000D01*
X119741740Y-97067000D01*
X119472999Y-97120456D01*
X119472999Y-93894072D01*
X120180000Y-93894072D01*
X120304482Y-93881812D01*
X120424180Y-93845502D01*
X120534494Y-93786537D01*
X120631185Y-93707185D01*
X120710537Y-93610494D01*
X120769502Y-93500180D01*
X120785117Y-93448702D01*
X121066903Y-93448702D01*
X121138486Y-93692671D01*
X121393996Y-93813571D01*
X121668184Y-93882300D01*
X121950512Y-93896217D01*
X122230130Y-93854787D01*
X122496292Y-93759603D01*
X122621514Y-93692671D01*
X122693097Y-93448702D01*
X121880000Y-92635605D01*
X121066903Y-93448702D01*
X120785117Y-93448702D01*
X120805812Y-93380482D01*
X120818072Y-93256000D01*
X120818072Y-93248785D01*
X120887298Y-93269097D01*
X121700395Y-92456000D01*
X122059605Y-92456000D01*
X122872702Y-93269097D01*
X123116671Y-93197514D01*
X123237571Y-92942004D01*
X123306300Y-92667816D01*
X123320217Y-92385488D01*
X123278787Y-92105870D01*
X123183603Y-91839708D01*
X123116671Y-91714486D01*
X122872702Y-91642903D01*
X122059605Y-92456000D01*
X121700395Y-92456000D01*
X120887298Y-91642903D01*
X120818072Y-91663215D01*
X120818072Y-91656000D01*
X120805812Y-91531518D01*
X120785118Y-91463298D01*
X121066903Y-91463298D01*
X121880000Y-92276395D01*
X122693097Y-91463298D01*
X126186903Y-91463298D01*
X127000000Y-92276395D01*
X127813097Y-91463298D01*
X127741514Y-91219329D01*
X127486004Y-91098429D01*
X127211816Y-91029700D01*
X126929488Y-91015783D01*
X126649870Y-91057213D01*
X126383708Y-91152397D01*
X126258486Y-91219329D01*
X126186903Y-91463298D01*
X122693097Y-91463298D01*
X122621514Y-91219329D01*
X122366004Y-91098429D01*
X122091816Y-91029700D01*
X121809488Y-91015783D01*
X121529870Y-91057213D01*
X121263708Y-91152397D01*
X121138486Y-91219329D01*
X121066903Y-91463298D01*
X120785118Y-91463298D01*
X120769502Y-91411820D01*
X120710537Y-91301506D01*
X120631185Y-91204815D01*
X120604590Y-91182989D01*
X122510579Y-89277000D01*
X133135375Y-89277000D01*
X133144188Y-89366482D01*
%TA.AperFunction,Conductor*%
D26*
G36*
X133144188Y-89366482D02*
G01*
X133180498Y-89486180D01*
X133239463Y-89596494D01*
X133318815Y-89693185D01*
X133415506Y-89772537D01*
X133525820Y-89831502D01*
X133606466Y-89855966D01*
X133522412Y-89931731D01*
X133348359Y-90165080D01*
X133223175Y-90427901D01*
X133178524Y-90575110D01*
X133299845Y-90805000D01*
X134493000Y-90805000D01*
X134493000Y-90785000D01*
X134747000Y-90785000D01*
X134747000Y-90805000D01*
X134767000Y-90805000D01*
X134767000Y-91059000D01*
X134747000Y-91059000D01*
X134747000Y-91079000D01*
X134493000Y-91079000D01*
X134493000Y-91059000D01*
X133299845Y-91059000D01*
X133178524Y-91288890D01*
X133223175Y-91436099D01*
X133348359Y-91698920D01*
X133522412Y-91932269D01*
X133738645Y-92127178D01*
X133855534Y-92196805D01*
X133673368Y-92318525D01*
X133466525Y-92525368D01*
X133304010Y-92768589D01*
X133192068Y-93038842D01*
X133135000Y-93325740D01*
X133135000Y-93436999D01*
X130908668Y-93436999D01*
X130925812Y-93380482D01*
X130938072Y-93256000D01*
X130938072Y-91656000D01*
X130925812Y-91531518D01*
X130889502Y-91411820D01*
X130830537Y-91301506D01*
X130751185Y-91204815D01*
X130654494Y-91125463D01*
X130544180Y-91066498D01*
X130424482Y-91030188D01*
X130300000Y-91017928D01*
X128700000Y-91017928D01*
X128575518Y-91030188D01*
X128455820Y-91066498D01*
X128345506Y-91125463D01*
X128248815Y-91204815D01*
X128169463Y-91301506D01*
X128110498Y-91411820D01*
X128074188Y-91531518D01*
X128061928Y-91656000D01*
X128061928Y-91663215D01*
X127992702Y-91642903D01*
X127179605Y-92456000D01*
X127193748Y-92470143D01*
X127014143Y-92649748D01*
X127000000Y-92635605D01*
X126985858Y-92649748D01*
X126806253Y-92470143D01*
X126820395Y-92456000D01*
X126007298Y-91642903D01*
X125763329Y-91714486D01*
X125642429Y-91969996D01*
X125573700Y-92244184D01*
X125559783Y-92526512D01*
X125601213Y-92806130D01*
X125696397Y-93072292D01*
X125763329Y-93197514D01*
X126007296Y-93269097D01*
X125891023Y-93385370D01*
X125942652Y-93436999D01*
X124161470Y-93436999D01*
X124118001Y-93432718D01*
X124074532Y-93436999D01*
X124074524Y-93436999D01*
X123944511Y-93449804D01*
X123777688Y-93500410D01*
X123623942Y-93582588D01*
X123522954Y-93665467D01*
X123522952Y-93665469D01*
X123489184Y-93693182D01*
X123461471Y-93726950D01*
X120106961Y-97081461D01*
X120034260Y-97067000D01*
X119741740Y-97067000D01*
X119472999Y-97120456D01*
X119472999Y-93894072D01*
X120180000Y-93894072D01*
X120304482Y-93881812D01*
X120424180Y-93845502D01*
X120534494Y-93786537D01*
X120631185Y-93707185D01*
X120710537Y-93610494D01*
X120769502Y-93500180D01*
X120785117Y-93448702D01*
X121066903Y-93448702D01*
X121138486Y-93692671D01*
X121393996Y-93813571D01*
X121668184Y-93882300D01*
X121950512Y-93896217D01*
X122230130Y-93854787D01*
X122496292Y-93759603D01*
X122621514Y-93692671D01*
X122693097Y-93448702D01*
X121880000Y-92635605D01*
X121066903Y-93448702D01*
X120785117Y-93448702D01*
X120805812Y-93380482D01*
X120818072Y-93256000D01*
X120818072Y-93248785D01*
X120887298Y-93269097D01*
X121700395Y-92456000D01*
X122059605Y-92456000D01*
X122872702Y-93269097D01*
X123116671Y-93197514D01*
X123237571Y-92942004D01*
X123306300Y-92667816D01*
X123320217Y-92385488D01*
X123278787Y-92105870D01*
X123183603Y-91839708D01*
X123116671Y-91714486D01*
X122872702Y-91642903D01*
X122059605Y-92456000D01*
X121700395Y-92456000D01*
X120887298Y-91642903D01*
X120818072Y-91663215D01*
X120818072Y-91656000D01*
X120805812Y-91531518D01*
X120785118Y-91463298D01*
X121066903Y-91463298D01*
X121880000Y-92276395D01*
X122693097Y-91463298D01*
X126186903Y-91463298D01*
X127000000Y-92276395D01*
X127813097Y-91463298D01*
X127741514Y-91219329D01*
X127486004Y-91098429D01*
X127211816Y-91029700D01*
X126929488Y-91015783D01*
X126649870Y-91057213D01*
X126383708Y-91152397D01*
X126258486Y-91219329D01*
X126186903Y-91463298D01*
X122693097Y-91463298D01*
X122621514Y-91219329D01*
X122366004Y-91098429D01*
X122091816Y-91029700D01*
X121809488Y-91015783D01*
X121529870Y-91057213D01*
X121263708Y-91152397D01*
X121138486Y-91219329D01*
X121066903Y-91463298D01*
X120785118Y-91463298D01*
X120769502Y-91411820D01*
X120710537Y-91301506D01*
X120631185Y-91204815D01*
X120604590Y-91182989D01*
X122510579Y-89277000D01*
X133135375Y-89277000D01*
X133144188Y-89366482D01*
G37*
%TD.AperFunction*%
%TD*%
M02*
