%TF.GenerationSoftware,KiCad,Pcbnew,(5.1.9)-1*%
%TF.CreationDate,2021-06-25T13:34:49+01:00*%
%TF.ProjectId,NoiseGen,4e6f6973-6547-4656-9e2e-6b696361645f,rev?*%
%TF.SameCoordinates,Original*%
%TF.FileFunction,Copper,L2,Bot*%
%TF.FilePolarity,Positive*%
%FSLAX46Y46*%
G04 Gerber Fmt 4.6, Leading zero omitted, Abs format (unit mm)*
G04 Created by KiCad (PCBNEW (5.1.9)-1) date 2021-06-25 13:34:49*
%MOMM*%
%LPD*%
G01*
G04 APERTURE LIST*
%TA.AperFunction,ComponentPad*%
%ADD10C,4.000000*%
%TD*%
%TA.AperFunction,ComponentPad*%
%ADD11O,2.000000X1.905000*%
%TD*%
%TA.AperFunction,ComponentPad*%
%ADD12R,2.000000X1.905000*%
%TD*%
%TA.AperFunction,ComponentPad*%
%ADD13O,1.600000X2.400000*%
%TD*%
%TA.AperFunction,ComponentPad*%
%ADD14R,1.600000X2.400000*%
%TD*%
%TA.AperFunction,ComponentPad*%
%ADD15O,1.600000X1.600000*%
%TD*%
%TA.AperFunction,ComponentPad*%
%ADD16C,1.600000*%
%TD*%
%TA.AperFunction,ComponentPad*%
%ADD17O,2.400000X1.600000*%
%TD*%
%TA.AperFunction,ComponentPad*%
%ADD18R,2.400000X1.600000*%
%TD*%
%TA.AperFunction,ComponentPad*%
%ADD19O,1.700000X1.700000*%
%TD*%
%TA.AperFunction,ComponentPad*%
%ADD20R,1.700000X1.700000*%
%TD*%
%TA.AperFunction,ComponentPad*%
%ADD21R,1.600000X1.600000*%
%TD*%
%TA.AperFunction,ViaPad*%
%ADD22C,0.800000*%
%TD*%
%TA.AperFunction,Conductor*%
%ADD23C,0.500000*%
%TD*%
%TA.AperFunction,Conductor*%
%ADD24C,0.250000*%
%TD*%
%TA.AperFunction,Conductor*%
%ADD25C,0.254000*%
%TD*%
%TA.AperFunction,Conductor*%
%ADD26C,0.100000*%
%TD*%
G04 APERTURE END LIST*
D10*
%TO.P,H2,1*%
%TO.N,GND*%
X119380000Y-56896000D03*
%TD*%
%TO.P,H1,1*%
%TO.N,GND*%
X134112000Y-100076000D03*
%TD*%
D11*
%TO.P,U1,3*%
%TO.N,+5V*%
X132080000Y-83820000D03*
%TO.P,U1,2*%
%TO.N,GND*%
X132080000Y-81280000D03*
D12*
%TO.P,U1,1*%
%TO.N,+12V*%
X132080000Y-78740000D03*
%TD*%
D13*
%TO.P,U2,8*%
%TO.N,+12V*%
X127508000Y-73152000D03*
%TO.P,U2,4*%
%TO.N,-12V*%
X119888000Y-65532000D03*
%TO.P,U2,7*%
%TO.N,Net-(J3-Pad1)*%
X124968000Y-73152000D03*
%TO.P,U2,3*%
%TO.N,Net-(J5-Pad7)*%
X122428000Y-65532000D03*
%TO.P,U2,6*%
%TO.N,Net-(J3-Pad1)*%
X122428000Y-73152000D03*
%TO.P,U2,2*%
%TO.N,Net-(J4-Pad1)*%
X124968000Y-65532000D03*
%TO.P,U2,5*%
%TO.N,Net-(C6-Pad1)*%
X119888000Y-73152000D03*
D14*
%TO.P,U2,1*%
%TO.N,Net-(J4-Pad1)*%
X127508000Y-65532000D03*
%TD*%
D15*
%TO.P,R1,2*%
%TO.N,Net-(J5-Pad3)*%
X119888000Y-61468000D03*
D16*
%TO.P,R1,1*%
%TO.N,Net-(C6-Pad1)*%
X127508000Y-61468000D03*
%TD*%
D17*
%TO.P,J5,8*%
%TO.N,GND*%
X127508000Y-77216000D03*
%TO.P,J5,4*%
%TO.N,Net-(J5-Pad4)*%
X119888000Y-84836000D03*
%TO.P,J5,7*%
%TO.N,Net-(J5-Pad7)*%
X127508000Y-79756000D03*
%TO.P,J5,3*%
%TO.N,Net-(J5-Pad3)*%
X119888000Y-82296000D03*
%TO.P,J5,6*%
%TO.N,Net-(J5-Pad6)*%
X127508000Y-82296000D03*
%TO.P,J5,2*%
%TO.N,Net-(J5-Pad2)*%
X119888000Y-79756000D03*
%TO.P,J5,5*%
%TO.N,Net-(J5-Pad5)*%
X127508000Y-84836000D03*
D18*
%TO.P,J5,1*%
%TO.N,+5V*%
X119888000Y-77216000D03*
%TD*%
D19*
%TO.P,J4,2*%
%TO.N,GND*%
X125476000Y-56896000D03*
D20*
%TO.P,J4,1*%
%TO.N,Net-(J4-Pad1)*%
X122936000Y-56896000D03*
%TD*%
D19*
%TO.P,J3,2*%
%TO.N,GND*%
X131572000Y-56896000D03*
D20*
%TO.P,J3,1*%
%TO.N,Net-(J3-Pad1)*%
X129032000Y-56896000D03*
%TD*%
D19*
%TO.P,J2,3*%
%TO.N,-12V*%
X134620000Y-93472000D03*
%TO.P,J2,2*%
%TO.N,GND*%
X134620000Y-90932000D03*
D20*
%TO.P,J2,1*%
%TO.N,+12V*%
X134620000Y-88392000D03*
%TD*%
D19*
%TO.P,J1,10*%
%TO.N,+12V*%
X130048000Y-98552000D03*
%TO.P,J1,9*%
X130048000Y-101092000D03*
%TO.P,J1,8*%
%TO.N,GND*%
X127508000Y-98552000D03*
%TO.P,J1,7*%
X127508000Y-101092000D03*
%TO.P,J1,6*%
X124968000Y-98552000D03*
%TO.P,J1,5*%
X124968000Y-101092000D03*
%TO.P,J1,4*%
X122428000Y-98552000D03*
%TO.P,J1,3*%
X122428000Y-101092000D03*
%TO.P,J1,2*%
%TO.N,-12V*%
X119888000Y-98552000D03*
D20*
%TO.P,J1,1*%
X119888000Y-101092000D03*
%TD*%
D16*
%TO.P,C6,2*%
%TO.N,GND*%
X135048000Y-61468000D03*
%TO.P,C6,1*%
%TO.N,Net-(C6-Pad1)*%
X130048000Y-61468000D03*
%TD*%
%TO.P,C4,2*%
%TO.N,GND*%
X127000000Y-92456000D03*
D21*
%TO.P,C4,1*%
%TO.N,+5V*%
X129500000Y-92456000D03*
%TD*%
D16*
%TO.P,C3,2*%
%TO.N,GND*%
X135048000Y-72136000D03*
%TO.P,C3,1*%
%TO.N,-12V*%
X130048000Y-72136000D03*
%TD*%
%TO.P,C2,2*%
%TO.N,GND*%
X135048000Y-66548000D03*
%TO.P,C2,1*%
%TO.N,+12V*%
X130048000Y-66548000D03*
%TD*%
%TO.P,C1,2*%
%TO.N,GND*%
X121880000Y-92456000D03*
D21*
%TO.P,C1,1*%
%TO.N,+12V*%
X119380000Y-92456000D03*
%TD*%
D22*
%TO.N,+5V*%
X130556000Y-87376000D03*
%TO.N,Net-(C6-Pad1)*%
X123952000Y-67564000D03*
%TO.N,Net-(J3-Pad1)*%
X125984000Y-67564000D03*
X125984000Y-62992000D03*
%TO.N,Net-(J4-Pad1)*%
X124968000Y-68580000D03*
X120904000Y-62992000D03*
%TD*%
D23*
%TO.N,+5V*%
X129500000Y-88432000D02*
X129500000Y-92456000D01*
X130556000Y-87376000D02*
X129500000Y-88432000D01*
X118237990Y-78866010D02*
X119888000Y-77216000D01*
X131845990Y-83585990D02*
X118970229Y-83585990D01*
X118237990Y-82853751D02*
X118237990Y-78866010D01*
X118970229Y-83585990D02*
X118237990Y-82853751D01*
X132080000Y-83820000D02*
X131845990Y-83585990D01*
D24*
%TO.N,Net-(C6-Pad1)*%
X123842990Y-67454990D02*
X123842990Y-63101010D01*
X123952000Y-67564000D02*
X123842990Y-67454990D01*
X125476000Y-61468000D02*
X127508000Y-61468000D01*
X123842990Y-63101010D02*
X125476000Y-61468000D01*
%TO.N,Net-(J3-Pad1)*%
X126093010Y-63101010D02*
X125984000Y-62992000D01*
X126093010Y-67454990D02*
X126093010Y-63101010D01*
X125984000Y-67564000D02*
X126093010Y-67454990D01*
%TO.N,Net-(J4-Pad1)*%
X124968000Y-68580000D02*
X122428000Y-68580000D01*
X121013010Y-63101010D02*
X120904000Y-62992000D01*
X121013010Y-67165010D02*
X121013010Y-63101010D01*
X122428000Y-68580000D02*
X121013010Y-67165010D01*
%TD*%
D25*
%TO.N,GND*%
X136155000Y-60688439D02*
X136040702Y-60654903D01*
X135227605Y-61468000D01*
X136040702Y-62281097D01*
X136155000Y-62247561D01*
X136155000Y-65768439D01*
X136040702Y-65734903D01*
X135227605Y-66548000D01*
X136040702Y-67361097D01*
X136155000Y-67327561D01*
X136155000Y-71356439D01*
X136040702Y-71322903D01*
X135227605Y-72136000D01*
X136040702Y-72949097D01*
X136155000Y-72915561D01*
X136155001Y-98523310D01*
X135959499Y-98408106D01*
X134291605Y-100076000D01*
X135959499Y-101743894D01*
X136155001Y-101628690D01*
X136155001Y-103455000D01*
X117525000Y-103455000D01*
X117525000Y-100242000D01*
X118399928Y-100242000D01*
X118399928Y-101942000D01*
X118412188Y-102066482D01*
X118448498Y-102186180D01*
X118507463Y-102296494D01*
X118586815Y-102393185D01*
X118683506Y-102472537D01*
X118793820Y-102531502D01*
X118913518Y-102567812D01*
X119038000Y-102580072D01*
X120738000Y-102580072D01*
X120862482Y-102567812D01*
X120982180Y-102531502D01*
X121092494Y-102472537D01*
X121189185Y-102393185D01*
X121268537Y-102296494D01*
X121327502Y-102186180D01*
X121351966Y-102105534D01*
X121427731Y-102189588D01*
X121661080Y-102363641D01*
X121923901Y-102488825D01*
X122071110Y-102533476D01*
X122301000Y-102412155D01*
X122301000Y-101219000D01*
X122555000Y-101219000D01*
X122555000Y-102412155D01*
X122784890Y-102533476D01*
X122932099Y-102488825D01*
X123194920Y-102363641D01*
X123428269Y-102189588D01*
X123623178Y-101973355D01*
X123698000Y-101847745D01*
X123772822Y-101973355D01*
X123967731Y-102189588D01*
X124201080Y-102363641D01*
X124463901Y-102488825D01*
X124611110Y-102533476D01*
X124841000Y-102412155D01*
X124841000Y-101219000D01*
X125095000Y-101219000D01*
X125095000Y-102412155D01*
X125324890Y-102533476D01*
X125472099Y-102488825D01*
X125734920Y-102363641D01*
X125968269Y-102189588D01*
X126163178Y-101973355D01*
X126238000Y-101847745D01*
X126312822Y-101973355D01*
X126507731Y-102189588D01*
X126741080Y-102363641D01*
X127003901Y-102488825D01*
X127151110Y-102533476D01*
X127381000Y-102412155D01*
X127381000Y-101219000D01*
X125095000Y-101219000D01*
X124841000Y-101219000D01*
X122555000Y-101219000D01*
X122301000Y-101219000D01*
X122281000Y-101219000D01*
X122281000Y-100965000D01*
X122301000Y-100965000D01*
X122301000Y-98679000D01*
X122555000Y-98679000D01*
X122555000Y-100965000D01*
X124841000Y-100965000D01*
X124841000Y-98679000D01*
X125095000Y-98679000D01*
X125095000Y-100965000D01*
X127381000Y-100965000D01*
X127381000Y-98679000D01*
X125095000Y-98679000D01*
X124841000Y-98679000D01*
X122555000Y-98679000D01*
X122301000Y-98679000D01*
X122281000Y-98679000D01*
X122281000Y-98425000D01*
X122301000Y-98425000D01*
X122301000Y-97231845D01*
X122555000Y-97231845D01*
X122555000Y-98425000D01*
X124841000Y-98425000D01*
X124841000Y-97231845D01*
X125095000Y-97231845D01*
X125095000Y-98425000D01*
X127381000Y-98425000D01*
X127381000Y-97231845D01*
X127635000Y-97231845D01*
X127635000Y-98425000D01*
X127655000Y-98425000D01*
X127655000Y-98679000D01*
X127635000Y-98679000D01*
X127635000Y-100965000D01*
X127655000Y-100965000D01*
X127655000Y-101219000D01*
X127635000Y-101219000D01*
X127635000Y-102412155D01*
X127864890Y-102533476D01*
X128012099Y-102488825D01*
X128274920Y-102363641D01*
X128508269Y-102189588D01*
X128703178Y-101973355D01*
X128772805Y-101856466D01*
X128894525Y-102038632D01*
X129101368Y-102245475D01*
X129344589Y-102407990D01*
X129614842Y-102519932D01*
X129901740Y-102577000D01*
X130194260Y-102577000D01*
X130481158Y-102519932D01*
X130751411Y-102407990D01*
X130994632Y-102245475D01*
X131201475Y-102038632D01*
X131278404Y-101923499D01*
X132444106Y-101923499D01*
X132660228Y-102290258D01*
X133120105Y-102530938D01*
X133618098Y-102677275D01*
X134135071Y-102723648D01*
X134651159Y-102668273D01*
X135146526Y-102513279D01*
X135563772Y-102290258D01*
X135779894Y-101923499D01*
X134112000Y-100255605D01*
X132444106Y-101923499D01*
X131278404Y-101923499D01*
X131363990Y-101795411D01*
X131475932Y-101525158D01*
X131533000Y-101238260D01*
X131533000Y-100945740D01*
X131475932Y-100658842D01*
X131363990Y-100388589D01*
X131201475Y-100145368D01*
X131155178Y-100099071D01*
X131464352Y-100099071D01*
X131519727Y-100615159D01*
X131674721Y-101110526D01*
X131897742Y-101527772D01*
X132264501Y-101743894D01*
X133932395Y-100076000D01*
X132264501Y-98408106D01*
X131897742Y-98624228D01*
X131657062Y-99084105D01*
X131510725Y-99582098D01*
X131464352Y-100099071D01*
X131155178Y-100099071D01*
X130994632Y-99938525D01*
X130820240Y-99822000D01*
X130994632Y-99705475D01*
X131201475Y-99498632D01*
X131363990Y-99255411D01*
X131475932Y-98985158D01*
X131533000Y-98698260D01*
X131533000Y-98405740D01*
X131497745Y-98228501D01*
X132444106Y-98228501D01*
X134112000Y-99896395D01*
X135779894Y-98228501D01*
X135563772Y-97861742D01*
X135103895Y-97621062D01*
X134605902Y-97474725D01*
X134088929Y-97428352D01*
X133572841Y-97483727D01*
X133077474Y-97638721D01*
X132660228Y-97861742D01*
X132444106Y-98228501D01*
X131497745Y-98228501D01*
X131475932Y-98118842D01*
X131363990Y-97848589D01*
X131201475Y-97605368D01*
X130994632Y-97398525D01*
X130751411Y-97236010D01*
X130481158Y-97124068D01*
X130194260Y-97067000D01*
X129901740Y-97067000D01*
X129614842Y-97124068D01*
X129344589Y-97236010D01*
X129101368Y-97398525D01*
X128894525Y-97605368D01*
X128772805Y-97787534D01*
X128703178Y-97670645D01*
X128508269Y-97454412D01*
X128274920Y-97280359D01*
X128012099Y-97155175D01*
X127864890Y-97110524D01*
X127635000Y-97231845D01*
X127381000Y-97231845D01*
X127151110Y-97110524D01*
X127003901Y-97155175D01*
X126741080Y-97280359D01*
X126507731Y-97454412D01*
X126312822Y-97670645D01*
X126238000Y-97796255D01*
X126163178Y-97670645D01*
X125968269Y-97454412D01*
X125734920Y-97280359D01*
X125472099Y-97155175D01*
X125324890Y-97110524D01*
X125095000Y-97231845D01*
X124841000Y-97231845D01*
X124611110Y-97110524D01*
X124463901Y-97155175D01*
X124201080Y-97280359D01*
X123967731Y-97454412D01*
X123772822Y-97670645D01*
X123698000Y-97796255D01*
X123623178Y-97670645D01*
X123428269Y-97454412D01*
X123194920Y-97280359D01*
X122932099Y-97155175D01*
X122784890Y-97110524D01*
X122555000Y-97231845D01*
X122301000Y-97231845D01*
X122071110Y-97110524D01*
X121923901Y-97155175D01*
X121661080Y-97280359D01*
X121427731Y-97454412D01*
X121232822Y-97670645D01*
X121163195Y-97787534D01*
X121041475Y-97605368D01*
X120834632Y-97398525D01*
X120591411Y-97236010D01*
X120321158Y-97124068D01*
X120034260Y-97067000D01*
X119741740Y-97067000D01*
X119454842Y-97124068D01*
X119184589Y-97236010D01*
X118941368Y-97398525D01*
X118734525Y-97605368D01*
X118572010Y-97848589D01*
X118460068Y-98118842D01*
X118403000Y-98405740D01*
X118403000Y-98698260D01*
X118460068Y-98985158D01*
X118572010Y-99255411D01*
X118734525Y-99498632D01*
X118866380Y-99630487D01*
X118793820Y-99652498D01*
X118683506Y-99711463D01*
X118586815Y-99790815D01*
X118507463Y-99887506D01*
X118448498Y-99997820D01*
X118412188Y-100117518D01*
X118399928Y-100242000D01*
X117525000Y-100242000D01*
X117525000Y-91656000D01*
X117941928Y-91656000D01*
X117941928Y-93256000D01*
X117954188Y-93380482D01*
X117990498Y-93500180D01*
X118049463Y-93610494D01*
X118128815Y-93707185D01*
X118225506Y-93786537D01*
X118335820Y-93845502D01*
X118455518Y-93881812D01*
X118580000Y-93894072D01*
X120180000Y-93894072D01*
X120304482Y-93881812D01*
X120424180Y-93845502D01*
X120534494Y-93786537D01*
X120631185Y-93707185D01*
X120710537Y-93610494D01*
X120769502Y-93500180D01*
X120785117Y-93448702D01*
X121066903Y-93448702D01*
X121138486Y-93692671D01*
X121393996Y-93813571D01*
X121668184Y-93882300D01*
X121950512Y-93896217D01*
X122230130Y-93854787D01*
X122496292Y-93759603D01*
X122621514Y-93692671D01*
X122693097Y-93448702D01*
X126186903Y-93448702D01*
X126258486Y-93692671D01*
X126513996Y-93813571D01*
X126788184Y-93882300D01*
X127070512Y-93896217D01*
X127350130Y-93854787D01*
X127616292Y-93759603D01*
X127741514Y-93692671D01*
X127813097Y-93448702D01*
X127000000Y-92635605D01*
X126186903Y-93448702D01*
X122693097Y-93448702D01*
X121880000Y-92635605D01*
X121066903Y-93448702D01*
X120785117Y-93448702D01*
X120805812Y-93380482D01*
X120818072Y-93256000D01*
X120818072Y-93248785D01*
X120887298Y-93269097D01*
X121700395Y-92456000D01*
X122059605Y-92456000D01*
X122872702Y-93269097D01*
X123116671Y-93197514D01*
X123237571Y-92942004D01*
X123306300Y-92667816D01*
X123313265Y-92526512D01*
X125559783Y-92526512D01*
X125601213Y-92806130D01*
X125696397Y-93072292D01*
X125763329Y-93197514D01*
X126007298Y-93269097D01*
X126820395Y-92456000D01*
X127179605Y-92456000D01*
X127992702Y-93269097D01*
X128061928Y-93248785D01*
X128061928Y-93256000D01*
X128074188Y-93380482D01*
X128110498Y-93500180D01*
X128169463Y-93610494D01*
X128248815Y-93707185D01*
X128345506Y-93786537D01*
X128455820Y-93845502D01*
X128575518Y-93881812D01*
X128700000Y-93894072D01*
X130300000Y-93894072D01*
X130424482Y-93881812D01*
X130544180Y-93845502D01*
X130654494Y-93786537D01*
X130751185Y-93707185D01*
X130830537Y-93610494D01*
X130889502Y-93500180D01*
X130925812Y-93380482D01*
X130931203Y-93325740D01*
X133135000Y-93325740D01*
X133135000Y-93618260D01*
X133192068Y-93905158D01*
X133304010Y-94175411D01*
X133466525Y-94418632D01*
X133673368Y-94625475D01*
X133916589Y-94787990D01*
X134186842Y-94899932D01*
X134473740Y-94957000D01*
X134766260Y-94957000D01*
X135053158Y-94899932D01*
X135323411Y-94787990D01*
X135566632Y-94625475D01*
X135773475Y-94418632D01*
X135935990Y-94175411D01*
X136047932Y-93905158D01*
X136105000Y-93618260D01*
X136105000Y-93325740D01*
X136047932Y-93038842D01*
X135935990Y-92768589D01*
X135773475Y-92525368D01*
X135566632Y-92318525D01*
X135384466Y-92196805D01*
X135501355Y-92127178D01*
X135717588Y-91932269D01*
X135891641Y-91698920D01*
X136016825Y-91436099D01*
X136061476Y-91288890D01*
X135940155Y-91059000D01*
X134747000Y-91059000D01*
X134747000Y-91079000D01*
X134493000Y-91079000D01*
X134493000Y-91059000D01*
X133299845Y-91059000D01*
X133178524Y-91288890D01*
X133223175Y-91436099D01*
X133348359Y-91698920D01*
X133522412Y-91932269D01*
X133738645Y-92127178D01*
X133855534Y-92196805D01*
X133673368Y-92318525D01*
X133466525Y-92525368D01*
X133304010Y-92768589D01*
X133192068Y-93038842D01*
X133135000Y-93325740D01*
X130931203Y-93325740D01*
X130938072Y-93256000D01*
X130938072Y-91656000D01*
X130925812Y-91531518D01*
X130889502Y-91411820D01*
X130830537Y-91301506D01*
X130751185Y-91204815D01*
X130654494Y-91125463D01*
X130544180Y-91066498D01*
X130424482Y-91030188D01*
X130385000Y-91026299D01*
X130385000Y-88798578D01*
X130801044Y-88382535D01*
X130857898Y-88371226D01*
X131046256Y-88293205D01*
X131215774Y-88179937D01*
X131359937Y-88035774D01*
X131473205Y-87866256D01*
X131551226Y-87677898D01*
X131578257Y-87542000D01*
X133131928Y-87542000D01*
X133131928Y-89242000D01*
X133144188Y-89366482D01*
X133180498Y-89486180D01*
X133239463Y-89596494D01*
X133318815Y-89693185D01*
X133415506Y-89772537D01*
X133525820Y-89831502D01*
X133606466Y-89855966D01*
X133522412Y-89931731D01*
X133348359Y-90165080D01*
X133223175Y-90427901D01*
X133178524Y-90575110D01*
X133299845Y-90805000D01*
X134493000Y-90805000D01*
X134493000Y-90785000D01*
X134747000Y-90785000D01*
X134747000Y-90805000D01*
X135940155Y-90805000D01*
X136061476Y-90575110D01*
X136016825Y-90427901D01*
X135891641Y-90165080D01*
X135717588Y-89931731D01*
X135633534Y-89855966D01*
X135714180Y-89831502D01*
X135824494Y-89772537D01*
X135921185Y-89693185D01*
X136000537Y-89596494D01*
X136059502Y-89486180D01*
X136095812Y-89366482D01*
X136108072Y-89242000D01*
X136108072Y-87542000D01*
X136095812Y-87417518D01*
X136059502Y-87297820D01*
X136000537Y-87187506D01*
X135921185Y-87090815D01*
X135824494Y-87011463D01*
X135714180Y-86952498D01*
X135594482Y-86916188D01*
X135470000Y-86903928D01*
X133770000Y-86903928D01*
X133645518Y-86916188D01*
X133525820Y-86952498D01*
X133415506Y-87011463D01*
X133318815Y-87090815D01*
X133239463Y-87187506D01*
X133180498Y-87297820D01*
X133144188Y-87417518D01*
X133131928Y-87542000D01*
X131578257Y-87542000D01*
X131591000Y-87477939D01*
X131591000Y-87274061D01*
X131551226Y-87074102D01*
X131473205Y-86885744D01*
X131359937Y-86716226D01*
X131215774Y-86572063D01*
X131046256Y-86458795D01*
X130857898Y-86380774D01*
X130657939Y-86341000D01*
X130454061Y-86341000D01*
X130254102Y-86380774D01*
X130065744Y-86458795D01*
X129896226Y-86572063D01*
X129752063Y-86716226D01*
X129638795Y-86885744D01*
X129560774Y-87074102D01*
X129549465Y-87130956D01*
X128904956Y-87775466D01*
X128871183Y-87803183D01*
X128760589Y-87937942D01*
X128678411Y-88091688D01*
X128627805Y-88258511D01*
X128615000Y-88388524D01*
X128615000Y-88388531D01*
X128610719Y-88432000D01*
X128615000Y-88475469D01*
X128615001Y-91026299D01*
X128575518Y-91030188D01*
X128455820Y-91066498D01*
X128345506Y-91125463D01*
X128248815Y-91204815D01*
X128169463Y-91301506D01*
X128110498Y-91411820D01*
X128074188Y-91531518D01*
X128061928Y-91656000D01*
X128061928Y-91663215D01*
X127992702Y-91642903D01*
X127179605Y-92456000D01*
X126820395Y-92456000D01*
X126007298Y-91642903D01*
X125763329Y-91714486D01*
X125642429Y-91969996D01*
X125573700Y-92244184D01*
X125559783Y-92526512D01*
X123313265Y-92526512D01*
X123320217Y-92385488D01*
X123278787Y-92105870D01*
X123183603Y-91839708D01*
X123116671Y-91714486D01*
X122872702Y-91642903D01*
X122059605Y-92456000D01*
X121700395Y-92456000D01*
X120887298Y-91642903D01*
X120818072Y-91663215D01*
X120818072Y-91656000D01*
X120805812Y-91531518D01*
X120785118Y-91463298D01*
X121066903Y-91463298D01*
X121880000Y-92276395D01*
X122693097Y-91463298D01*
X126186903Y-91463298D01*
X127000000Y-92276395D01*
X127813097Y-91463298D01*
X127741514Y-91219329D01*
X127486004Y-91098429D01*
X127211816Y-91029700D01*
X126929488Y-91015783D01*
X126649870Y-91057213D01*
X126383708Y-91152397D01*
X126258486Y-91219329D01*
X126186903Y-91463298D01*
X122693097Y-91463298D01*
X122621514Y-91219329D01*
X122366004Y-91098429D01*
X122091816Y-91029700D01*
X121809488Y-91015783D01*
X121529870Y-91057213D01*
X121263708Y-91152397D01*
X121138486Y-91219329D01*
X121066903Y-91463298D01*
X120785118Y-91463298D01*
X120769502Y-91411820D01*
X120710537Y-91301506D01*
X120631185Y-91204815D01*
X120534494Y-91125463D01*
X120424180Y-91066498D01*
X120304482Y-91030188D01*
X120180000Y-91017928D01*
X118580000Y-91017928D01*
X118455518Y-91030188D01*
X118335820Y-91066498D01*
X118225506Y-91125463D01*
X118128815Y-91204815D01*
X118049463Y-91301506D01*
X117990498Y-91411820D01*
X117954188Y-91531518D01*
X117941928Y-91656000D01*
X117525000Y-91656000D01*
X117525000Y-83380003D01*
X117609173Y-83482568D01*
X117642946Y-83510285D01*
X118246743Y-84114083D01*
X118155818Y-84284192D01*
X118073764Y-84554691D01*
X118046057Y-84836000D01*
X118073764Y-85117309D01*
X118155818Y-85387808D01*
X118289068Y-85637101D01*
X118468392Y-85855608D01*
X118686899Y-86034932D01*
X118936192Y-86168182D01*
X119206691Y-86250236D01*
X119417508Y-86271000D01*
X120358492Y-86271000D01*
X120569309Y-86250236D01*
X120839808Y-86168182D01*
X121089101Y-86034932D01*
X121307608Y-85855608D01*
X121486932Y-85637101D01*
X121620182Y-85387808D01*
X121702236Y-85117309D01*
X121729943Y-84836000D01*
X121702236Y-84554691D01*
X121676846Y-84470990D01*
X125719154Y-84470990D01*
X125693764Y-84554691D01*
X125666057Y-84836000D01*
X125693764Y-85117309D01*
X125775818Y-85387808D01*
X125909068Y-85637101D01*
X126088392Y-85855608D01*
X126306899Y-86034932D01*
X126556192Y-86168182D01*
X126826691Y-86250236D01*
X127037508Y-86271000D01*
X127978492Y-86271000D01*
X128189309Y-86250236D01*
X128459808Y-86168182D01*
X128709101Y-86034932D01*
X128927608Y-85855608D01*
X129106932Y-85637101D01*
X129240182Y-85387808D01*
X129322236Y-85117309D01*
X129349943Y-84836000D01*
X129322236Y-84554691D01*
X129296846Y-84470990D01*
X130580415Y-84470990D01*
X130706155Y-84706235D01*
X130904537Y-84947963D01*
X131146265Y-85146345D01*
X131422051Y-85293755D01*
X131721296Y-85384530D01*
X131954514Y-85407500D01*
X132205486Y-85407500D01*
X132438704Y-85384530D01*
X132737949Y-85293755D01*
X133013735Y-85146345D01*
X133255463Y-84947963D01*
X133453845Y-84706235D01*
X133601255Y-84430449D01*
X133692030Y-84131204D01*
X133722681Y-83820000D01*
X133692030Y-83508796D01*
X133601255Y-83209551D01*
X133453845Y-82933765D01*
X133255463Y-82692037D01*
X133076101Y-82544837D01*
X133261315Y-82389437D01*
X133455969Y-82146923D01*
X133599571Y-81871094D01*
X133670563Y-81652980D01*
X133550594Y-81407000D01*
X132207000Y-81407000D01*
X132207000Y-81427000D01*
X131953000Y-81427000D01*
X131953000Y-81407000D01*
X130609406Y-81407000D01*
X130489437Y-81652980D01*
X130560429Y-81871094D01*
X130704031Y-82146923D01*
X130898685Y-82389437D01*
X131083899Y-82544837D01*
X130904537Y-82692037D01*
X130897189Y-82700990D01*
X129284718Y-82700990D01*
X129322236Y-82577309D01*
X129349943Y-82296000D01*
X129322236Y-82014691D01*
X129240182Y-81744192D01*
X129106932Y-81494899D01*
X128927608Y-81276392D01*
X128709101Y-81097068D01*
X128576142Y-81026000D01*
X128709101Y-80954932D01*
X128927608Y-80775608D01*
X129106932Y-80557101D01*
X129240182Y-80307808D01*
X129322236Y-80037309D01*
X129349943Y-79756000D01*
X129322236Y-79474691D01*
X129240182Y-79204192D01*
X129106932Y-78954899D01*
X128927608Y-78736392D01*
X128709101Y-78557068D01*
X128581259Y-78488735D01*
X128810839Y-78338601D01*
X129012500Y-78140895D01*
X129171715Y-77907646D01*
X129222881Y-77787500D01*
X130441928Y-77787500D01*
X130441928Y-79692500D01*
X130454188Y-79816982D01*
X130490498Y-79936680D01*
X130549463Y-80046994D01*
X130628815Y-80143685D01*
X130725506Y-80223037D01*
X130817219Y-80272059D01*
X130704031Y-80413077D01*
X130560429Y-80688906D01*
X130489437Y-80907020D01*
X130609406Y-81153000D01*
X131953000Y-81153000D01*
X131953000Y-81133000D01*
X132207000Y-81133000D01*
X132207000Y-81153000D01*
X133550594Y-81153000D01*
X133670563Y-80907020D01*
X133599571Y-80688906D01*
X133455969Y-80413077D01*
X133342781Y-80272059D01*
X133434494Y-80223037D01*
X133531185Y-80143685D01*
X133610537Y-80046994D01*
X133669502Y-79936680D01*
X133705812Y-79816982D01*
X133718072Y-79692500D01*
X133718072Y-77787500D01*
X133705812Y-77663018D01*
X133669502Y-77543320D01*
X133610537Y-77433006D01*
X133531185Y-77336315D01*
X133434494Y-77256963D01*
X133324180Y-77197998D01*
X133204482Y-77161688D01*
X133080000Y-77149428D01*
X131080000Y-77149428D01*
X130955518Y-77161688D01*
X130835820Y-77197998D01*
X130725506Y-77256963D01*
X130628815Y-77336315D01*
X130549463Y-77433006D01*
X130490498Y-77543320D01*
X130454188Y-77663018D01*
X130441928Y-77787500D01*
X129222881Y-77787500D01*
X129282367Y-77647818D01*
X129299904Y-77565039D01*
X129177915Y-77343000D01*
X127635000Y-77343000D01*
X127635000Y-77363000D01*
X127381000Y-77363000D01*
X127381000Y-77343000D01*
X125838085Y-77343000D01*
X125716096Y-77565039D01*
X125733633Y-77647818D01*
X125844285Y-77907646D01*
X126003500Y-78140895D01*
X126205161Y-78338601D01*
X126434741Y-78488735D01*
X126306899Y-78557068D01*
X126088392Y-78736392D01*
X125909068Y-78954899D01*
X125775818Y-79204192D01*
X125693764Y-79474691D01*
X125666057Y-79756000D01*
X125693764Y-80037309D01*
X125775818Y-80307808D01*
X125909068Y-80557101D01*
X126088392Y-80775608D01*
X126306899Y-80954932D01*
X126439858Y-81026000D01*
X126306899Y-81097068D01*
X126088392Y-81276392D01*
X125909068Y-81494899D01*
X125775818Y-81744192D01*
X125693764Y-82014691D01*
X125666057Y-82296000D01*
X125693764Y-82577309D01*
X125731282Y-82700990D01*
X121664718Y-82700990D01*
X121702236Y-82577309D01*
X121729943Y-82296000D01*
X121702236Y-82014691D01*
X121620182Y-81744192D01*
X121486932Y-81494899D01*
X121307608Y-81276392D01*
X121089101Y-81097068D01*
X120956142Y-81026000D01*
X121089101Y-80954932D01*
X121307608Y-80775608D01*
X121486932Y-80557101D01*
X121620182Y-80307808D01*
X121702236Y-80037309D01*
X121729943Y-79756000D01*
X121702236Y-79474691D01*
X121620182Y-79204192D01*
X121486932Y-78954899D01*
X121307608Y-78736392D01*
X121194518Y-78643581D01*
X121212482Y-78641812D01*
X121332180Y-78605502D01*
X121442494Y-78546537D01*
X121539185Y-78467185D01*
X121618537Y-78370494D01*
X121677502Y-78260180D01*
X121713812Y-78140482D01*
X121726072Y-78016000D01*
X121726072Y-76866961D01*
X125716096Y-76866961D01*
X125838085Y-77089000D01*
X127381000Y-77089000D01*
X127381000Y-75781000D01*
X127635000Y-75781000D01*
X127635000Y-77089000D01*
X129177915Y-77089000D01*
X129299904Y-76866961D01*
X129282367Y-76784182D01*
X129171715Y-76524354D01*
X129012500Y-76291105D01*
X128810839Y-76093399D01*
X128574483Y-75938834D01*
X128312514Y-75833350D01*
X128035000Y-75781000D01*
X127635000Y-75781000D01*
X127381000Y-75781000D01*
X126981000Y-75781000D01*
X126703486Y-75833350D01*
X126441517Y-75938834D01*
X126205161Y-76093399D01*
X126003500Y-76291105D01*
X125844285Y-76524354D01*
X125733633Y-76784182D01*
X125716096Y-76866961D01*
X121726072Y-76866961D01*
X121726072Y-76416000D01*
X121713812Y-76291518D01*
X121677502Y-76171820D01*
X121618537Y-76061506D01*
X121539185Y-75964815D01*
X121442494Y-75885463D01*
X121332180Y-75826498D01*
X121212482Y-75790188D01*
X121088000Y-75777928D01*
X118688000Y-75777928D01*
X118563518Y-75790188D01*
X118443820Y-75826498D01*
X118333506Y-75885463D01*
X118236815Y-75964815D01*
X118157463Y-76061506D01*
X118098498Y-76171820D01*
X118062188Y-76291518D01*
X118049928Y-76416000D01*
X118049928Y-77802494D01*
X117642941Y-78209481D01*
X117609174Y-78237193D01*
X117581461Y-78270961D01*
X117581458Y-78270964D01*
X117525000Y-78339758D01*
X117525000Y-72681508D01*
X118453000Y-72681508D01*
X118453000Y-73622491D01*
X118473764Y-73833308D01*
X118555818Y-74103807D01*
X118689068Y-74353100D01*
X118868392Y-74571607D01*
X119086899Y-74750932D01*
X119336192Y-74884182D01*
X119606691Y-74966236D01*
X119888000Y-74993943D01*
X120169308Y-74966236D01*
X120439807Y-74884182D01*
X120689100Y-74750932D01*
X120907607Y-74571608D01*
X121086932Y-74353101D01*
X121158000Y-74220142D01*
X121229068Y-74353100D01*
X121408392Y-74571607D01*
X121626899Y-74750932D01*
X121876192Y-74884182D01*
X122146691Y-74966236D01*
X122428000Y-74993943D01*
X122709308Y-74966236D01*
X122979807Y-74884182D01*
X123229100Y-74750932D01*
X123447607Y-74571608D01*
X123626932Y-74353101D01*
X123698000Y-74220142D01*
X123769068Y-74353100D01*
X123948392Y-74571607D01*
X124166899Y-74750932D01*
X124416192Y-74884182D01*
X124686691Y-74966236D01*
X124968000Y-74993943D01*
X125249308Y-74966236D01*
X125519807Y-74884182D01*
X125769100Y-74750932D01*
X125987607Y-74571608D01*
X126166932Y-74353101D01*
X126238000Y-74220142D01*
X126309068Y-74353100D01*
X126488392Y-74571607D01*
X126706899Y-74750932D01*
X126956192Y-74884182D01*
X127226691Y-74966236D01*
X127508000Y-74993943D01*
X127789308Y-74966236D01*
X128059807Y-74884182D01*
X128309100Y-74750932D01*
X128527607Y-74571608D01*
X128706932Y-74353101D01*
X128840182Y-74103808D01*
X128922236Y-73833309D01*
X128943000Y-73622492D01*
X128943000Y-73060396D01*
X129133241Y-73250637D01*
X129368273Y-73407680D01*
X129629426Y-73515853D01*
X129906665Y-73571000D01*
X130189335Y-73571000D01*
X130466574Y-73515853D01*
X130727727Y-73407680D01*
X130962759Y-73250637D01*
X131084694Y-73128702D01*
X134234903Y-73128702D01*
X134306486Y-73372671D01*
X134561996Y-73493571D01*
X134836184Y-73562300D01*
X135118512Y-73576217D01*
X135398130Y-73534787D01*
X135664292Y-73439603D01*
X135789514Y-73372671D01*
X135861097Y-73128702D01*
X135048000Y-72315605D01*
X134234903Y-73128702D01*
X131084694Y-73128702D01*
X131162637Y-73050759D01*
X131319680Y-72815727D01*
X131427853Y-72554574D01*
X131483000Y-72277335D01*
X131483000Y-72206512D01*
X133607783Y-72206512D01*
X133649213Y-72486130D01*
X133744397Y-72752292D01*
X133811329Y-72877514D01*
X134055298Y-72949097D01*
X134868395Y-72136000D01*
X134055298Y-71322903D01*
X133811329Y-71394486D01*
X133690429Y-71649996D01*
X133621700Y-71924184D01*
X133607783Y-72206512D01*
X131483000Y-72206512D01*
X131483000Y-71994665D01*
X131427853Y-71717426D01*
X131319680Y-71456273D01*
X131162637Y-71221241D01*
X131084694Y-71143298D01*
X134234903Y-71143298D01*
X135048000Y-71956395D01*
X135861097Y-71143298D01*
X135789514Y-70899329D01*
X135534004Y-70778429D01*
X135259816Y-70709700D01*
X134977488Y-70695783D01*
X134697870Y-70737213D01*
X134431708Y-70832397D01*
X134306486Y-70899329D01*
X134234903Y-71143298D01*
X131084694Y-71143298D01*
X130962759Y-71021363D01*
X130727727Y-70864320D01*
X130466574Y-70756147D01*
X130189335Y-70701000D01*
X129906665Y-70701000D01*
X129629426Y-70756147D01*
X129368273Y-70864320D01*
X129133241Y-71021363D01*
X128933363Y-71221241D01*
X128776320Y-71456273D01*
X128668147Y-71717426D01*
X128638333Y-71867311D01*
X128527608Y-71732392D01*
X128309101Y-71553068D01*
X128059808Y-71419818D01*
X127789309Y-71337764D01*
X127508000Y-71310057D01*
X127226692Y-71337764D01*
X126956193Y-71419818D01*
X126706900Y-71553068D01*
X126488393Y-71732392D01*
X126309068Y-71950899D01*
X126238000Y-72083858D01*
X126166932Y-71950899D01*
X125987608Y-71732392D01*
X125769101Y-71553068D01*
X125519808Y-71419818D01*
X125249309Y-71337764D01*
X124968000Y-71310057D01*
X124686692Y-71337764D01*
X124416193Y-71419818D01*
X124166900Y-71553068D01*
X123948393Y-71732392D01*
X123769068Y-71950899D01*
X123698000Y-72083858D01*
X123626932Y-71950899D01*
X123447608Y-71732392D01*
X123229101Y-71553068D01*
X122979808Y-71419818D01*
X122709309Y-71337764D01*
X122428000Y-71310057D01*
X122146692Y-71337764D01*
X121876193Y-71419818D01*
X121626900Y-71553068D01*
X121408393Y-71732392D01*
X121229068Y-71950899D01*
X121158000Y-72083858D01*
X121086932Y-71950899D01*
X120907608Y-71732392D01*
X120689101Y-71553068D01*
X120439808Y-71419818D01*
X120169309Y-71337764D01*
X119888000Y-71310057D01*
X119606692Y-71337764D01*
X119336193Y-71419818D01*
X119086900Y-71553068D01*
X118868393Y-71732392D01*
X118689068Y-71950899D01*
X118555818Y-72200192D01*
X118473764Y-72470691D01*
X118453000Y-72681508D01*
X117525000Y-72681508D01*
X117525000Y-61326665D01*
X118453000Y-61326665D01*
X118453000Y-61609335D01*
X118508147Y-61886574D01*
X118616320Y-62147727D01*
X118773363Y-62382759D01*
X118973241Y-62582637D01*
X119208273Y-62739680D01*
X119469426Y-62847853D01*
X119746665Y-62903000D01*
X119869000Y-62903000D01*
X119869000Y-63093939D01*
X119908774Y-63293898D01*
X119986795Y-63482256D01*
X120100063Y-63651774D01*
X120165697Y-63717408D01*
X119888000Y-63690057D01*
X119606692Y-63717764D01*
X119336193Y-63799818D01*
X119086900Y-63933068D01*
X118868393Y-64112392D01*
X118689068Y-64330899D01*
X118555818Y-64580192D01*
X118473764Y-64850691D01*
X118453000Y-65061508D01*
X118453000Y-66002491D01*
X118473764Y-66213308D01*
X118555818Y-66483807D01*
X118689068Y-66733100D01*
X118868392Y-66951607D01*
X119086899Y-67130932D01*
X119336192Y-67264182D01*
X119606691Y-67346236D01*
X119888000Y-67373943D01*
X120169308Y-67346236D01*
X120264983Y-67317214D01*
X120294651Y-67415015D01*
X120307464Y-67457256D01*
X120378036Y-67589286D01*
X120390092Y-67603976D01*
X120473009Y-67705011D01*
X120502013Y-67728814D01*
X121864201Y-69091003D01*
X121887999Y-69120001D01*
X121916997Y-69143799D01*
X122003723Y-69214974D01*
X122135753Y-69285546D01*
X122279014Y-69329003D01*
X122390667Y-69340000D01*
X122390676Y-69340000D01*
X122427999Y-69343676D01*
X122465322Y-69340000D01*
X124264289Y-69340000D01*
X124308226Y-69383937D01*
X124477744Y-69497205D01*
X124666102Y-69575226D01*
X124866061Y-69615000D01*
X125069939Y-69615000D01*
X125269898Y-69575226D01*
X125458256Y-69497205D01*
X125627774Y-69383937D01*
X125771937Y-69239774D01*
X125885205Y-69070256D01*
X125963226Y-68881898D01*
X126003000Y-68681939D01*
X126003000Y-68599000D01*
X126085939Y-68599000D01*
X126285898Y-68559226D01*
X126474256Y-68481205D01*
X126643774Y-68367937D01*
X126787937Y-68223774D01*
X126901205Y-68054256D01*
X126979226Y-67865898D01*
X127019000Y-67665939D01*
X127019000Y-67462061D01*
X127000702Y-67370072D01*
X128308000Y-67370072D01*
X128432482Y-67357812D01*
X128552180Y-67321502D01*
X128662494Y-67262537D01*
X128758204Y-67183990D01*
X128776320Y-67227727D01*
X128933363Y-67462759D01*
X129133241Y-67662637D01*
X129368273Y-67819680D01*
X129629426Y-67927853D01*
X129906665Y-67983000D01*
X130189335Y-67983000D01*
X130466574Y-67927853D01*
X130727727Y-67819680D01*
X130962759Y-67662637D01*
X131084694Y-67540702D01*
X134234903Y-67540702D01*
X134306486Y-67784671D01*
X134561996Y-67905571D01*
X134836184Y-67974300D01*
X135118512Y-67988217D01*
X135398130Y-67946787D01*
X135664292Y-67851603D01*
X135789514Y-67784671D01*
X135861097Y-67540702D01*
X135048000Y-66727605D01*
X134234903Y-67540702D01*
X131084694Y-67540702D01*
X131162637Y-67462759D01*
X131319680Y-67227727D01*
X131427853Y-66966574D01*
X131483000Y-66689335D01*
X131483000Y-66618512D01*
X133607783Y-66618512D01*
X133649213Y-66898130D01*
X133744397Y-67164292D01*
X133811329Y-67289514D01*
X134055298Y-67361097D01*
X134868395Y-66548000D01*
X134055298Y-65734903D01*
X133811329Y-65806486D01*
X133690429Y-66061996D01*
X133621700Y-66336184D01*
X133607783Y-66618512D01*
X131483000Y-66618512D01*
X131483000Y-66406665D01*
X131427853Y-66129426D01*
X131319680Y-65868273D01*
X131162637Y-65633241D01*
X131084694Y-65555298D01*
X134234903Y-65555298D01*
X135048000Y-66368395D01*
X135861097Y-65555298D01*
X135789514Y-65311329D01*
X135534004Y-65190429D01*
X135259816Y-65121700D01*
X134977488Y-65107783D01*
X134697870Y-65149213D01*
X134431708Y-65244397D01*
X134306486Y-65311329D01*
X134234903Y-65555298D01*
X131084694Y-65555298D01*
X130962759Y-65433363D01*
X130727727Y-65276320D01*
X130466574Y-65168147D01*
X130189335Y-65113000D01*
X129906665Y-65113000D01*
X129629426Y-65168147D01*
X129368273Y-65276320D01*
X129133241Y-65433363D01*
X128946072Y-65620532D01*
X128946072Y-64332000D01*
X128933812Y-64207518D01*
X128897502Y-64087820D01*
X128838537Y-63977506D01*
X128759185Y-63880815D01*
X128662494Y-63801463D01*
X128552180Y-63742498D01*
X128432482Y-63706188D01*
X128308000Y-63693928D01*
X126853010Y-63693928D01*
X126853010Y-63554385D01*
X126901205Y-63482256D01*
X126979226Y-63293898D01*
X127019000Y-63093939D01*
X127019000Y-62890061D01*
X127003527Y-62812273D01*
X127089426Y-62847853D01*
X127366665Y-62903000D01*
X127649335Y-62903000D01*
X127926574Y-62847853D01*
X128187727Y-62739680D01*
X128422759Y-62582637D01*
X128622637Y-62382759D01*
X128778000Y-62150241D01*
X128933363Y-62382759D01*
X129133241Y-62582637D01*
X129368273Y-62739680D01*
X129629426Y-62847853D01*
X129906665Y-62903000D01*
X130189335Y-62903000D01*
X130466574Y-62847853D01*
X130727727Y-62739680D01*
X130962759Y-62582637D01*
X131084694Y-62460702D01*
X134234903Y-62460702D01*
X134306486Y-62704671D01*
X134561996Y-62825571D01*
X134836184Y-62894300D01*
X135118512Y-62908217D01*
X135398130Y-62866787D01*
X135664292Y-62771603D01*
X135789514Y-62704671D01*
X135861097Y-62460702D01*
X135048000Y-61647605D01*
X134234903Y-62460702D01*
X131084694Y-62460702D01*
X131162637Y-62382759D01*
X131319680Y-62147727D01*
X131427853Y-61886574D01*
X131483000Y-61609335D01*
X131483000Y-61538512D01*
X133607783Y-61538512D01*
X133649213Y-61818130D01*
X133744397Y-62084292D01*
X133811329Y-62209514D01*
X134055298Y-62281097D01*
X134868395Y-61468000D01*
X134055298Y-60654903D01*
X133811329Y-60726486D01*
X133690429Y-60981996D01*
X133621700Y-61256184D01*
X133607783Y-61538512D01*
X131483000Y-61538512D01*
X131483000Y-61326665D01*
X131427853Y-61049426D01*
X131319680Y-60788273D01*
X131162637Y-60553241D01*
X131084694Y-60475298D01*
X134234903Y-60475298D01*
X135048000Y-61288395D01*
X135861097Y-60475298D01*
X135789514Y-60231329D01*
X135534004Y-60110429D01*
X135259816Y-60041700D01*
X134977488Y-60027783D01*
X134697870Y-60069213D01*
X134431708Y-60164397D01*
X134306486Y-60231329D01*
X134234903Y-60475298D01*
X131084694Y-60475298D01*
X130962759Y-60353363D01*
X130727727Y-60196320D01*
X130466574Y-60088147D01*
X130189335Y-60033000D01*
X129906665Y-60033000D01*
X129629426Y-60088147D01*
X129368273Y-60196320D01*
X129133241Y-60353363D01*
X128933363Y-60553241D01*
X128778000Y-60785759D01*
X128622637Y-60553241D01*
X128422759Y-60353363D01*
X128187727Y-60196320D01*
X127926574Y-60088147D01*
X127649335Y-60033000D01*
X127366665Y-60033000D01*
X127089426Y-60088147D01*
X126828273Y-60196320D01*
X126593241Y-60353363D01*
X126393363Y-60553241D01*
X126289957Y-60708000D01*
X125513323Y-60708000D01*
X125476000Y-60704324D01*
X125438677Y-60708000D01*
X125438667Y-60708000D01*
X125327014Y-60718997D01*
X125183753Y-60762454D01*
X125051723Y-60833026D01*
X124968083Y-60901668D01*
X124935999Y-60927999D01*
X124912201Y-60956997D01*
X123331988Y-62537211D01*
X123302990Y-62561009D01*
X123279192Y-62590007D01*
X123279191Y-62590008D01*
X123208016Y-62676734D01*
X123137444Y-62808764D01*
X123093988Y-62952025D01*
X123079314Y-63101010D01*
X123082991Y-63138342D01*
X123082991Y-63854970D01*
X122979808Y-63799818D01*
X122709309Y-63717764D01*
X122428000Y-63690057D01*
X122146692Y-63717764D01*
X121876193Y-63799818D01*
X121773010Y-63854971D01*
X121773010Y-63554385D01*
X121821205Y-63482256D01*
X121899226Y-63293898D01*
X121939000Y-63093939D01*
X121939000Y-62890061D01*
X121899226Y-62690102D01*
X121821205Y-62501744D01*
X121707937Y-62332226D01*
X121563774Y-62188063D01*
X121394256Y-62074795D01*
X121219818Y-62002540D01*
X121267853Y-61886574D01*
X121323000Y-61609335D01*
X121323000Y-61326665D01*
X121267853Y-61049426D01*
X121159680Y-60788273D01*
X121002637Y-60553241D01*
X120802759Y-60353363D01*
X120567727Y-60196320D01*
X120306574Y-60088147D01*
X120029335Y-60033000D01*
X119746665Y-60033000D01*
X119469426Y-60088147D01*
X119208273Y-60196320D01*
X118973241Y-60353363D01*
X118773363Y-60553241D01*
X118616320Y-60788273D01*
X118508147Y-61049426D01*
X118453000Y-61326665D01*
X117525000Y-61326665D01*
X117525000Y-58784614D01*
X117597997Y-58857611D01*
X117712107Y-58743501D01*
X117928228Y-59110258D01*
X118388105Y-59350938D01*
X118886098Y-59497275D01*
X119403071Y-59543648D01*
X119919159Y-59488273D01*
X120414526Y-59333279D01*
X120831772Y-59110258D01*
X121047894Y-58743499D01*
X119380000Y-57075605D01*
X119365858Y-57089748D01*
X119186253Y-56910143D01*
X119200395Y-56896000D01*
X119559605Y-56896000D01*
X121227499Y-58563894D01*
X121594258Y-58347772D01*
X121661575Y-58219146D01*
X121731506Y-58276537D01*
X121841820Y-58335502D01*
X121961518Y-58371812D01*
X122086000Y-58384072D01*
X123786000Y-58384072D01*
X123910482Y-58371812D01*
X124030180Y-58335502D01*
X124140494Y-58276537D01*
X124237185Y-58197185D01*
X124316537Y-58100494D01*
X124375502Y-57990180D01*
X124399966Y-57909534D01*
X124475731Y-57993588D01*
X124709080Y-58167641D01*
X124971901Y-58292825D01*
X125119110Y-58337476D01*
X125349000Y-58216155D01*
X125349000Y-57023000D01*
X125603000Y-57023000D01*
X125603000Y-58216155D01*
X125832890Y-58337476D01*
X125980099Y-58292825D01*
X126242920Y-58167641D01*
X126476269Y-57993588D01*
X126671178Y-57777355D01*
X126820157Y-57527252D01*
X126917481Y-57252891D01*
X126796814Y-57023000D01*
X125603000Y-57023000D01*
X125349000Y-57023000D01*
X125329000Y-57023000D01*
X125329000Y-56769000D01*
X125349000Y-56769000D01*
X125349000Y-55575845D01*
X125603000Y-55575845D01*
X125603000Y-56769000D01*
X126796814Y-56769000D01*
X126917481Y-56539109D01*
X126820157Y-56264748D01*
X126689856Y-56046000D01*
X127543928Y-56046000D01*
X127543928Y-57746000D01*
X127556188Y-57870482D01*
X127592498Y-57990180D01*
X127651463Y-58100494D01*
X127730815Y-58197185D01*
X127827506Y-58276537D01*
X127937820Y-58335502D01*
X128057518Y-58371812D01*
X128182000Y-58384072D01*
X129882000Y-58384072D01*
X130006482Y-58371812D01*
X130126180Y-58335502D01*
X130236494Y-58276537D01*
X130333185Y-58197185D01*
X130412537Y-58100494D01*
X130471502Y-57990180D01*
X130495966Y-57909534D01*
X130571731Y-57993588D01*
X130805080Y-58167641D01*
X131067901Y-58292825D01*
X131215110Y-58337476D01*
X131445000Y-58216155D01*
X131445000Y-57023000D01*
X131699000Y-57023000D01*
X131699000Y-58216155D01*
X131928890Y-58337476D01*
X132076099Y-58292825D01*
X132338920Y-58167641D01*
X132572269Y-57993588D01*
X132767178Y-57777355D01*
X132916157Y-57527252D01*
X133013481Y-57252891D01*
X132892814Y-57023000D01*
X131699000Y-57023000D01*
X131445000Y-57023000D01*
X131425000Y-57023000D01*
X131425000Y-56769000D01*
X131445000Y-56769000D01*
X131445000Y-55575845D01*
X131699000Y-55575845D01*
X131699000Y-56769000D01*
X132892814Y-56769000D01*
X133013481Y-56539109D01*
X132916157Y-56264748D01*
X132767178Y-56014645D01*
X132572269Y-55798412D01*
X132338920Y-55624359D01*
X132076099Y-55499175D01*
X131928890Y-55454524D01*
X131699000Y-55575845D01*
X131445000Y-55575845D01*
X131215110Y-55454524D01*
X131067901Y-55499175D01*
X130805080Y-55624359D01*
X130571731Y-55798412D01*
X130495966Y-55882466D01*
X130471502Y-55801820D01*
X130412537Y-55691506D01*
X130333185Y-55594815D01*
X130236494Y-55515463D01*
X130126180Y-55456498D01*
X130006482Y-55420188D01*
X129882000Y-55407928D01*
X128182000Y-55407928D01*
X128057518Y-55420188D01*
X127937820Y-55456498D01*
X127827506Y-55515463D01*
X127730815Y-55594815D01*
X127651463Y-55691506D01*
X127592498Y-55801820D01*
X127556188Y-55921518D01*
X127543928Y-56046000D01*
X126689856Y-56046000D01*
X126671178Y-56014645D01*
X126476269Y-55798412D01*
X126242920Y-55624359D01*
X125980099Y-55499175D01*
X125832890Y-55454524D01*
X125603000Y-55575845D01*
X125349000Y-55575845D01*
X125119110Y-55454524D01*
X124971901Y-55499175D01*
X124709080Y-55624359D01*
X124475731Y-55798412D01*
X124399966Y-55882466D01*
X124375502Y-55801820D01*
X124316537Y-55691506D01*
X124237185Y-55594815D01*
X124140494Y-55515463D01*
X124030180Y-55456498D01*
X123910482Y-55420188D01*
X123786000Y-55407928D01*
X122086000Y-55407928D01*
X121961518Y-55420188D01*
X121841820Y-55456498D01*
X121731506Y-55515463D01*
X121662572Y-55572035D01*
X121594258Y-55444228D01*
X121227499Y-55228106D01*
X119559605Y-56896000D01*
X119200395Y-56896000D01*
X119186253Y-56881858D01*
X119365858Y-56702253D01*
X119380000Y-56716395D01*
X121047894Y-55048501D01*
X120916190Y-54825000D01*
X136155000Y-54825000D01*
X136155000Y-60688439D01*
%TA.AperFunction,Conductor*%
D26*
G36*
X136155000Y-60688439D02*
G01*
X136040702Y-60654903D01*
X135227605Y-61468000D01*
X136040702Y-62281097D01*
X136155000Y-62247561D01*
X136155000Y-65768439D01*
X136040702Y-65734903D01*
X135227605Y-66548000D01*
X136040702Y-67361097D01*
X136155000Y-67327561D01*
X136155000Y-71356439D01*
X136040702Y-71322903D01*
X135227605Y-72136000D01*
X136040702Y-72949097D01*
X136155000Y-72915561D01*
X136155001Y-98523310D01*
X135959499Y-98408106D01*
X134291605Y-100076000D01*
X135959499Y-101743894D01*
X136155001Y-101628690D01*
X136155001Y-103455000D01*
X117525000Y-103455000D01*
X117525000Y-100242000D01*
X118399928Y-100242000D01*
X118399928Y-101942000D01*
X118412188Y-102066482D01*
X118448498Y-102186180D01*
X118507463Y-102296494D01*
X118586815Y-102393185D01*
X118683506Y-102472537D01*
X118793820Y-102531502D01*
X118913518Y-102567812D01*
X119038000Y-102580072D01*
X120738000Y-102580072D01*
X120862482Y-102567812D01*
X120982180Y-102531502D01*
X121092494Y-102472537D01*
X121189185Y-102393185D01*
X121268537Y-102296494D01*
X121327502Y-102186180D01*
X121351966Y-102105534D01*
X121427731Y-102189588D01*
X121661080Y-102363641D01*
X121923901Y-102488825D01*
X122071110Y-102533476D01*
X122301000Y-102412155D01*
X122301000Y-101219000D01*
X122555000Y-101219000D01*
X122555000Y-102412155D01*
X122784890Y-102533476D01*
X122932099Y-102488825D01*
X123194920Y-102363641D01*
X123428269Y-102189588D01*
X123623178Y-101973355D01*
X123698000Y-101847745D01*
X123772822Y-101973355D01*
X123967731Y-102189588D01*
X124201080Y-102363641D01*
X124463901Y-102488825D01*
X124611110Y-102533476D01*
X124841000Y-102412155D01*
X124841000Y-101219000D01*
X125095000Y-101219000D01*
X125095000Y-102412155D01*
X125324890Y-102533476D01*
X125472099Y-102488825D01*
X125734920Y-102363641D01*
X125968269Y-102189588D01*
X126163178Y-101973355D01*
X126238000Y-101847745D01*
X126312822Y-101973355D01*
X126507731Y-102189588D01*
X126741080Y-102363641D01*
X127003901Y-102488825D01*
X127151110Y-102533476D01*
X127381000Y-102412155D01*
X127381000Y-101219000D01*
X125095000Y-101219000D01*
X124841000Y-101219000D01*
X122555000Y-101219000D01*
X122301000Y-101219000D01*
X122281000Y-101219000D01*
X122281000Y-100965000D01*
X122301000Y-100965000D01*
X122301000Y-98679000D01*
X122555000Y-98679000D01*
X122555000Y-100965000D01*
X124841000Y-100965000D01*
X124841000Y-98679000D01*
X125095000Y-98679000D01*
X125095000Y-100965000D01*
X127381000Y-100965000D01*
X127381000Y-98679000D01*
X125095000Y-98679000D01*
X124841000Y-98679000D01*
X122555000Y-98679000D01*
X122301000Y-98679000D01*
X122281000Y-98679000D01*
X122281000Y-98425000D01*
X122301000Y-98425000D01*
X122301000Y-97231845D01*
X122555000Y-97231845D01*
X122555000Y-98425000D01*
X124841000Y-98425000D01*
X124841000Y-97231845D01*
X125095000Y-97231845D01*
X125095000Y-98425000D01*
X127381000Y-98425000D01*
X127381000Y-97231845D01*
X127635000Y-97231845D01*
X127635000Y-98425000D01*
X127655000Y-98425000D01*
X127655000Y-98679000D01*
X127635000Y-98679000D01*
X127635000Y-100965000D01*
X127655000Y-100965000D01*
X127655000Y-101219000D01*
X127635000Y-101219000D01*
X127635000Y-102412155D01*
X127864890Y-102533476D01*
X128012099Y-102488825D01*
X128274920Y-102363641D01*
X128508269Y-102189588D01*
X128703178Y-101973355D01*
X128772805Y-101856466D01*
X128894525Y-102038632D01*
X129101368Y-102245475D01*
X129344589Y-102407990D01*
X129614842Y-102519932D01*
X129901740Y-102577000D01*
X130194260Y-102577000D01*
X130481158Y-102519932D01*
X130751411Y-102407990D01*
X130994632Y-102245475D01*
X131201475Y-102038632D01*
X131278404Y-101923499D01*
X132444106Y-101923499D01*
X132660228Y-102290258D01*
X133120105Y-102530938D01*
X133618098Y-102677275D01*
X134135071Y-102723648D01*
X134651159Y-102668273D01*
X135146526Y-102513279D01*
X135563772Y-102290258D01*
X135779894Y-101923499D01*
X134112000Y-100255605D01*
X132444106Y-101923499D01*
X131278404Y-101923499D01*
X131363990Y-101795411D01*
X131475932Y-101525158D01*
X131533000Y-101238260D01*
X131533000Y-100945740D01*
X131475932Y-100658842D01*
X131363990Y-100388589D01*
X131201475Y-100145368D01*
X131155178Y-100099071D01*
X131464352Y-100099071D01*
X131519727Y-100615159D01*
X131674721Y-101110526D01*
X131897742Y-101527772D01*
X132264501Y-101743894D01*
X133932395Y-100076000D01*
X132264501Y-98408106D01*
X131897742Y-98624228D01*
X131657062Y-99084105D01*
X131510725Y-99582098D01*
X131464352Y-100099071D01*
X131155178Y-100099071D01*
X130994632Y-99938525D01*
X130820240Y-99822000D01*
X130994632Y-99705475D01*
X131201475Y-99498632D01*
X131363990Y-99255411D01*
X131475932Y-98985158D01*
X131533000Y-98698260D01*
X131533000Y-98405740D01*
X131497745Y-98228501D01*
X132444106Y-98228501D01*
X134112000Y-99896395D01*
X135779894Y-98228501D01*
X135563772Y-97861742D01*
X135103895Y-97621062D01*
X134605902Y-97474725D01*
X134088929Y-97428352D01*
X133572841Y-97483727D01*
X133077474Y-97638721D01*
X132660228Y-97861742D01*
X132444106Y-98228501D01*
X131497745Y-98228501D01*
X131475932Y-98118842D01*
X131363990Y-97848589D01*
X131201475Y-97605368D01*
X130994632Y-97398525D01*
X130751411Y-97236010D01*
X130481158Y-97124068D01*
X130194260Y-97067000D01*
X129901740Y-97067000D01*
X129614842Y-97124068D01*
X129344589Y-97236010D01*
X129101368Y-97398525D01*
X128894525Y-97605368D01*
X128772805Y-97787534D01*
X128703178Y-97670645D01*
X128508269Y-97454412D01*
X128274920Y-97280359D01*
X128012099Y-97155175D01*
X127864890Y-97110524D01*
X127635000Y-97231845D01*
X127381000Y-97231845D01*
X127151110Y-97110524D01*
X127003901Y-97155175D01*
X126741080Y-97280359D01*
X126507731Y-97454412D01*
X126312822Y-97670645D01*
X126238000Y-97796255D01*
X126163178Y-97670645D01*
X125968269Y-97454412D01*
X125734920Y-97280359D01*
X125472099Y-97155175D01*
X125324890Y-97110524D01*
X125095000Y-97231845D01*
X124841000Y-97231845D01*
X124611110Y-97110524D01*
X124463901Y-97155175D01*
X124201080Y-97280359D01*
X123967731Y-97454412D01*
X123772822Y-97670645D01*
X123698000Y-97796255D01*
X123623178Y-97670645D01*
X123428269Y-97454412D01*
X123194920Y-97280359D01*
X122932099Y-97155175D01*
X122784890Y-97110524D01*
X122555000Y-97231845D01*
X122301000Y-97231845D01*
X122071110Y-97110524D01*
X121923901Y-97155175D01*
X121661080Y-97280359D01*
X121427731Y-97454412D01*
X121232822Y-97670645D01*
X121163195Y-97787534D01*
X121041475Y-97605368D01*
X120834632Y-97398525D01*
X120591411Y-97236010D01*
X120321158Y-97124068D01*
X120034260Y-97067000D01*
X119741740Y-97067000D01*
X119454842Y-97124068D01*
X119184589Y-97236010D01*
X118941368Y-97398525D01*
X118734525Y-97605368D01*
X118572010Y-97848589D01*
X118460068Y-98118842D01*
X118403000Y-98405740D01*
X118403000Y-98698260D01*
X118460068Y-98985158D01*
X118572010Y-99255411D01*
X118734525Y-99498632D01*
X118866380Y-99630487D01*
X118793820Y-99652498D01*
X118683506Y-99711463D01*
X118586815Y-99790815D01*
X118507463Y-99887506D01*
X118448498Y-99997820D01*
X118412188Y-100117518D01*
X118399928Y-100242000D01*
X117525000Y-100242000D01*
X117525000Y-91656000D01*
X117941928Y-91656000D01*
X117941928Y-93256000D01*
X117954188Y-93380482D01*
X117990498Y-93500180D01*
X118049463Y-93610494D01*
X118128815Y-93707185D01*
X118225506Y-93786537D01*
X118335820Y-93845502D01*
X118455518Y-93881812D01*
X118580000Y-93894072D01*
X120180000Y-93894072D01*
X120304482Y-93881812D01*
X120424180Y-93845502D01*
X120534494Y-93786537D01*
X120631185Y-93707185D01*
X120710537Y-93610494D01*
X120769502Y-93500180D01*
X120785117Y-93448702D01*
X121066903Y-93448702D01*
X121138486Y-93692671D01*
X121393996Y-93813571D01*
X121668184Y-93882300D01*
X121950512Y-93896217D01*
X122230130Y-93854787D01*
X122496292Y-93759603D01*
X122621514Y-93692671D01*
X122693097Y-93448702D01*
X126186903Y-93448702D01*
X126258486Y-93692671D01*
X126513996Y-93813571D01*
X126788184Y-93882300D01*
X127070512Y-93896217D01*
X127350130Y-93854787D01*
X127616292Y-93759603D01*
X127741514Y-93692671D01*
X127813097Y-93448702D01*
X127000000Y-92635605D01*
X126186903Y-93448702D01*
X122693097Y-93448702D01*
X121880000Y-92635605D01*
X121066903Y-93448702D01*
X120785117Y-93448702D01*
X120805812Y-93380482D01*
X120818072Y-93256000D01*
X120818072Y-93248785D01*
X120887298Y-93269097D01*
X121700395Y-92456000D01*
X122059605Y-92456000D01*
X122872702Y-93269097D01*
X123116671Y-93197514D01*
X123237571Y-92942004D01*
X123306300Y-92667816D01*
X123313265Y-92526512D01*
X125559783Y-92526512D01*
X125601213Y-92806130D01*
X125696397Y-93072292D01*
X125763329Y-93197514D01*
X126007298Y-93269097D01*
X126820395Y-92456000D01*
X127179605Y-92456000D01*
X127992702Y-93269097D01*
X128061928Y-93248785D01*
X128061928Y-93256000D01*
X128074188Y-93380482D01*
X128110498Y-93500180D01*
X128169463Y-93610494D01*
X128248815Y-93707185D01*
X128345506Y-93786537D01*
X128455820Y-93845502D01*
X128575518Y-93881812D01*
X128700000Y-93894072D01*
X130300000Y-93894072D01*
X130424482Y-93881812D01*
X130544180Y-93845502D01*
X130654494Y-93786537D01*
X130751185Y-93707185D01*
X130830537Y-93610494D01*
X130889502Y-93500180D01*
X130925812Y-93380482D01*
X130931203Y-93325740D01*
X133135000Y-93325740D01*
X133135000Y-93618260D01*
X133192068Y-93905158D01*
X133304010Y-94175411D01*
X133466525Y-94418632D01*
X133673368Y-94625475D01*
X133916589Y-94787990D01*
X134186842Y-94899932D01*
X134473740Y-94957000D01*
X134766260Y-94957000D01*
X135053158Y-94899932D01*
X135323411Y-94787990D01*
X135566632Y-94625475D01*
X135773475Y-94418632D01*
X135935990Y-94175411D01*
X136047932Y-93905158D01*
X136105000Y-93618260D01*
X136105000Y-93325740D01*
X136047932Y-93038842D01*
X135935990Y-92768589D01*
X135773475Y-92525368D01*
X135566632Y-92318525D01*
X135384466Y-92196805D01*
X135501355Y-92127178D01*
X135717588Y-91932269D01*
X135891641Y-91698920D01*
X136016825Y-91436099D01*
X136061476Y-91288890D01*
X135940155Y-91059000D01*
X134747000Y-91059000D01*
X134747000Y-91079000D01*
X134493000Y-91079000D01*
X134493000Y-91059000D01*
X133299845Y-91059000D01*
X133178524Y-91288890D01*
X133223175Y-91436099D01*
X133348359Y-91698920D01*
X133522412Y-91932269D01*
X133738645Y-92127178D01*
X133855534Y-92196805D01*
X133673368Y-92318525D01*
X133466525Y-92525368D01*
X133304010Y-92768589D01*
X133192068Y-93038842D01*
X133135000Y-93325740D01*
X130931203Y-93325740D01*
X130938072Y-93256000D01*
X130938072Y-91656000D01*
X130925812Y-91531518D01*
X130889502Y-91411820D01*
X130830537Y-91301506D01*
X130751185Y-91204815D01*
X130654494Y-91125463D01*
X130544180Y-91066498D01*
X130424482Y-91030188D01*
X130385000Y-91026299D01*
X130385000Y-88798578D01*
X130801044Y-88382535D01*
X130857898Y-88371226D01*
X131046256Y-88293205D01*
X131215774Y-88179937D01*
X131359937Y-88035774D01*
X131473205Y-87866256D01*
X131551226Y-87677898D01*
X131578257Y-87542000D01*
X133131928Y-87542000D01*
X133131928Y-89242000D01*
X133144188Y-89366482D01*
X133180498Y-89486180D01*
X133239463Y-89596494D01*
X133318815Y-89693185D01*
X133415506Y-89772537D01*
X133525820Y-89831502D01*
X133606466Y-89855966D01*
X133522412Y-89931731D01*
X133348359Y-90165080D01*
X133223175Y-90427901D01*
X133178524Y-90575110D01*
X133299845Y-90805000D01*
X134493000Y-90805000D01*
X134493000Y-90785000D01*
X134747000Y-90785000D01*
X134747000Y-90805000D01*
X135940155Y-90805000D01*
X136061476Y-90575110D01*
X136016825Y-90427901D01*
X135891641Y-90165080D01*
X135717588Y-89931731D01*
X135633534Y-89855966D01*
X135714180Y-89831502D01*
X135824494Y-89772537D01*
X135921185Y-89693185D01*
X136000537Y-89596494D01*
X136059502Y-89486180D01*
X136095812Y-89366482D01*
X136108072Y-89242000D01*
X136108072Y-87542000D01*
X136095812Y-87417518D01*
X136059502Y-87297820D01*
X136000537Y-87187506D01*
X135921185Y-87090815D01*
X135824494Y-87011463D01*
X135714180Y-86952498D01*
X135594482Y-86916188D01*
X135470000Y-86903928D01*
X133770000Y-86903928D01*
X133645518Y-86916188D01*
X133525820Y-86952498D01*
X133415506Y-87011463D01*
X133318815Y-87090815D01*
X133239463Y-87187506D01*
X133180498Y-87297820D01*
X133144188Y-87417518D01*
X133131928Y-87542000D01*
X131578257Y-87542000D01*
X131591000Y-87477939D01*
X131591000Y-87274061D01*
X131551226Y-87074102D01*
X131473205Y-86885744D01*
X131359937Y-86716226D01*
X131215774Y-86572063D01*
X131046256Y-86458795D01*
X130857898Y-86380774D01*
X130657939Y-86341000D01*
X130454061Y-86341000D01*
X130254102Y-86380774D01*
X130065744Y-86458795D01*
X129896226Y-86572063D01*
X129752063Y-86716226D01*
X129638795Y-86885744D01*
X129560774Y-87074102D01*
X129549465Y-87130956D01*
X128904956Y-87775466D01*
X128871183Y-87803183D01*
X128760589Y-87937942D01*
X128678411Y-88091688D01*
X128627805Y-88258511D01*
X128615000Y-88388524D01*
X128615000Y-88388531D01*
X128610719Y-88432000D01*
X128615000Y-88475469D01*
X128615001Y-91026299D01*
X128575518Y-91030188D01*
X128455820Y-91066498D01*
X128345506Y-91125463D01*
X128248815Y-91204815D01*
X128169463Y-91301506D01*
X128110498Y-91411820D01*
X128074188Y-91531518D01*
X128061928Y-91656000D01*
X128061928Y-91663215D01*
X127992702Y-91642903D01*
X127179605Y-92456000D01*
X126820395Y-92456000D01*
X126007298Y-91642903D01*
X125763329Y-91714486D01*
X125642429Y-91969996D01*
X125573700Y-92244184D01*
X125559783Y-92526512D01*
X123313265Y-92526512D01*
X123320217Y-92385488D01*
X123278787Y-92105870D01*
X123183603Y-91839708D01*
X123116671Y-91714486D01*
X122872702Y-91642903D01*
X122059605Y-92456000D01*
X121700395Y-92456000D01*
X120887298Y-91642903D01*
X120818072Y-91663215D01*
X120818072Y-91656000D01*
X120805812Y-91531518D01*
X120785118Y-91463298D01*
X121066903Y-91463298D01*
X121880000Y-92276395D01*
X122693097Y-91463298D01*
X126186903Y-91463298D01*
X127000000Y-92276395D01*
X127813097Y-91463298D01*
X127741514Y-91219329D01*
X127486004Y-91098429D01*
X127211816Y-91029700D01*
X126929488Y-91015783D01*
X126649870Y-91057213D01*
X126383708Y-91152397D01*
X126258486Y-91219329D01*
X126186903Y-91463298D01*
X122693097Y-91463298D01*
X122621514Y-91219329D01*
X122366004Y-91098429D01*
X122091816Y-91029700D01*
X121809488Y-91015783D01*
X121529870Y-91057213D01*
X121263708Y-91152397D01*
X121138486Y-91219329D01*
X121066903Y-91463298D01*
X120785118Y-91463298D01*
X120769502Y-91411820D01*
X120710537Y-91301506D01*
X120631185Y-91204815D01*
X120534494Y-91125463D01*
X120424180Y-91066498D01*
X120304482Y-91030188D01*
X120180000Y-91017928D01*
X118580000Y-91017928D01*
X118455518Y-91030188D01*
X118335820Y-91066498D01*
X118225506Y-91125463D01*
X118128815Y-91204815D01*
X118049463Y-91301506D01*
X117990498Y-91411820D01*
X117954188Y-91531518D01*
X117941928Y-91656000D01*
X117525000Y-91656000D01*
X117525000Y-83380003D01*
X117609173Y-83482568D01*
X117642946Y-83510285D01*
X118246743Y-84114083D01*
X118155818Y-84284192D01*
X118073764Y-84554691D01*
X118046057Y-84836000D01*
X118073764Y-85117309D01*
X118155818Y-85387808D01*
X118289068Y-85637101D01*
X118468392Y-85855608D01*
X118686899Y-86034932D01*
X118936192Y-86168182D01*
X119206691Y-86250236D01*
X119417508Y-86271000D01*
X120358492Y-86271000D01*
X120569309Y-86250236D01*
X120839808Y-86168182D01*
X121089101Y-86034932D01*
X121307608Y-85855608D01*
X121486932Y-85637101D01*
X121620182Y-85387808D01*
X121702236Y-85117309D01*
X121729943Y-84836000D01*
X121702236Y-84554691D01*
X121676846Y-84470990D01*
X125719154Y-84470990D01*
X125693764Y-84554691D01*
X125666057Y-84836000D01*
X125693764Y-85117309D01*
X125775818Y-85387808D01*
X125909068Y-85637101D01*
X126088392Y-85855608D01*
X126306899Y-86034932D01*
X126556192Y-86168182D01*
X126826691Y-86250236D01*
X127037508Y-86271000D01*
X127978492Y-86271000D01*
X128189309Y-86250236D01*
X128459808Y-86168182D01*
X128709101Y-86034932D01*
X128927608Y-85855608D01*
X129106932Y-85637101D01*
X129240182Y-85387808D01*
X129322236Y-85117309D01*
X129349943Y-84836000D01*
X129322236Y-84554691D01*
X129296846Y-84470990D01*
X130580415Y-84470990D01*
X130706155Y-84706235D01*
X130904537Y-84947963D01*
X131146265Y-85146345D01*
X131422051Y-85293755D01*
X131721296Y-85384530D01*
X131954514Y-85407500D01*
X132205486Y-85407500D01*
X132438704Y-85384530D01*
X132737949Y-85293755D01*
X133013735Y-85146345D01*
X133255463Y-84947963D01*
X133453845Y-84706235D01*
X133601255Y-84430449D01*
X133692030Y-84131204D01*
X133722681Y-83820000D01*
X133692030Y-83508796D01*
X133601255Y-83209551D01*
X133453845Y-82933765D01*
X133255463Y-82692037D01*
X133076101Y-82544837D01*
X133261315Y-82389437D01*
X133455969Y-82146923D01*
X133599571Y-81871094D01*
X133670563Y-81652980D01*
X133550594Y-81407000D01*
X132207000Y-81407000D01*
X132207000Y-81427000D01*
X131953000Y-81427000D01*
X131953000Y-81407000D01*
X130609406Y-81407000D01*
X130489437Y-81652980D01*
X130560429Y-81871094D01*
X130704031Y-82146923D01*
X130898685Y-82389437D01*
X131083899Y-82544837D01*
X130904537Y-82692037D01*
X130897189Y-82700990D01*
X129284718Y-82700990D01*
X129322236Y-82577309D01*
X129349943Y-82296000D01*
X129322236Y-82014691D01*
X129240182Y-81744192D01*
X129106932Y-81494899D01*
X128927608Y-81276392D01*
X128709101Y-81097068D01*
X128576142Y-81026000D01*
X128709101Y-80954932D01*
X128927608Y-80775608D01*
X129106932Y-80557101D01*
X129240182Y-80307808D01*
X129322236Y-80037309D01*
X129349943Y-79756000D01*
X129322236Y-79474691D01*
X129240182Y-79204192D01*
X129106932Y-78954899D01*
X128927608Y-78736392D01*
X128709101Y-78557068D01*
X128581259Y-78488735D01*
X128810839Y-78338601D01*
X129012500Y-78140895D01*
X129171715Y-77907646D01*
X129222881Y-77787500D01*
X130441928Y-77787500D01*
X130441928Y-79692500D01*
X130454188Y-79816982D01*
X130490498Y-79936680D01*
X130549463Y-80046994D01*
X130628815Y-80143685D01*
X130725506Y-80223037D01*
X130817219Y-80272059D01*
X130704031Y-80413077D01*
X130560429Y-80688906D01*
X130489437Y-80907020D01*
X130609406Y-81153000D01*
X131953000Y-81153000D01*
X131953000Y-81133000D01*
X132207000Y-81133000D01*
X132207000Y-81153000D01*
X133550594Y-81153000D01*
X133670563Y-80907020D01*
X133599571Y-80688906D01*
X133455969Y-80413077D01*
X133342781Y-80272059D01*
X133434494Y-80223037D01*
X133531185Y-80143685D01*
X133610537Y-80046994D01*
X133669502Y-79936680D01*
X133705812Y-79816982D01*
X133718072Y-79692500D01*
X133718072Y-77787500D01*
X133705812Y-77663018D01*
X133669502Y-77543320D01*
X133610537Y-77433006D01*
X133531185Y-77336315D01*
X133434494Y-77256963D01*
X133324180Y-77197998D01*
X133204482Y-77161688D01*
X133080000Y-77149428D01*
X131080000Y-77149428D01*
X130955518Y-77161688D01*
X130835820Y-77197998D01*
X130725506Y-77256963D01*
X130628815Y-77336315D01*
X130549463Y-77433006D01*
X130490498Y-77543320D01*
X130454188Y-77663018D01*
X130441928Y-77787500D01*
X129222881Y-77787500D01*
X129282367Y-77647818D01*
X129299904Y-77565039D01*
X129177915Y-77343000D01*
X127635000Y-77343000D01*
X127635000Y-77363000D01*
X127381000Y-77363000D01*
X127381000Y-77343000D01*
X125838085Y-77343000D01*
X125716096Y-77565039D01*
X125733633Y-77647818D01*
X125844285Y-77907646D01*
X126003500Y-78140895D01*
X126205161Y-78338601D01*
X126434741Y-78488735D01*
X126306899Y-78557068D01*
X126088392Y-78736392D01*
X125909068Y-78954899D01*
X125775818Y-79204192D01*
X125693764Y-79474691D01*
X125666057Y-79756000D01*
X125693764Y-80037309D01*
X125775818Y-80307808D01*
X125909068Y-80557101D01*
X126088392Y-80775608D01*
X126306899Y-80954932D01*
X126439858Y-81026000D01*
X126306899Y-81097068D01*
X126088392Y-81276392D01*
X125909068Y-81494899D01*
X125775818Y-81744192D01*
X125693764Y-82014691D01*
X125666057Y-82296000D01*
X125693764Y-82577309D01*
X125731282Y-82700990D01*
X121664718Y-82700990D01*
X121702236Y-82577309D01*
X121729943Y-82296000D01*
X121702236Y-82014691D01*
X121620182Y-81744192D01*
X121486932Y-81494899D01*
X121307608Y-81276392D01*
X121089101Y-81097068D01*
X120956142Y-81026000D01*
X121089101Y-80954932D01*
X121307608Y-80775608D01*
X121486932Y-80557101D01*
X121620182Y-80307808D01*
X121702236Y-80037309D01*
X121729943Y-79756000D01*
X121702236Y-79474691D01*
X121620182Y-79204192D01*
X121486932Y-78954899D01*
X121307608Y-78736392D01*
X121194518Y-78643581D01*
X121212482Y-78641812D01*
X121332180Y-78605502D01*
X121442494Y-78546537D01*
X121539185Y-78467185D01*
X121618537Y-78370494D01*
X121677502Y-78260180D01*
X121713812Y-78140482D01*
X121726072Y-78016000D01*
X121726072Y-76866961D01*
X125716096Y-76866961D01*
X125838085Y-77089000D01*
X127381000Y-77089000D01*
X127381000Y-75781000D01*
X127635000Y-75781000D01*
X127635000Y-77089000D01*
X129177915Y-77089000D01*
X129299904Y-76866961D01*
X129282367Y-76784182D01*
X129171715Y-76524354D01*
X129012500Y-76291105D01*
X128810839Y-76093399D01*
X128574483Y-75938834D01*
X128312514Y-75833350D01*
X128035000Y-75781000D01*
X127635000Y-75781000D01*
X127381000Y-75781000D01*
X126981000Y-75781000D01*
X126703486Y-75833350D01*
X126441517Y-75938834D01*
X126205161Y-76093399D01*
X126003500Y-76291105D01*
X125844285Y-76524354D01*
X125733633Y-76784182D01*
X125716096Y-76866961D01*
X121726072Y-76866961D01*
X121726072Y-76416000D01*
X121713812Y-76291518D01*
X121677502Y-76171820D01*
X121618537Y-76061506D01*
X121539185Y-75964815D01*
X121442494Y-75885463D01*
X121332180Y-75826498D01*
X121212482Y-75790188D01*
X121088000Y-75777928D01*
X118688000Y-75777928D01*
X118563518Y-75790188D01*
X118443820Y-75826498D01*
X118333506Y-75885463D01*
X118236815Y-75964815D01*
X118157463Y-76061506D01*
X118098498Y-76171820D01*
X118062188Y-76291518D01*
X118049928Y-76416000D01*
X118049928Y-77802494D01*
X117642941Y-78209481D01*
X117609174Y-78237193D01*
X117581461Y-78270961D01*
X117581458Y-78270964D01*
X117525000Y-78339758D01*
X117525000Y-72681508D01*
X118453000Y-72681508D01*
X118453000Y-73622491D01*
X118473764Y-73833308D01*
X118555818Y-74103807D01*
X118689068Y-74353100D01*
X118868392Y-74571607D01*
X119086899Y-74750932D01*
X119336192Y-74884182D01*
X119606691Y-74966236D01*
X119888000Y-74993943D01*
X120169308Y-74966236D01*
X120439807Y-74884182D01*
X120689100Y-74750932D01*
X120907607Y-74571608D01*
X121086932Y-74353101D01*
X121158000Y-74220142D01*
X121229068Y-74353100D01*
X121408392Y-74571607D01*
X121626899Y-74750932D01*
X121876192Y-74884182D01*
X122146691Y-74966236D01*
X122428000Y-74993943D01*
X122709308Y-74966236D01*
X122979807Y-74884182D01*
X123229100Y-74750932D01*
X123447607Y-74571608D01*
X123626932Y-74353101D01*
X123698000Y-74220142D01*
X123769068Y-74353100D01*
X123948392Y-74571607D01*
X124166899Y-74750932D01*
X124416192Y-74884182D01*
X124686691Y-74966236D01*
X124968000Y-74993943D01*
X125249308Y-74966236D01*
X125519807Y-74884182D01*
X125769100Y-74750932D01*
X125987607Y-74571608D01*
X126166932Y-74353101D01*
X126238000Y-74220142D01*
X126309068Y-74353100D01*
X126488392Y-74571607D01*
X126706899Y-74750932D01*
X126956192Y-74884182D01*
X127226691Y-74966236D01*
X127508000Y-74993943D01*
X127789308Y-74966236D01*
X128059807Y-74884182D01*
X128309100Y-74750932D01*
X128527607Y-74571608D01*
X128706932Y-74353101D01*
X128840182Y-74103808D01*
X128922236Y-73833309D01*
X128943000Y-73622492D01*
X128943000Y-73060396D01*
X129133241Y-73250637D01*
X129368273Y-73407680D01*
X129629426Y-73515853D01*
X129906665Y-73571000D01*
X130189335Y-73571000D01*
X130466574Y-73515853D01*
X130727727Y-73407680D01*
X130962759Y-73250637D01*
X131084694Y-73128702D01*
X134234903Y-73128702D01*
X134306486Y-73372671D01*
X134561996Y-73493571D01*
X134836184Y-73562300D01*
X135118512Y-73576217D01*
X135398130Y-73534787D01*
X135664292Y-73439603D01*
X135789514Y-73372671D01*
X135861097Y-73128702D01*
X135048000Y-72315605D01*
X134234903Y-73128702D01*
X131084694Y-73128702D01*
X131162637Y-73050759D01*
X131319680Y-72815727D01*
X131427853Y-72554574D01*
X131483000Y-72277335D01*
X131483000Y-72206512D01*
X133607783Y-72206512D01*
X133649213Y-72486130D01*
X133744397Y-72752292D01*
X133811329Y-72877514D01*
X134055298Y-72949097D01*
X134868395Y-72136000D01*
X134055298Y-71322903D01*
X133811329Y-71394486D01*
X133690429Y-71649996D01*
X133621700Y-71924184D01*
X133607783Y-72206512D01*
X131483000Y-72206512D01*
X131483000Y-71994665D01*
X131427853Y-71717426D01*
X131319680Y-71456273D01*
X131162637Y-71221241D01*
X131084694Y-71143298D01*
X134234903Y-71143298D01*
X135048000Y-71956395D01*
X135861097Y-71143298D01*
X135789514Y-70899329D01*
X135534004Y-70778429D01*
X135259816Y-70709700D01*
X134977488Y-70695783D01*
X134697870Y-70737213D01*
X134431708Y-70832397D01*
X134306486Y-70899329D01*
X134234903Y-71143298D01*
X131084694Y-71143298D01*
X130962759Y-71021363D01*
X130727727Y-70864320D01*
X130466574Y-70756147D01*
X130189335Y-70701000D01*
X129906665Y-70701000D01*
X129629426Y-70756147D01*
X129368273Y-70864320D01*
X129133241Y-71021363D01*
X128933363Y-71221241D01*
X128776320Y-71456273D01*
X128668147Y-71717426D01*
X128638333Y-71867311D01*
X128527608Y-71732392D01*
X128309101Y-71553068D01*
X128059808Y-71419818D01*
X127789309Y-71337764D01*
X127508000Y-71310057D01*
X127226692Y-71337764D01*
X126956193Y-71419818D01*
X126706900Y-71553068D01*
X126488393Y-71732392D01*
X126309068Y-71950899D01*
X126238000Y-72083858D01*
X126166932Y-71950899D01*
X125987608Y-71732392D01*
X125769101Y-71553068D01*
X125519808Y-71419818D01*
X125249309Y-71337764D01*
X124968000Y-71310057D01*
X124686692Y-71337764D01*
X124416193Y-71419818D01*
X124166900Y-71553068D01*
X123948393Y-71732392D01*
X123769068Y-71950899D01*
X123698000Y-72083858D01*
X123626932Y-71950899D01*
X123447608Y-71732392D01*
X123229101Y-71553068D01*
X122979808Y-71419818D01*
X122709309Y-71337764D01*
X122428000Y-71310057D01*
X122146692Y-71337764D01*
X121876193Y-71419818D01*
X121626900Y-71553068D01*
X121408393Y-71732392D01*
X121229068Y-71950899D01*
X121158000Y-72083858D01*
X121086932Y-71950899D01*
X120907608Y-71732392D01*
X120689101Y-71553068D01*
X120439808Y-71419818D01*
X120169309Y-71337764D01*
X119888000Y-71310057D01*
X119606692Y-71337764D01*
X119336193Y-71419818D01*
X119086900Y-71553068D01*
X118868393Y-71732392D01*
X118689068Y-71950899D01*
X118555818Y-72200192D01*
X118473764Y-72470691D01*
X118453000Y-72681508D01*
X117525000Y-72681508D01*
X117525000Y-61326665D01*
X118453000Y-61326665D01*
X118453000Y-61609335D01*
X118508147Y-61886574D01*
X118616320Y-62147727D01*
X118773363Y-62382759D01*
X118973241Y-62582637D01*
X119208273Y-62739680D01*
X119469426Y-62847853D01*
X119746665Y-62903000D01*
X119869000Y-62903000D01*
X119869000Y-63093939D01*
X119908774Y-63293898D01*
X119986795Y-63482256D01*
X120100063Y-63651774D01*
X120165697Y-63717408D01*
X119888000Y-63690057D01*
X119606692Y-63717764D01*
X119336193Y-63799818D01*
X119086900Y-63933068D01*
X118868393Y-64112392D01*
X118689068Y-64330899D01*
X118555818Y-64580192D01*
X118473764Y-64850691D01*
X118453000Y-65061508D01*
X118453000Y-66002491D01*
X118473764Y-66213308D01*
X118555818Y-66483807D01*
X118689068Y-66733100D01*
X118868392Y-66951607D01*
X119086899Y-67130932D01*
X119336192Y-67264182D01*
X119606691Y-67346236D01*
X119888000Y-67373943D01*
X120169308Y-67346236D01*
X120264983Y-67317214D01*
X120294651Y-67415015D01*
X120307464Y-67457256D01*
X120378036Y-67589286D01*
X120390092Y-67603976D01*
X120473009Y-67705011D01*
X120502013Y-67728814D01*
X121864201Y-69091003D01*
X121887999Y-69120001D01*
X121916997Y-69143799D01*
X122003723Y-69214974D01*
X122135753Y-69285546D01*
X122279014Y-69329003D01*
X122390667Y-69340000D01*
X122390676Y-69340000D01*
X122427999Y-69343676D01*
X122465322Y-69340000D01*
X124264289Y-69340000D01*
X124308226Y-69383937D01*
X124477744Y-69497205D01*
X124666102Y-69575226D01*
X124866061Y-69615000D01*
X125069939Y-69615000D01*
X125269898Y-69575226D01*
X125458256Y-69497205D01*
X125627774Y-69383937D01*
X125771937Y-69239774D01*
X125885205Y-69070256D01*
X125963226Y-68881898D01*
X126003000Y-68681939D01*
X126003000Y-68599000D01*
X126085939Y-68599000D01*
X126285898Y-68559226D01*
X126474256Y-68481205D01*
X126643774Y-68367937D01*
X126787937Y-68223774D01*
X126901205Y-68054256D01*
X126979226Y-67865898D01*
X127019000Y-67665939D01*
X127019000Y-67462061D01*
X127000702Y-67370072D01*
X128308000Y-67370072D01*
X128432482Y-67357812D01*
X128552180Y-67321502D01*
X128662494Y-67262537D01*
X128758204Y-67183990D01*
X128776320Y-67227727D01*
X128933363Y-67462759D01*
X129133241Y-67662637D01*
X129368273Y-67819680D01*
X129629426Y-67927853D01*
X129906665Y-67983000D01*
X130189335Y-67983000D01*
X130466574Y-67927853D01*
X130727727Y-67819680D01*
X130962759Y-67662637D01*
X131084694Y-67540702D01*
X134234903Y-67540702D01*
X134306486Y-67784671D01*
X134561996Y-67905571D01*
X134836184Y-67974300D01*
X135118512Y-67988217D01*
X135398130Y-67946787D01*
X135664292Y-67851603D01*
X135789514Y-67784671D01*
X135861097Y-67540702D01*
X135048000Y-66727605D01*
X134234903Y-67540702D01*
X131084694Y-67540702D01*
X131162637Y-67462759D01*
X131319680Y-67227727D01*
X131427853Y-66966574D01*
X131483000Y-66689335D01*
X131483000Y-66618512D01*
X133607783Y-66618512D01*
X133649213Y-66898130D01*
X133744397Y-67164292D01*
X133811329Y-67289514D01*
X134055298Y-67361097D01*
X134868395Y-66548000D01*
X134055298Y-65734903D01*
X133811329Y-65806486D01*
X133690429Y-66061996D01*
X133621700Y-66336184D01*
X133607783Y-66618512D01*
X131483000Y-66618512D01*
X131483000Y-66406665D01*
X131427853Y-66129426D01*
X131319680Y-65868273D01*
X131162637Y-65633241D01*
X131084694Y-65555298D01*
X134234903Y-65555298D01*
X135048000Y-66368395D01*
X135861097Y-65555298D01*
X135789514Y-65311329D01*
X135534004Y-65190429D01*
X135259816Y-65121700D01*
X134977488Y-65107783D01*
X134697870Y-65149213D01*
X134431708Y-65244397D01*
X134306486Y-65311329D01*
X134234903Y-65555298D01*
X131084694Y-65555298D01*
X130962759Y-65433363D01*
X130727727Y-65276320D01*
X130466574Y-65168147D01*
X130189335Y-65113000D01*
X129906665Y-65113000D01*
X129629426Y-65168147D01*
X129368273Y-65276320D01*
X129133241Y-65433363D01*
X128946072Y-65620532D01*
X128946072Y-64332000D01*
X128933812Y-64207518D01*
X128897502Y-64087820D01*
X128838537Y-63977506D01*
X128759185Y-63880815D01*
X128662494Y-63801463D01*
X128552180Y-63742498D01*
X128432482Y-63706188D01*
X128308000Y-63693928D01*
X126853010Y-63693928D01*
X126853010Y-63554385D01*
X126901205Y-63482256D01*
X126979226Y-63293898D01*
X127019000Y-63093939D01*
X127019000Y-62890061D01*
X127003527Y-62812273D01*
X127089426Y-62847853D01*
X127366665Y-62903000D01*
X127649335Y-62903000D01*
X127926574Y-62847853D01*
X128187727Y-62739680D01*
X128422759Y-62582637D01*
X128622637Y-62382759D01*
X128778000Y-62150241D01*
X128933363Y-62382759D01*
X129133241Y-62582637D01*
X129368273Y-62739680D01*
X129629426Y-62847853D01*
X129906665Y-62903000D01*
X130189335Y-62903000D01*
X130466574Y-62847853D01*
X130727727Y-62739680D01*
X130962759Y-62582637D01*
X131084694Y-62460702D01*
X134234903Y-62460702D01*
X134306486Y-62704671D01*
X134561996Y-62825571D01*
X134836184Y-62894300D01*
X135118512Y-62908217D01*
X135398130Y-62866787D01*
X135664292Y-62771603D01*
X135789514Y-62704671D01*
X135861097Y-62460702D01*
X135048000Y-61647605D01*
X134234903Y-62460702D01*
X131084694Y-62460702D01*
X131162637Y-62382759D01*
X131319680Y-62147727D01*
X131427853Y-61886574D01*
X131483000Y-61609335D01*
X131483000Y-61538512D01*
X133607783Y-61538512D01*
X133649213Y-61818130D01*
X133744397Y-62084292D01*
X133811329Y-62209514D01*
X134055298Y-62281097D01*
X134868395Y-61468000D01*
X134055298Y-60654903D01*
X133811329Y-60726486D01*
X133690429Y-60981996D01*
X133621700Y-61256184D01*
X133607783Y-61538512D01*
X131483000Y-61538512D01*
X131483000Y-61326665D01*
X131427853Y-61049426D01*
X131319680Y-60788273D01*
X131162637Y-60553241D01*
X131084694Y-60475298D01*
X134234903Y-60475298D01*
X135048000Y-61288395D01*
X135861097Y-60475298D01*
X135789514Y-60231329D01*
X135534004Y-60110429D01*
X135259816Y-60041700D01*
X134977488Y-60027783D01*
X134697870Y-60069213D01*
X134431708Y-60164397D01*
X134306486Y-60231329D01*
X134234903Y-60475298D01*
X131084694Y-60475298D01*
X130962759Y-60353363D01*
X130727727Y-60196320D01*
X130466574Y-60088147D01*
X130189335Y-60033000D01*
X129906665Y-60033000D01*
X129629426Y-60088147D01*
X129368273Y-60196320D01*
X129133241Y-60353363D01*
X128933363Y-60553241D01*
X128778000Y-60785759D01*
X128622637Y-60553241D01*
X128422759Y-60353363D01*
X128187727Y-60196320D01*
X127926574Y-60088147D01*
X127649335Y-60033000D01*
X127366665Y-60033000D01*
X127089426Y-60088147D01*
X126828273Y-60196320D01*
X126593241Y-60353363D01*
X126393363Y-60553241D01*
X126289957Y-60708000D01*
X125513323Y-60708000D01*
X125476000Y-60704324D01*
X125438677Y-60708000D01*
X125438667Y-60708000D01*
X125327014Y-60718997D01*
X125183753Y-60762454D01*
X125051723Y-60833026D01*
X124968083Y-60901668D01*
X124935999Y-60927999D01*
X124912201Y-60956997D01*
X123331988Y-62537211D01*
X123302990Y-62561009D01*
X123279192Y-62590007D01*
X123279191Y-62590008D01*
X123208016Y-62676734D01*
X123137444Y-62808764D01*
X123093988Y-62952025D01*
X123079314Y-63101010D01*
X123082991Y-63138342D01*
X123082991Y-63854970D01*
X122979808Y-63799818D01*
X122709309Y-63717764D01*
X122428000Y-63690057D01*
X122146692Y-63717764D01*
X121876193Y-63799818D01*
X121773010Y-63854971D01*
X121773010Y-63554385D01*
X121821205Y-63482256D01*
X121899226Y-63293898D01*
X121939000Y-63093939D01*
X121939000Y-62890061D01*
X121899226Y-62690102D01*
X121821205Y-62501744D01*
X121707937Y-62332226D01*
X121563774Y-62188063D01*
X121394256Y-62074795D01*
X121219818Y-62002540D01*
X121267853Y-61886574D01*
X121323000Y-61609335D01*
X121323000Y-61326665D01*
X121267853Y-61049426D01*
X121159680Y-60788273D01*
X121002637Y-60553241D01*
X120802759Y-60353363D01*
X120567727Y-60196320D01*
X120306574Y-60088147D01*
X120029335Y-60033000D01*
X119746665Y-60033000D01*
X119469426Y-60088147D01*
X119208273Y-60196320D01*
X118973241Y-60353363D01*
X118773363Y-60553241D01*
X118616320Y-60788273D01*
X118508147Y-61049426D01*
X118453000Y-61326665D01*
X117525000Y-61326665D01*
X117525000Y-58784614D01*
X117597997Y-58857611D01*
X117712107Y-58743501D01*
X117928228Y-59110258D01*
X118388105Y-59350938D01*
X118886098Y-59497275D01*
X119403071Y-59543648D01*
X119919159Y-59488273D01*
X120414526Y-59333279D01*
X120831772Y-59110258D01*
X121047894Y-58743499D01*
X119380000Y-57075605D01*
X119365858Y-57089748D01*
X119186253Y-56910143D01*
X119200395Y-56896000D01*
X119559605Y-56896000D01*
X121227499Y-58563894D01*
X121594258Y-58347772D01*
X121661575Y-58219146D01*
X121731506Y-58276537D01*
X121841820Y-58335502D01*
X121961518Y-58371812D01*
X122086000Y-58384072D01*
X123786000Y-58384072D01*
X123910482Y-58371812D01*
X124030180Y-58335502D01*
X124140494Y-58276537D01*
X124237185Y-58197185D01*
X124316537Y-58100494D01*
X124375502Y-57990180D01*
X124399966Y-57909534D01*
X124475731Y-57993588D01*
X124709080Y-58167641D01*
X124971901Y-58292825D01*
X125119110Y-58337476D01*
X125349000Y-58216155D01*
X125349000Y-57023000D01*
X125603000Y-57023000D01*
X125603000Y-58216155D01*
X125832890Y-58337476D01*
X125980099Y-58292825D01*
X126242920Y-58167641D01*
X126476269Y-57993588D01*
X126671178Y-57777355D01*
X126820157Y-57527252D01*
X126917481Y-57252891D01*
X126796814Y-57023000D01*
X125603000Y-57023000D01*
X125349000Y-57023000D01*
X125329000Y-57023000D01*
X125329000Y-56769000D01*
X125349000Y-56769000D01*
X125349000Y-55575845D01*
X125603000Y-55575845D01*
X125603000Y-56769000D01*
X126796814Y-56769000D01*
X126917481Y-56539109D01*
X126820157Y-56264748D01*
X126689856Y-56046000D01*
X127543928Y-56046000D01*
X127543928Y-57746000D01*
X127556188Y-57870482D01*
X127592498Y-57990180D01*
X127651463Y-58100494D01*
X127730815Y-58197185D01*
X127827506Y-58276537D01*
X127937820Y-58335502D01*
X128057518Y-58371812D01*
X128182000Y-58384072D01*
X129882000Y-58384072D01*
X130006482Y-58371812D01*
X130126180Y-58335502D01*
X130236494Y-58276537D01*
X130333185Y-58197185D01*
X130412537Y-58100494D01*
X130471502Y-57990180D01*
X130495966Y-57909534D01*
X130571731Y-57993588D01*
X130805080Y-58167641D01*
X131067901Y-58292825D01*
X131215110Y-58337476D01*
X131445000Y-58216155D01*
X131445000Y-57023000D01*
X131699000Y-57023000D01*
X131699000Y-58216155D01*
X131928890Y-58337476D01*
X132076099Y-58292825D01*
X132338920Y-58167641D01*
X132572269Y-57993588D01*
X132767178Y-57777355D01*
X132916157Y-57527252D01*
X133013481Y-57252891D01*
X132892814Y-57023000D01*
X131699000Y-57023000D01*
X131445000Y-57023000D01*
X131425000Y-57023000D01*
X131425000Y-56769000D01*
X131445000Y-56769000D01*
X131445000Y-55575845D01*
X131699000Y-55575845D01*
X131699000Y-56769000D01*
X132892814Y-56769000D01*
X133013481Y-56539109D01*
X132916157Y-56264748D01*
X132767178Y-56014645D01*
X132572269Y-55798412D01*
X132338920Y-55624359D01*
X132076099Y-55499175D01*
X131928890Y-55454524D01*
X131699000Y-55575845D01*
X131445000Y-55575845D01*
X131215110Y-55454524D01*
X131067901Y-55499175D01*
X130805080Y-55624359D01*
X130571731Y-55798412D01*
X130495966Y-55882466D01*
X130471502Y-55801820D01*
X130412537Y-55691506D01*
X130333185Y-55594815D01*
X130236494Y-55515463D01*
X130126180Y-55456498D01*
X130006482Y-55420188D01*
X129882000Y-55407928D01*
X128182000Y-55407928D01*
X128057518Y-55420188D01*
X127937820Y-55456498D01*
X127827506Y-55515463D01*
X127730815Y-55594815D01*
X127651463Y-55691506D01*
X127592498Y-55801820D01*
X127556188Y-55921518D01*
X127543928Y-56046000D01*
X126689856Y-56046000D01*
X126671178Y-56014645D01*
X126476269Y-55798412D01*
X126242920Y-55624359D01*
X125980099Y-55499175D01*
X125832890Y-55454524D01*
X125603000Y-55575845D01*
X125349000Y-55575845D01*
X125119110Y-55454524D01*
X124971901Y-55499175D01*
X124709080Y-55624359D01*
X124475731Y-55798412D01*
X124399966Y-55882466D01*
X124375502Y-55801820D01*
X124316537Y-55691506D01*
X124237185Y-55594815D01*
X124140494Y-55515463D01*
X124030180Y-55456498D01*
X123910482Y-55420188D01*
X123786000Y-55407928D01*
X122086000Y-55407928D01*
X121961518Y-55420188D01*
X121841820Y-55456498D01*
X121731506Y-55515463D01*
X121662572Y-55572035D01*
X121594258Y-55444228D01*
X121227499Y-55228106D01*
X119559605Y-56896000D01*
X119200395Y-56896000D01*
X119186253Y-56881858D01*
X119365858Y-56702253D01*
X119380000Y-56716395D01*
X121047894Y-55048501D01*
X120916190Y-54825000D01*
X136155000Y-54825000D01*
X136155000Y-60688439D01*
G37*
%TD.AperFunction*%
%TD*%
M02*
